# Blender 5.1.2
# www.blender.org
mtllib 3.mtl
o Cube
v 1.047457 1.000000 -0.850000
v 1.047457 0.850000 -1.000000
v 1.047457 0.992658 -0.896353
v 1.047457 0.971353 -0.938168
v 1.047457 0.938168 -0.971353
v 1.047457 0.896353 -0.992658
v 3.047457 0.850000 -0.850000
v 2.897457 0.850000 -1.000000
v 2.897457 1.000000 -0.850000
v 3.040112 0.850000 -0.896361
v 3.018820 0.850000 -0.938153
v 3.040112 0.896361 -0.850000
v 3.031415 0.897590 -0.897858
v 3.011314 0.896039 -0.936122
v 3.018820 0.938153 -0.850000
v 3.011208 0.936198 -0.896158
v 2.996963 0.929368 -0.929368
v 2.897457 0.896361 -0.992656
v 2.897457 0.938153 -0.971363
v 2.943818 0.850000 -0.992656
v 2.945047 0.897858 -0.983958
v 2.943496 0.936122 -0.963857
v 2.985610 0.850000 -0.971363
v 2.983655 0.896158 -0.963751
v 2.976825 0.929368 -0.949506
v 2.943818 0.992656 -0.850000
v 2.985610 0.971363 -0.850000
v 2.897457 0.992656 -0.896361
v 2.945315 0.983958 -0.897590
v 2.983578 0.963857 -0.896039
v 2.897457 0.971363 -0.938153
v 2.943615 0.963751 -0.936198
v 2.976825 0.949506 -0.929368
v 1.047457 -0.850000 -1.000000
v 1.047457 -1.000000 -0.850000
v 1.047457 -0.896353 -0.992658
v 1.047457 -0.938168 -0.971353
v 1.047457 -0.971353 -0.938168
v 1.047457 -0.992658 -0.896353
v 2.897457 -0.850000 -1.000000
v 3.047457 -0.850000 -0.850000
v 2.897457 -1.000000 -0.850000
v 2.943818 -0.850000 -0.992656
v 2.985610 -0.850000 -0.971363
v 2.897457 -0.896361 -0.992656
v 2.945315 -0.897590 -0.983958
v 2.983578 -0.896039 -0.963857
v 2.897457 -0.938153 -0.971363
v 2.943615 -0.936198 -0.963751
v 2.976825 -0.929368 -0.949506
v 3.040112 -0.896361 -0.850000
v 3.018820 -0.938153 -0.850000
v 3.040112 -0.850000 -0.896361
v 3.031415 -0.897858 -0.897590
v 3.011314 -0.936122 -0.896039
v 3.018820 -0.850000 -0.938153
v 3.011208 -0.896158 -0.936198
v 2.996963 -0.929368 -0.929368
v 2.897457 -0.992656 -0.896361
v 2.897457 -0.971363 -0.938153
v 2.943818 -0.992656 -0.850000
v 2.945047 -0.983958 -0.897858
v 2.943496 -0.963857 -0.936122
v 2.985610 -0.971363 -0.850000
v 2.983655 -0.963751 -0.896158
v 2.976825 -0.949506 -0.929368
v 1.197457 0.850000 1.000000
v 0.897457 1.000000 0.850000
v 1.047457 0.850000 1.150000
v 1.143602 0.895920 0.992065
v 1.080625 0.937849 0.971016
v 1.151310 0.850000 1.008004
v 1.111648 0.895291 1.000686
v 1.069195 0.934904 0.985005
v 1.109575 0.850000 1.029011
v 1.084443 0.894457 1.015489
v 1.059453 0.930053 1.000013
v 0.943377 0.992065 0.903855
v 0.985305 0.971017 0.966832
v 0.951311 0.992065 0.895920
v 0.983746 0.979251 0.935656
v 1.010597 0.962863 0.978206
v 1.014289 0.971017 0.937849
v 1.025920 0.962457 0.962993
v 1.035452 0.951037 0.987995
v 1.055460 0.850000 1.103853
v 1.076467 0.850000 1.062119
v 1.039522 0.895920 1.096145
v 1.046881 0.895032 1.063561
v 1.062540 0.894457 1.036839
v 1.018473 0.937849 1.033168
v 1.032060 0.934758 1.021483
v 1.047470 0.930053 1.011996
v 3.047457 0.850000 0.850000
v 2.897457 1.000000 0.850000
v 2.897457 0.850000 1.000000
v 3.040112 0.896361 0.850000
v 3.018820 0.938153 0.850000
v 3.040112 0.850000 0.896361
v 3.031415 0.897858 0.897590
v 3.011314 0.936122 0.896039
v 3.018820 0.850000 0.938153
v 3.011208 0.896158 0.936198
v 2.996963 0.929368 0.929368
v 2.897457 0.992656 0.896361
v 2.897457 0.971363 0.938153
v 2.943818 0.992656 0.850000
v 2.945047 0.983958 0.897858
v 2.943496 0.963857 0.936122
v 2.985610 0.971363 0.850000
v 2.983655 0.963751 0.896158
v 2.976825 0.949506 0.929368
v 2.943818 0.850000 0.992656
v 2.985610 0.850000 0.971363
v 2.897457 0.896361 0.992656
v 2.945315 0.897590 0.983958
v 2.983578 0.896039 0.963857
v 2.897457 0.938153 0.971363
v 2.943615 0.936198 0.963751
v 2.976825 0.929368 0.949506
v 1.047457 0.850000 2.850000
v 0.897457 1.000000 2.850000
v 0.897457 0.850000 3.000000
v 1.040112 0.896361 2.850000
v 1.018820 0.938153 2.850000
v 1.040112 0.850000 2.896361
v 1.031415 0.897858 2.897590
v 1.011314 0.936122 2.896039
v 1.018820 0.850000 2.938153
v 1.011208 0.896158 2.936198
v 0.996963 0.929368 2.929368
v 0.897457 0.992656 2.896361
v 0.897457 0.971363 2.938153
v 0.943818 0.992656 2.850000
v 0.945047 0.983958 2.897858
v 0.943496 0.963857 2.936122
v 0.985610 0.971363 2.850000
v 0.983655 0.963751 2.896158
v 0.976824 0.949506 2.929368
v 0.943818 0.850000 2.992656
v 0.985610 0.850000 2.971363
v 0.897457 0.896361 2.992656
v 0.945315 0.897590 2.983958
v 0.983578 0.896039 2.963857
v 0.897457 0.938153 2.971363
v 0.943615 0.936198 2.963751
v 0.976824 0.929368 2.949506
v 1.197457 -0.850000 1.000000
v 1.047457 -0.850000 1.150000
v 0.897457 -1.000000 0.850000
v 1.151310 -0.850000 1.008004
v 1.109575 -0.850000 1.029011
v 1.143602 -0.895920 0.992065
v 1.111018 -0.895032 0.999424
v 1.084295 -0.894457 1.015084
v 1.080625 -0.937849 0.971016
v 1.068940 -0.934758 0.984603
v 1.059453 -0.930053 1.000013
v 1.039522 -0.895920 1.096145
v 1.018473 -0.937849 1.033168
v 1.055460 -0.850000 1.103853
v 1.048143 -0.895291 1.064191
v 1.032462 -0.934904 1.021738
v 1.076467 -0.850000 1.062118
v 1.062946 -0.894457 1.036986
v 1.047470 -0.930053 1.011996
v 0.951311 -0.992065 0.895920
v 1.014289 -0.971017 0.937849
v 0.943377 -0.992065 0.903855
v 0.983113 -0.979251 0.936289
v 1.025662 -0.962863 0.963141
v 0.985305 -0.971017 0.966832
v 1.010449 -0.962457 0.978464
v 1.035452 -0.951037 0.987995
v 2.897457 -1.000000 0.850000
v 3.047457 -0.850000 0.850000
v 2.897457 -0.850000 1.000000
v 2.943818 -0.992656 0.850000
v 2.985610 -0.971363 0.850000
v 2.897457 -0.992656 0.896361
v 2.945315 -0.983958 0.897590
v 2.983578 -0.963857 0.896039
v 2.897457 -0.971363 0.938153
v 2.943615 -0.963751 0.936198
v 2.976825 -0.949506 0.929368
v 3.040112 -0.850000 0.896361
v 3.018820 -0.850000 0.938153
v 3.040112 -0.896361 0.850000
v 3.031415 -0.897590 0.897858
v 3.011314 -0.896039 0.936122
v 3.018820 -0.938153 0.850000
v 3.011208 -0.936198 0.896158
v 2.996963 -0.929368 0.929368
v 2.897457 -0.896361 0.992656
v 2.897457 -0.938153 0.971363
v 2.943818 -0.850000 0.992656
v 2.945047 -0.897858 0.983958
v 2.943496 -0.936122 0.963857
v 2.985610 -0.850000 0.971363
v 2.983655 -0.896158 0.963751
v 2.976825 -0.929368 0.949506
v 0.897457 -1.000000 2.850000
v 1.047457 -0.850000 2.850000
v 0.897457 -0.850000 3.000000
v 0.943818 -0.992656 2.850000
v 0.985610 -0.971363 2.850000
v 0.897457 -0.992656 2.896361
v 0.945315 -0.983958 2.897590
v 0.983578 -0.963857 2.896039
v 0.897457 -0.971363 2.938153
v 0.943615 -0.963751 2.936198
v 0.976824 -0.949506 2.929368
v 1.040112 -0.850000 2.896361
v 1.018820 -0.850000 2.938153
v 1.040112 -0.896361 2.850000
v 1.031415 -0.897590 2.897858
v 1.011314 -0.896039 2.936122
v 1.018820 -0.938153 2.850000
v 1.011208 -0.936198 2.896158
v 0.996963 -0.929368 2.929368
v 0.897457 -0.896361 2.992656
v 0.897457 -0.938153 2.971363
v 0.943818 -0.850000 2.992656
v 0.945047 -0.897858 2.983958
v 0.943496 -0.936122 2.963857
v 0.985610 -0.850000 2.971363
v 0.983655 -0.896158 2.963751
v 0.976824 -0.929368 2.949506
v -0.802543 0.850000 -1.000000
v -0.952543 0.850000 -0.850000
v -0.802543 1.000000 -0.850000
v -0.848905 0.850000 -0.992656
v -0.890696 0.850000 -0.971363
v -0.802543 0.896361 -0.992656
v -0.850402 0.897590 -0.983958
v -0.888665 0.896039 -0.963857
v -0.802543 0.938153 -0.971363
v -0.848701 0.936198 -0.963751
v -0.881911 0.929368 -0.949506
v -0.945199 0.896361 -0.850000
v -0.923907 0.938153 -0.850000
v -0.945199 0.850000 -0.896361
v -0.936501 0.897858 -0.897590
v -0.916400 0.936122 -0.896039
v -0.923907 0.850000 -0.938153
v -0.916294 0.896158 -0.936198
v -0.902050 0.929368 -0.929368
v -0.802543 0.992656 -0.896361
v -0.802543 0.971363 -0.938153
v -0.848905 0.992656 -0.850000
v -0.850134 0.983958 -0.897858
v -0.848582 0.963857 -0.936122
v -0.890696 0.971363 -0.850000
v -0.888742 0.963751 -0.896158
v -0.881911 0.949506 -0.929368
v -0.802543 -1.000000 -0.850000
v -0.952543 -0.850000 -0.850000
v -0.802543 -0.850000 -1.000000
v -0.848905 -0.992656 -0.850000
v -0.890696 -0.971363 -0.850000
v -0.802543 -0.992656 -0.896361
v -0.850402 -0.983958 -0.897590
v -0.888665 -0.963857 -0.896039
v -0.802543 -0.971363 -0.938153
v -0.848701 -0.963751 -0.936198
v -0.881911 -0.949506 -0.929368
v -0.945199 -0.850000 -0.896361
v -0.923907 -0.850000 -0.938153
v -0.945199 -0.896361 -0.850000
v -0.936501 -0.897590 -0.897858
v -0.916400 -0.896039 -0.936122
v -0.923907 -0.938153 -0.850000
v -0.916294 -0.936198 -0.896158
v -0.902050 -0.929368 -0.929368
v -0.802543 -0.896361 -0.992656
v -0.802543 -0.938153 -0.971363
v -0.848905 -0.850000 -0.992656
v -0.850134 -0.897858 -0.983958
v -0.848582 -0.936122 -0.963857
v -0.890696 -0.850000 -0.971363
v -0.888742 -0.896158 -0.963751
v -0.881911 -0.929368 -0.949506
v -0.952543 0.850000 1.000000
v -0.802543 1.000000 1.000000
v -0.945202 0.896353 1.000000
v -0.923896 0.938168 1.000000
v -0.890711 0.971353 1.000000
v -0.848896 0.992658 1.000000
v -0.952543 0.850000 2.850000
v -0.802543 0.850000 3.000000
v -0.802543 1.000000 2.850000
v -0.945199 0.850000 2.896361
v -0.923907 0.850000 2.938153
v -0.945199 0.896361 2.850000
v -0.936501 0.897590 2.897858
v -0.916400 0.896039 2.936122
v -0.923907 0.938153 2.850000
v -0.916294 0.936198 2.896158
v -0.902050 0.929368 2.929368
v -0.802543 0.896361 2.992656
v -0.802543 0.938153 2.971363
v -0.848905 0.850000 2.992656
v -0.850134 0.897858 2.983958
v -0.848582 0.936122 2.963857
v -0.890696 0.850000 2.971363
v -0.888742 0.896158 2.963751
v -0.881911 0.929368 2.949506
v -0.848905 0.992656 2.850000
v -0.890696 0.971363 2.850000
v -0.802543 0.992656 2.896361
v -0.850402 0.983958 2.897590
v -0.888665 0.963857 2.896039
v -0.802543 0.971363 2.938153
v -0.848701 0.963751 2.936198
v -0.881911 0.949506 2.929368
v -0.802543 -1.000000 1.000000
v -0.952543 -0.850000 1.000000
v -0.848896 -0.992658 1.000000
v -0.890711 -0.971353 1.000000
v -0.923896 -0.938168 1.000000
v -0.945202 -0.896353 1.000000
v -0.802543 -1.000000 2.850000
v -0.802543 -0.850000 3.000000
v -0.952543 -0.850000 2.850000
v -0.802543 -0.992656 2.896361
v -0.802543 -0.971363 2.938153
v -0.848905 -0.992656 2.850000
v -0.850134 -0.983958 2.897858
v -0.848582 -0.963857 2.936122
v -0.890696 -0.971363 2.850000
v -0.888742 -0.963751 2.896158
v -0.881911 -0.949506 2.929368
v -0.848905 -0.850000 2.992656
v -0.890696 -0.850000 2.971363
v -0.802543 -0.896361 2.992656
v -0.850402 -0.897590 2.983958
v -0.888665 -0.896039 2.963857
v -0.802543 -0.938153 2.971363
v -0.848701 -0.936198 2.963751
v -0.881911 -0.929368 2.949506
v -0.945199 -0.896361 2.850000
v -0.923907 -0.938153 2.850000
v -0.945199 -0.850000 2.896361
v -0.936501 -0.897858 2.897590
v -0.916400 -0.936122 2.896039
v -0.923907 -0.850000 2.938153
v -0.916294 -0.896158 2.936198
v -0.902050 -0.929368 2.929368
vn 0.9729 0.1635 -0.1635
vn 0.8764 0.1543 -0.4562
vn 0.6996 0.1450 -0.6997
vn 0.8764 0.4557 -0.1556
vn 0.7924 0.4313 -0.4314
vn 0.6456 0.4090 -0.6449
vn 0.1635 0.1635 -0.9729
vn 0.1543 0.4562 -0.8764
vn 0.1450 0.6997 -0.6996
vn 0.4557 0.1556 -0.8764
vn 0.4313 0.4314 -0.7924
vn 0.4090 0.6449 -0.6456
vn 0.1635 0.9729 -0.1635
vn 0.4562 0.8764 -0.1543
vn 0.6997 0.6996 -0.1450
vn 0.1556 0.8764 -0.4557
vn 0.4314 0.7924 -0.4313
vn 0.6449 0.6456 -0.4090
vn 0.5774 0.5774 -0.5773
vn 0.1635 -0.1635 -0.9729
vn 0.4562 -0.1543 -0.8764
vn 0.6997 -0.1450 -0.6996
vn 0.1556 -0.4557 -0.8764
vn 0.4314 -0.4314 -0.7924
vn 0.6449 -0.4090 -0.6456
vn 0.9729 -0.1635 -0.1635
vn 0.8764 -0.4562 -0.1543
vn 0.6996 -0.6997 -0.1450
vn 0.8764 -0.1556 -0.4557
vn 0.7924 -0.4314 -0.4313
vn 0.6456 -0.6449 -0.4090
vn 0.1635 -0.9729 -0.1635
vn 0.1543 -0.8764 -0.4562
vn 0.1450 -0.6996 -0.6997
vn 0.4557 -0.8764 -0.1556
vn 0.4313 -0.7924 -0.4314
vn 0.4090 -0.6456 -0.6449
vn 0.5774 -0.5774 -0.5773
vn 0.1923 0.3504 0.9166
vn 0.2934 0.6814 0.6706
vn 0.3639 0.8941 0.2610
vn 0.4018 0.4723 0.7846
vn 0.4192 0.6419 0.6420
vn 0.4298 0.8356 0.3421
vn 0.1190 0.9857 0.1190
vn 0.1444 0.9585 0.2459
vn 0.2610 0.8922 0.3687
vn 0.2476 0.9576 0.1473
vn 0.2647 0.9335 0.2417
vn 0.3384 0.8324 0.4389
vn 0.9205 0.3490 0.1757
vn 0.7691 0.4922 0.4078
vn 0.5981 0.5264 0.6042
vn 0.7012 0.6588 0.2726
vn 0.6256 0.6420 0.4432
vn 0.5480 0.6239 0.5571
vn 0.4496 0.7718 0.4496
vn 0.9729 0.1635 0.1635
vn 0.8764 0.4562 0.1543
vn 0.6996 0.6997 0.1450
vn 0.8764 0.1556 0.4557
vn 0.7924 0.4314 0.4313
vn 0.6456 0.6449 0.4090
vn 0.1635 0.9729 0.1635
vn 0.1543 0.8764 0.4562
vn 0.1450 0.6996 0.6997
vn 0.4557 0.8764 0.1556
vn 0.4313 0.7924 0.4314
vn 0.4090 0.6456 0.6449
vn 0.1635 0.1635 0.9729
vn 0.4562 0.1543 0.8764
vn 0.6997 0.1450 0.6996
vn 0.1556 0.4557 0.8764
vn 0.4314 0.4314 0.7924
vn 0.6449 0.4090 0.6456
vn 0.5774 0.5774 0.5773
vn 0.4314 0.7924 0.4314
vn 0.4314 0.4313 0.7924
vn 0.5774 0.5773 0.5774
vn 0.1757 -0.3490 0.9205
vn 0.4078 -0.4922 0.7691
vn 0.6042 -0.5264 0.5981
vn 0.2726 -0.6587 0.7012
vn 0.4432 -0.6420 0.6256
vn 0.5571 -0.6239 0.5480
vn 0.9166 -0.3504 0.1923
vn 0.6706 -0.6814 0.2934
vn 0.2610 -0.8941 0.3639
vn 0.7846 -0.4723 0.4018
vn 0.6420 -0.6419 0.4192
vn 0.3421 -0.8356 0.4298
vn 0.1189 -0.9857 0.1190
vn 0.2459 -0.9585 0.1444
vn 0.3687 -0.8922 0.2610
vn 0.1473 -0.9576 0.2476
vn 0.2417 -0.9335 0.2647
vn 0.4389 -0.8324 0.3384
vn 0.4496 -0.7718 0.4496
vn 0.1635 -0.9729 0.1635
vn 0.4562 -0.8764 0.1543
vn 0.6997 -0.6996 0.1450
vn 0.1556 -0.8764 0.4557
vn 0.4314 -0.7924 0.4313
vn 0.6449 -0.6456 0.4090
vn 0.9729 -0.1635 0.1635
vn 0.8764 -0.1543 0.4562
vn 0.6996 -0.1450 0.6997
vn 0.8764 -0.4557 0.1556
vn 0.7924 -0.4313 0.4314
vn 0.6456 -0.4090 0.6449
vn 0.1635 -0.1635 0.9729
vn 0.1543 -0.4562 0.8764
vn 0.1450 -0.6997 0.6996
vn 0.4557 -0.1556 0.8764
vn 0.4313 -0.4314 0.7924
vn 0.4090 -0.6449 0.6456
vn 0.5774 -0.5774 0.5773
vn 0.5774 -0.5773 0.5774
vn -0.1635 0.1635 -0.9729
vn -0.4562 0.1543 -0.8764
vn -0.6997 0.1450 -0.6996
vn -0.1556 0.4557 -0.8764
vn -0.4314 0.4313 -0.7924
vn -0.6449 0.4090 -0.6456
vn -0.9729 0.1635 -0.1635
vn -0.8764 0.4562 -0.1543
vn -0.6996 0.6997 -0.1450
vn -0.8764 0.1556 -0.4557
vn -0.7924 0.4314 -0.4313
vn -0.6456 0.6449 -0.4090
vn -0.1635 0.9729 -0.1635
vn -0.1543 0.8764 -0.4562
vn -0.1450 0.6996 -0.6997
vn -0.4557 0.8764 -0.1556
vn -0.4313 0.7924 -0.4314
vn -0.4090 0.6456 -0.6449
vn -0.5774 0.5774 -0.5774
vn -0.1635 -0.9729 -0.1635
vn -0.4562 -0.8764 -0.1543
vn -0.6997 -0.6996 -0.1450
vn -0.1556 -0.8764 -0.4557
vn -0.4314 -0.7924 -0.4313
vn -0.6449 -0.6456 -0.4090
vn -0.9729 -0.1635 -0.1635
vn -0.8764 -0.1543 -0.4562
vn -0.6996 -0.1450 -0.6997
vn -0.8764 -0.4557 -0.1556
vn -0.7924 -0.4313 -0.4314
vn -0.6456 -0.4090 -0.6449
vn -0.1635 -0.1635 -0.9729
vn -0.1543 -0.4562 -0.8764
vn -0.1450 -0.6997 -0.6996
vn -0.4557 -0.1556 -0.8764
vn -0.4313 -0.4314 -0.7924
vn -0.4090 -0.6449 -0.6456
vn -0.5774 -0.5774 -0.5774
vn -0.9729 0.1635 0.1635
vn -0.8764 0.1543 0.4562
vn -0.6996 0.1450 0.6997
vn -0.8764 0.4557 0.1556
vn -0.7924 0.4313 0.4314
vn -0.6456 0.4090 0.6449
vn -0.1635 0.1635 0.9729
vn -0.1543 0.4562 0.8764
vn -0.1450 0.6997 0.6996
vn -0.4557 0.1556 0.8764
vn -0.4313 0.4314 0.7924
vn -0.4090 0.6449 0.6456
vn -0.1635 0.9729 0.1635
vn -0.4562 0.8764 0.1543
vn -0.6997 0.6996 0.1450
vn -0.1556 0.8764 0.4557
vn -0.4314 0.7924 0.4313
vn -0.6449 0.6456 0.4090
vn -0.5774 0.5773 0.5774
vn -0.1635 -0.9729 0.1635
vn -0.1543 -0.8764 0.4562
vn -0.1450 -0.6996 0.6997
vn -0.4557 -0.8764 0.1556
vn -0.4314 -0.7924 0.4314
vn -0.4090 -0.6456 0.6449
vn -0.1635 -0.1635 0.9729
vn -0.4562 -0.1543 0.8764
vn -0.6997 -0.1450 0.6996
vn -0.1556 -0.4557 0.8764
vn -0.4314 -0.4313 0.7924
vn -0.6449 -0.4090 0.6456
vn -0.9729 -0.1635 0.1635
vn -0.8764 -0.4562 0.1543
vn -0.6996 -0.6997 0.1450
vn -0.8764 -0.1556 0.4557
vn -0.7924 -0.4314 0.4313
vn -0.6456 -0.6449 0.4090
vn -0.5774 -0.5773 0.5774
vn -0.0000 0.1564 -0.9877
vn -0.0000 0.4540 -0.8910
vn -0.0000 0.7071 -0.7071
vn -0.0000 0.8910 -0.4540
vn -0.0000 0.9877 -0.1564
vn -0.9877 0.1564 -0.0000
vn -0.8910 0.4540 -0.0000
vn -0.7071 0.7071 -0.0000
vn -0.4540 0.8910 -0.0000
vn -0.1564 0.9877 -0.0000
vn -0.1564 -0.9877 -0.0000
vn -0.4540 -0.8910 -0.0000
vn -0.7071 -0.7071 -0.0000
vn -0.8910 -0.4540 -0.0000
vn -0.9877 -0.1564 -0.0000
vn -0.1565 -0.0000 -0.9877
vn -0.4540 -0.0000 -0.8910
vn -0.7071 -0.0000 -0.7071
vn -0.8910 -0.0000 -0.4540
vn -0.9877 -0.0000 -0.1565
vn -0.0000 -0.9877 -0.1564
vn -0.0000 -0.8910 -0.4540
vn -0.0000 -0.7071 -0.7071
vn -0.0000 -0.4540 -0.8910
vn -0.0000 -0.1564 -0.9877
vn 0.1565 0.9877 -0.0000
vn 0.4540 0.8910 -0.0000
vn 0.7071 0.7071 -0.0000
vn 0.8910 0.4540 -0.0000
vn 0.9877 0.1565 -0.0000
vn -0.0002 0.1632 0.9866
vn -0.0003 0.4511 0.8925
vn -0.0002 0.7070 0.7072
vn -0.0003 0.8923 0.4515
vn -0.0002 0.9866 0.1634
vn -0.0002 -0.9866 0.1634
vn -0.0003 -0.8923 0.4515
vn -0.0002 -0.7070 0.7072
vn -0.0003 -0.4511 0.8925
vn -0.0002 -0.1632 0.9866
vn 0.1565 -0.0000 0.9877
vn 0.4540 -0.0000 0.8910
vn 0.7071 -0.0000 0.7071
vn 0.8910 -0.0000 0.4540
vn 0.9877 -0.0000 0.1565
vn 0.9853 -0.0000 0.1709
vn 0.8932 -0.0000 0.4496
vn 0.4496 -0.0000 0.8932
vn 0.1709 -0.0000 0.9853
vn 0.9877 -0.1565 -0.0000
vn 0.8910 -0.4540 -0.0000
vn 0.7071 -0.7071 -0.0000
vn 0.4540 -0.8910 -0.0000
vn 0.1565 -0.9877 -0.0000
vn 0.9877 -0.0000 -0.1565
vn 0.8910 -0.0000 -0.4540
vn 0.7071 -0.0000 -0.7071
vn 0.4540 -0.0000 -0.8910
vn 0.1565 -0.0000 -0.9877
vn 0.1634 0.9866 -0.0002
vn 0.4515 0.8923 -0.0003
vn 0.7072 0.7070 -0.0002
vn 0.8925 0.4511 -0.0003
vn 0.9866 0.1632 -0.0002
vn -0.0000 0.9877 0.1565
vn -0.0000 0.8910 0.4540
vn -0.0000 0.7071 0.7071
vn -0.0000 0.4540 0.8910
vn -0.0000 0.1565 0.9877
vn -0.0000 -0.1565 0.9877
vn -0.0000 -0.4540 0.8910
vn -0.0000 -0.7071 0.7071
vn -0.0000 -0.8910 0.4540
vn -0.0000 -0.9877 0.1565
vn -0.9877 -0.0000 0.1565
vn -0.8910 -0.0000 0.4540
vn -0.7071 -0.0000 0.7071
vn -0.4540 -0.0000 0.8910
vn -0.1565 -0.0000 0.9877
vn 0.9866 -0.1632 -0.0002
vn 0.8925 -0.4511 -0.0003
vn 0.7072 -0.7070 -0.0002
vn 0.4515 -0.8923 -0.0003
vn 0.1634 -0.9866 -0.0002
vn -0.0000 1.0000 -0.0000
vn -0.0000 -0.0000 -1.0000
vn 1.0000 -0.0000 -0.0000
vn -0.0000 -1.0000 -0.0000
vn -0.0000 -0.0000 1.0000
vn -1.0000 -0.0000 -0.0000
vt 0.606250 0.518750
vt 0.606250 0.512955
vt 0.612199 0.512768
vt 0.612045 0.518750
vt 0.606250 0.507731
vt 0.612005 0.507985
vt 0.606250 0.492269
vt 0.612020 0.492025
vt 0.617025 0.512980
vt 0.617269 0.518750
vt 0.616171 0.505044
vt 0.616171 0.491171
vt 0.606250 0.481250
vt 0.612045 0.481250
vt 0.612232 0.487199
vt 0.606250 0.487045
vt 0.617269 0.481250
vt 0.617015 0.487005
vt 0.634375 0.490625
vt 0.631490 0.493510
vt 0.629415 0.495586
vt 0.643750 0.518750
vt 0.637955 0.518750
vt 0.637768 0.512801
vt 0.643750 0.512955
vt 0.632731 0.518750
vt 0.632985 0.512995
vt 0.393750 0.481250
vt 0.393750 0.487045
vt 0.387801 0.487232
vt 0.387955 0.481250
vt 0.393750 0.492269
vt 0.387995 0.492015
vt 0.393750 0.507731
vt 0.387980 0.507975
vt 0.368510 0.493510
vt 0.365625 0.490625
vt 0.370585 0.495586
vt 0.380044 0.508829
vt 0.393750 0.518750
vt 0.387955 0.518750
vt 0.387768 0.512801
vt 0.393750 0.512955
vt 0.382731 0.518750
vt 0.382985 0.512995
vt 0.367269 0.518750
vt 0.367025 0.512980
vt 0.366171 0.508829
vt 0.356250 0.518750
vt 0.356250 0.512955
vt 0.362199 0.512768
vt 0.362045 0.518750
vt 0.356250 0.507731
vt 0.362005 0.507985
vt 0.606250 0.981250
vt 0.611990 0.987982
vt 0.611911 0.991976
vt 0.606250 0.987018
vt 0.617231 0.995854
vt 0.616863 0.997283
vt 0.625000 1.000000
vt 0.611807 0.995377
vt 0.606250 0.992235
vt 0.616257 0.998501
vt 0.643750 0.481250
vt 0.638010 0.487982
vt 0.632964 0.491957
vt 0.637018 0.486990
vt 0.632769 0.495854
vt 0.629607 0.497276
vt 0.617231 0.504146
vt 0.616845 0.502685
vt 0.625000 0.500000
vt 0.616257 0.500000
vt 0.606250 0.512982
vt 0.611879 0.507945
vt 0.611990 0.512018
vt 0.606250 0.500000
vt 0.611807 0.500000
vt 0.606250 1.000000
vt 0.611807 1.000000
vt 0.616257 1.000000
vt 0.606250 0.731250
vt 0.612045 0.731250
vt 0.612232 0.737199
vt 0.606250 0.737045
vt 0.617269 0.731250
vt 0.617015 0.737005
vt 0.632731 0.731250
vt 0.632975 0.737020
vt 0.612020 0.742025
vt 0.606250 0.742269
vt 0.616171 0.744956
vt 0.629415 0.754414
vt 0.643750 0.731250
vt 0.643750 0.737045
vt 0.637801 0.737232
vt 0.637955 0.731250
vt 0.634375 0.759375
vt 0.631498 0.756498
vt 0.617269 0.768750
vt 0.617025 0.762980
vt 0.616171 0.758829
vt 0.606250 0.768750
vt 0.606250 0.762955
vt 0.612199 0.762768
vt 0.612045 0.768750
vt 0.606250 0.757731
vt 0.612005 0.757985
vt 0.606250 0.731250
vt 0.612045 0.731250
vt 0.612232 0.737199
vt 0.606250 0.737045
vt 0.617269 0.731250
vt 0.617015 0.737005
vt 0.632975 0.737020
vt 0.612020 0.742025
vt 0.616171 0.744956
vt 0.637801 0.737232
vt 0.634375 0.759375
vt 0.631498 0.756498
vt 0.617269 0.768750
vt 0.617025 0.762980
vt 0.606250 0.768750
vt 0.606250 0.762955
vt 0.612045 0.768750
vt 0.606250 0.757731
vt 0.393750 0.981250
vt 0.393750 0.987018
vt 0.388121 0.992055
vt 0.388010 0.987982
vt 0.393750 0.992235
vt 0.388193 0.995395
vt 0.393750 1.000000
vt 0.388193 1.000000
vt 0.375000 0.997315
vt 0.375000 0.995854
vt 0.375000 0.998500
vt 0.383743 0.999998
vt 0.388010 0.512018
vt 0.388089 0.508024
vt 0.393750 0.512982
vt 0.382769 0.504146
vt 0.383137 0.502717
vt 0.283898 0.579187
vt 0.120374 0.747308
vt 0.388193 0.500000
vt 0.393750 0.500000
vt 0.383743 0.501500
vt 0.123499 0.748499
vt 0.106250 0.731250
vt 0.112982 0.736990
vt 0.116957 0.742036
vt 0.111990 0.737982
vt 0.120854 0.742231
vt 0.122276 0.745393
vt 0.129146 0.750000
vt 0.127685 0.750000
vt 0.117231 0.745854
vt 0.126500 0.750000
vt 0.125002 0.751500
vt 0.356250 0.731250
vt 0.362045 0.731250
vt 0.362232 0.737199
vt 0.356250 0.737045
vt 0.367269 0.731250
vt 0.367015 0.737005
vt 0.382731 0.731250
vt 0.382975 0.737020
vt 0.362020 0.742025
vt 0.356250 0.742269
vt 0.366171 0.741171
vt 0.380044 0.741171
vt 0.393750 0.731250
vt 0.393750 0.737045
vt 0.387801 0.737232
vt 0.387955 0.731250
vt 0.393750 0.742269
vt 0.387995 0.742015
vt 0.393750 0.757731
vt 0.387980 0.757975
vt 0.370585 0.754415
vt 0.393750 0.768750
vt 0.387955 0.768750
vt 0.387768 0.762801
vt 0.393750 0.762955
vt 0.365625 0.759375
vt 0.368502 0.756498
vt 0.356250 0.731250
vt 0.362045 0.731250
vt 0.362232 0.737199
vt 0.356250 0.737045
vt 0.367015 0.737005
vt 0.382731 0.731250
vt 0.382975 0.737020
vt 0.362020 0.742025
vt 0.356250 0.742269
vt 0.380044 0.741171
vt 0.393750 0.731250
vt 0.387801 0.737232
vt 0.387955 0.731250
vt 0.393750 0.742269
vt 0.393750 0.757731
vt 0.387980 0.757975
vt 0.370585 0.754414
vt 0.393750 0.768750
vt 0.387955 0.768750
vt 0.387768 0.762801
vt 0.365625 0.759375
vt 0.606250 0.268750
vt 0.606250 0.262955
vt 0.612199 0.262768
vt 0.612045 0.268750
vt 0.606250 0.257731
vt 0.612005 0.257985
vt 0.606250 0.242269
vt 0.612020 0.242025
vt 0.625000 0.262980
vt 0.625000 0.268750
vt 0.625000 0.258829
vt 0.625000 0.241171
vt 0.606250 0.231250
vt 0.612045 0.231250
vt 0.612232 0.237199
vt 0.606250 0.237045
vt 0.625000 0.231250
vt 0.625000 0.237005
vt 0.875000 0.518750
vt 0.867269 0.518750
vt 0.867025 0.512980
vt 0.875000 0.512995
vt 0.866171 0.508829
vt 0.875000 0.508829
vt 0.856250 0.518750
vt 0.856250 0.512955
vt 0.862199 0.512768
vt 0.862045 0.518750
vt 0.856250 0.507731
vt 0.862005 0.507985
vt 0.856250 0.500000
vt 0.862020 0.500000
vt 0.866171 0.500000
vt 0.143750 0.518750
vt 0.137955 0.518750
vt 0.137768 0.512801
vt 0.143750 0.512955
vt 0.132731 0.518750
vt 0.132985 0.512995
vt 0.125000 0.518750
vt 0.125000 0.512980
vt 0.137980 0.507975
vt 0.143750 0.507731
vt 0.133829 0.508829
vt 0.125000 0.508829
vt 0.393750 0.231250
vt 0.393750 0.237045
vt 0.387801 0.237232
vt 0.387955 0.231250
vt 0.393750 0.242269
vt 0.387995 0.242015
vt 0.393750 0.257731
vt 0.387980 0.257975
vt 0.375000 0.237020
vt 0.375000 0.231250
vt 0.375000 0.241171
vt 0.375000 0.258829
vt 0.393750 0.268750
vt 0.387955 0.268750
vt 0.387768 0.262801
vt 0.393750 0.262955
vt 0.375000 0.268750
vt 0.375000 0.262995
vt 0.143750 0.500000
vt 0.137995 0.500000
vt 0.133829 0.500000
vt 0.606250 0.018750
vt 0.606250 0.012955
vt 0.612199 0.012768
vt 0.612045 0.018750
vt 0.606250 0.000000
vt 0.612005 0.000000
vt 0.606250 0.992269
vt 0.612020 0.992025
vt 0.612005 1.000000
vt 0.625000 0.012980
vt 0.625000 0.018750
vt 0.616171 0.000000
vt 0.616171 0.991171
vt 0.616171 1.000000
vt 0.612045 0.981250
vt 0.612232 0.987199
vt 0.606250 0.987045
vt 0.617269 0.981250
vt 0.617015 0.987005
vt 0.625000 0.981250
vt 0.625000 0.987020
vt 0.625000 0.991171
vt 0.856250 0.731250
vt 0.862045 0.731250
vt 0.862232 0.737199
vt 0.856250 0.737045
vt 0.867269 0.731250
vt 0.867015 0.737005
vt 0.875000 0.731250
vt 0.875000 0.737020
vt 0.862020 0.750000
vt 0.856250 0.750000
vt 0.866171 0.750000
vt 0.875000 0.750000
vt 0.143750 0.731250
vt 0.143750 0.737045
vt 0.137801 0.737232
vt 0.137955 0.731250
vt 0.143750 0.742269
vt 0.137995 0.742015
vt 0.143750 0.750000
vt 0.137980 0.750000
vt 0.132975 0.737020
vt 0.132731 0.731250
vt 0.133829 0.741171
vt 0.133829 0.750000
vt 0.393750 0.987045
vt 0.387801 0.987232
vt 0.387955 0.981250
vt 0.393750 0.992269
vt 0.387995 0.992015
vt 0.387980 1.000000
vt 0.375000 0.987020
vt 0.375000 0.981250
vt 0.375000 0.991171
vt 0.375000 1.000000
vt 0.393750 0.018750
vt 0.387955 0.018750
vt 0.387768 0.012801
vt 0.393750 0.012955
vt 0.375000 0.018750
vt 0.375000 0.012995
vt 0.125000 0.731250
vt 0.125000 0.737005
vt 0.387980 0.000000
vt 0.393750 0.000000
vt 0.375000 0.008829
vt 0.125000 0.741171
vt 0.612044 0.500000
vt 0.625000 0.507729
vt 0.625000 0.512956
vt 0.625000 0.518750
vt 0.612044 0.000000
vt 0.625000 0.000000
vt 0.867271 0.750000
vt 0.862044 0.750000
vt 0.137956 0.750000
vt 0.132729 0.750000
vt 0.125000 0.750000
vt 0.375000 0.000000
vt 0.387956 0.000000
vt 0.375000 0.518750
vt 0.375000 0.512956
vt 0.375000 0.507729
vt 0.375000 0.500000
vt 0.387956 0.500000
vt 0.875000 0.512956
vt 0.875000 0.500000
vt 0.625000 0.250000
vt 0.617271 0.250000
vt 0.612044 0.250000
vt 0.606250 0.250000
vt 0.887018 0.736990
vt 0.893750 0.731250
vt 0.393750 0.250000
vt 0.387956 0.250000
vt 0.375000 0.250000
vt 0.125000 0.500000
vt 0.125000 0.507729
vt 0.125000 0.512956
vt 0.867271 0.500000
vt 0.862044 0.500000
vt 0.137956 0.500000
vt 0.132729 0.500000
vt 0.361990 0.487982
vt 0.356250 0.481250
vt 0.643750 0.731250
vt 0.356250 0.731250
s 0
usemtl Material
f 7/1/1 10/2/1 13/3/1 12/4/1
f 10/2/2 11/5/2 14/6/2 13/3/2
f 11/5/3 23/7/3 24/8/3 14/6/3
f 12/4/4 13/3/4 16/9/4 15/10/4
f 13/3/5 14/6/5 17/11/5 16/9/5
f 14/6/6 24/8/6 25/12/6 17/11/6
f 8/13/7 18/14/7 21/15/7 20/16/7
f 18/14/8 19/17/8 22/18/8 21/15/8
f 19/17/9 31/19/9 32/20/9 22/18/9
f 20/16/10 21/15/10 24/8/10 23/7/10
f 21/15/11 22/18/11 25/12/11 24/8/11
f 22/18/12 32/20/12 33/21/12 25/12/12
f 9/22/13 26/23/13 29/24/13 28/25/13
f 26/23/14 27/26/14 30/27/14 29/24/14
f 27/26/15 15/10/15 16/9/15 30/27/15
f 28/25/16 29/24/16 32/20/16 31/19/16
f 29/24/17 30/27/17 33/21/17 32/20/17
f 30/27/18 16/9/18 17/11/18 33/21/18
f 17/11/19 25/12/19 33/21/19
f 40/28/20 43/29/20 46/30/20 45/31/20
f 43/29/21 44/32/21 47/33/21 46/30/21
f 44/32/22 56/34/22 57/35/22 47/33/22
f 45/31/23 46/30/23 49/36/23 48/37/23
f 46/30/24 47/33/24 50/38/24 49/36/24
f 47/33/25 57/35/25 58/39/25 50/38/25
f 41/40/26 51/41/26 54/42/26 53/43/26
f 51/41/27 52/44/27 55/45/27 54/42/27
f 52/44/28 64/46/28 65/47/28 55/45/28
f 53/43/29 54/42/29 57/35/29 56/34/29
f 54/42/30 55/45/30 58/39/30 57/35/30
f 55/45/31 65/47/31 66/48/31 58/39/31
f 42/49/32 59/50/32 62/51/32 61/52/32
f 59/50/33 60/53/33 63/54/33 62/51/33
f 60/53/34 48/37/34 49/36/34 63/54/34
f 61/52/35 62/51/35 65/47/35 64/46/35
f 62/51/36 63/54/36 66/48/36 65/47/36
f 63/54/37 49/36/37 50/38/37 66/48/37
f 50/38/38 58/39/38 66/48/38
f 67/55/39 70/56/39 73/57/39 72/58/39
f 70/56/40 71/59/40 74/60/40 73/57/40
f 71/59/41 83/61/41 84/61/41 74/60/41
f 72/58/42 73/57/42 76/62/42 75/63/42
f 73/57/43 74/60/43 77/64/43 76/62/43
f 74/60/44 84/61/44 85/61/44 77/64/44
f 68/65/45 78/66/45 81/67/45 80/68/45
f 78/66/46 79/69/46 82/70/46 81/67/46
f 79/69/47 91/71/47 92/72/47 82/70/47
f 80/68/48 81/67/48 84/73/48 83/73/48
f 81/67/49 82/70/49 85/73/49 84/73/49
f 82/70/50 92/72/50 93/74/50 85/73/50
f 69/1/51 86/75/51 89/76/51 88/77/51
f 86/75/52 87/78/52 90/79/52 89/76/52
f 87/80/53 75/63/53 76/62/53 90/81/53
f 88/77/54 89/76/54 92/72/54 91/71/54
f 89/76/55 90/79/55 93/74/55 92/72/55
f 90/81/56 76/62/56 77/64/56 93/82/56
f 77/64/57 85/61/57 93/82/57
f 94/83/58 97/84/58 100/85/58 99/86/58
f 97/84/59 98/87/59 101/88/59 100/85/59
f 98/87/60 110/89/60 111/90/60 101/88/60
f 99/86/61 100/85/61 103/91/61 102/92/61
f 100/85/62 101/88/62 104/93/62 103/91/62
f 101/88/63 111/90/63 112/94/63 104/93/63
f 95/95/64 105/96/64 108/97/64 107/98/64
f 105/96/65 106/99/65 109/100/65 108/97/65
f 106/99/66 118/101/66 119/102/66 109/100/66
f 107/98/67 108/97/67 111/90/67 110/89/67
f 108/97/68 109/100/68 112/94/68 111/90/68
f 109/100/69 119/102/69 120/103/69 112/94/69
f 96/104/70 113/105/70 116/106/70 115/107/70
f 113/105/71 114/108/71 117/109/71 116/106/71
f 114/108/72 102/92/72 103/91/72 117/109/72
f 115/107/73 116/106/73 119/102/73 118/101/73
f 116/106/74 117/109/74 120/103/74 119/102/74
f 117/109/75 103/91/75 104/93/75 120/103/75
f 104/93/76 112/94/76 120/103/76
f 121/110/58 124/111/58 127/112/58 126/113/58
f 124/111/59 125/114/59 128/115/59 127/112/59
f 125/114/60 137/89/60 138/116/60 128/115/60
f 126/113/61 127/112/61 130/117/61 129/92/61
f 127/112/62 128/115/62 131/118/62 130/117/62
f 128/115/63 138/116/63 139/94/63 131/118/63
f 122/95/64 132/96/64 135/119/64 134/98/64
f 132/96/65 133/120/65 136/121/65 135/119/65
f 133/120/66 145/122/66 146/123/66 136/121/66
f 134/98/67 135/119/67 138/116/67 137/89/67
f 135/119/77 136/121/77 139/94/77 138/116/77
f 136/121/69 146/123/69 147/103/69 139/94/69
f 123/124/70 140/125/70 143/106/70 142/126/70
f 140/125/71 141/127/71 144/109/71 143/106/71
f 141/127/72 129/92/72 130/117/72 144/109/72
f 142/126/73 143/106/73 146/123/73 145/122/73
f 143/106/78 144/109/78 147/103/78 146/123/78
f 144/109/75 130/117/75 131/118/75 147/103/75
f 131/118/79 139/94/79 147/103/79
f 148/128/80 151/129/80 154/130/80 153/131/80
f 151/129/81 152/132/81 155/133/81 154/130/81
f 152/132/82 164/134/82 165/135/82 155/133/82
f 153/131/83 154/130/83 157/136/83 156/137/83
f 154/130/84 155/133/84 158/138/84 157/136/84
f 155/133/85 165/135/85 166/139/85 158/138/85
f 149/40/86 159/140/86 162/141/86 161/142/86
f 159/140/87 160/143/87 163/144/87 162/141/87
f 160/143/88 172/145/88 173/146/88 163/144/88
f 161/142/89 162/141/89 165/147/89 164/148/89
f 162/141/90 163/144/90 166/149/90 165/147/90
f 163/144/91 173/146/91 174/150/91 166/149/91
f 150/151/92 167/152/92 170/153/92 169/154/92
f 167/152/93 168/155/93 171/156/93 170/153/93
f 168/155/94 156/157/94 157/158/94 171/156/94
f 169/154/95 170/153/95 173/146/95 172/159/95
f 170/153/96 171/156/96 174/150/96 173/146/96
f 171/156/97 157/158/97 158/160/97 174/150/97
f 158/160/98 166/161/98 174/150/98
f 175/162/99 178/163/99 181/164/99 180/165/99
f 178/163/100 179/166/100 182/167/100 181/164/100
f 179/166/101 191/168/101 192/169/101 182/167/101
f 180/165/102 181/164/102 184/170/102 183/171/102
f 181/164/103 182/167/103 185/172/103 184/170/103
f 182/167/104 192/169/104 193/173/104 185/172/104
f 176/174/105 186/175/105 189/176/105 188/177/105
f 186/175/106 187/178/106 190/179/106 189/176/106
f 187/178/107 199/180/107 200/181/107 190/179/107
f 188/177/108 189/176/108 192/169/108 191/168/108
f 189/176/109 190/179/109 193/173/109 192/169/109
f 190/179/110 200/181/110 201/182/110 193/173/110
f 177/183/111 194/184/111 197/185/111 196/186/111
f 194/184/112 195/187/112 198/188/112 197/185/112
f 195/187/113 183/171/113 184/170/113 198/188/113
f 196/186/114 197/185/114 200/181/114 199/180/114
f 197/185/115 198/188/115 201/182/115 200/181/115
f 198/188/116 184/170/116 185/172/116 201/182/116
f 185/172/117 193/173/117 201/182/117
f 202/189/99 205/190/99 208/191/99 207/192/99
f 205/190/100 206/166/100 209/193/100 208/191/100
f 206/166/101 218/194/101 219/195/101 209/193/101
f 207/192/102 208/191/102 211/196/102 210/197/102
f 208/191/103 209/193/103 212/172/103 211/196/103
f 209/193/104 219/195/104 220/198/104 212/172/104
f 203/199/105 213/175/105 216/200/105 215/201/105
f 213/175/106 214/202/106 217/179/106 216/200/106
f 214/202/107 226/203/107 227/204/107 217/179/107
f 215/201/108 216/200/108 219/195/108 218/194/108
f 216/200/109 217/179/109 220/198/109 219/195/109
f 217/179/110 227/204/110 228/205/110 220/198/110
f 204/206/111 221/207/111 224/208/111 223/186/111
f 221/207/112 222/209/112 225/188/112 224/208/112
f 222/209/113 210/197/113 211/196/113 225/188/113
f 223/186/114 224/208/114 227/204/114 226/203/114
f 224/208/115 225/188/115 228/205/115 227/204/115
f 225/188/116 211/196/116 212/172/116 228/205/116
f 212/172/118 220/198/118 228/205/118
f 229/210/119 232/211/119 235/212/119 234/213/119
f 232/211/120 233/214/120 236/215/120 235/212/120
f 233/214/121 245/216/121 246/217/121 236/215/121
f 234/213/122 235/212/122 238/218/122 237/219/122
f 235/212/123 236/215/123 239/220/123 238/218/123
f 236/215/124 246/217/124 247/221/124 239/220/124
f 230/222/125 240/223/125 243/224/125 242/225/125
f 240/223/126 241/226/126 244/227/126 243/224/126
f 241/228/127 253/229/127 254/230/127 244/231/127
f 242/225/128 243/224/128 246/217/128 245/216/128
f 243/224/129 244/227/129 247/221/129 246/217/129
f 244/231/130 254/230/130 255/232/130 247/233/130
f 231/234/131 248/235/131 251/236/131 250/237/131
f 248/235/132 249/238/132 252/239/132 251/236/132
f 249/238/133 237/240/133 238/241/133 252/239/133
f 250/237/134 251/236/134 254/230/134 253/229/134
f 251/236/135 252/239/135 255/232/135 254/230/135
f 252/239/136 238/241/136 239/242/136 255/232/136
f 239/242/137 247/233/137 255/232/137
f 256/243/138 259/244/138 262/245/138 261/246/138
f 259/244/139 260/247/139 263/248/139 262/245/139
f 260/247/140 272/249/140 273/250/140 263/248/140
f 261/246/141 262/245/141 265/251/141 264/252/141
f 262/245/142 263/248/142 266/253/142 265/251/142
f 263/248/143 273/250/143 274/254/143 266/253/143
f 257/255/144 267/256/144 270/257/144 269/258/144
f 267/256/145 268/259/145 271/260/145 270/257/145
f 268/259/146 280/261/146 281/262/146 271/260/146
f 269/258/147 270/257/147 273/263/147 272/264/147
f 270/257/148 271/260/148 274/265/148 273/263/148
f 271/260/149 281/262/149 282/266/149 274/265/149
f 258/267/150 275/268/150 278/269/150 277/270/150
f 275/268/151 276/271/151 279/272/151 278/269/151
f 276/273/152 264/252/152 265/251/152 279/274/152
f 277/270/153 278/269/153 281/262/153 280/261/153
f 278/269/154 279/272/154 282/266/154 281/262/154
f 279/274/155 265/251/155 266/253/155 282/275/155
f 266/253/156 274/254/156 282/275/156
f 289/276/157 292/277/157 295/278/157 294/279/157
f 292/277/158 293/280/158 296/281/158 295/278/158
f 293/80/159 305/282/159 306/283/159 296/284/159
f 294/279/160 295/278/160 298/285/160 297/286/160
f 295/278/161 296/281/161 299/287/161 298/285/161
f 296/284/162 306/283/162 307/288/162 299/289/162
f 290/55/163 300/290/163 303/291/163 302/292/163
f 300/290/164 301/293/164 304/294/164 303/291/164
f 301/293/165 313/295/165 314/296/165 304/294/165
f 302/292/166 303/291/166 306/283/166 305/282/166
f 303/291/167 304/294/167 307/288/167 306/283/167
f 304/294/168 314/296/168 315/297/168 307/288/168
f 291/298/169 308/299/169 311/300/169 310/301/169
f 308/299/170 309/302/170 312/303/170 311/300/170
f 309/302/171 297/304/171 298/305/171 312/303/171
f 310/301/172 311/300/172 314/306/172 313/307/172
f 311/300/173 312/303/173 315/308/173 314/306/173
f 312/303/174 298/305/174 299/309/174 315/308/174
f 299/289/175 307/288/175 315/297/175
f 322/310/176 325/311/176 328/312/176 327/313/176
f 325/311/177 326/314/177 329/315/177 328/312/177
f 326/314/178 338/316/178 339/317/178 329/315/178
f 327/313/179 328/312/179 331/318/179 330/319/179
f 328/312/180 329/315/180 332/320/180 331/318/180
f 329/315/181 339/317/181 340/321/181 332/320/181
f 323/128/182 333/322/182 336/323/182 335/324/182
f 333/322/183 334/325/183 337/326/183 336/323/183
f 334/325/184 346/134/184 347/327/184 337/326/184
f 335/324/185 336/323/185 339/328/185 338/329/185
f 336/323/186 337/326/186 340/330/186 339/328/186
f 337/326/187 347/327/187 348/331/187 340/330/187
f 324/332/188 341/333/188 344/334/188 343/335/188
f 341/333/189 342/336/189 345/337/189 344/334/189
f 342/338/190 330/319/190 331/318/190 345/339/190
f 343/335/191 344/334/191 347/340/191 346/341/191
f 344/334/192 345/337/192 348/342/192 347/340/192
f 345/339/193 331/318/193 332/320/193 348/343/193
f 332/320/194 340/321/194 348/343/194
f 2/78/195 229/210/195 234/213/195 6/344/195
f 6/344/196 234/213/196 237/219/196 5/73/196
f 5/73/197 237/240/197 249/238/197 4/345/197
f 4/345/198 249/238/198 248/235/198 3/346/198
f 3/346/199 248/235/199 231/234/199 1/347/199
f 230/222/200 283/280/200 285/348/200 240/223/200
f 240/223/201 285/348/201 286/349/201 241/226/201
f 241/228/202 286/309/202 287/350/202 253/229/202
f 253/229/203 287/350/203 288/351/203 250/237/203
f 250/237/204 288/351/204 284/307/204 231/234/204
f 256/243/205 316/316/205 318/352/205 259/244/205
f 259/244/206 318/352/206 319/353/206 260/247/206
f 260/247/207 319/353/207 320/354/207 272/249/207
f 272/264/208 320/355/208 321/356/208 269/258/208
f 269/258/209 321/356/209 317/341/209 257/255/209
f 229/210/210 258/267/210 277/270/210 232/211/210
f 232/211/211 277/270/211 280/261/211 233/214/211
f 233/214/212 280/261/212 268/259/212 245/216/212
f 245/216/213 268/259/213 267/256/213 242/225/213
f 242/225/214 267/256/214 257/255/214 230/222/214
f 35/357/215 256/243/215 261/246/215 39/358/215
f 39/358/216 261/246/216 264/252/216 38/359/216
f 38/359/217 264/252/217 276/273/217 37/360/217
f 37/360/218 276/271/218 275/268/218 36/361/218
f 36/361/219 275/268/219 258/267/219 34/148/219
f 9/22/220 95/95/220 107/98/220 26/23/220
f 26/23/221 107/98/221 110/89/221 27/26/221
f 27/26/222 110/89/222 98/87/222 15/10/222
f 15/10/223 98/87/223 97/84/223 12/4/223
f 12/4/224 97/84/224 94/83/224 7/1/224
f 1/228/199 9/22/199 28/25/199 3/362/199
f 3/362/198 28/25/198 31/19/198 4/363/198
f 4/364/197 31/19/197 19/17/197 5/365/197
f 5/365/196 19/17/196 18/14/196 6/366/196
f 6/366/195 18/14/195 8/13/195 2/367/195
f 67/55/225 96/104/225 115/107/225 70/56/225
f 70/56/226 115/107/226 118/101/226 71/59/226
f 71/59/227 118/101/227 106/99/227 83/61/227
f 83/309/228 106/99/228 105/96/228 80/368/228
f 80/368/229 105/96/229 95/95/229 68/369/229
f 150/151/230 175/162/230 180/165/230 167/152/230
f 167/152/231 180/165/231 183/171/231 168/155/231
f 168/155/232 183/171/232 195/187/232 156/157/232
f 156/137/233 195/187/233 194/184/233 153/131/233
f 153/131/234 194/184/234 177/183/234 148/128/234
f 96/104/235 177/183/235 196/186/235 113/105/235
f 113/105/236 196/186/236 199/180/236 114/108/236
f 114/108/237 199/180/237 187/178/237 102/92/237
f 102/92/238 187/178/238 186/175/238 99/86/238
f 99/86/239 186/175/239 176/174/239 94/83/239
f 69/1/240 149/40/240 161/142/240 86/75/240
f 86/75/241 161/142/241 164/148/241 87/78/241
f 87/80/237 164/134/237 152/132/237 75/63/237
f 75/63/242 152/132/242 151/129/242 72/58/242
f 72/58/243 151/129/243 148/128/243 67/55/243
f 34/370/219 40/28/219 45/31/219 36/371/219
f 36/371/218 45/31/218 48/37/218 37/372/218
f 37/373/217 48/37/217 60/53/217 38/374/217
f 38/374/216 60/53/216 59/50/216 39/375/216
f 39/375/215 59/50/215 42/49/215 35/249/215
f 41/40/244 176/174/244 188/177/244 51/41/244
f 51/41/245 188/177/245 191/168/245 52/44/245
f 52/44/246 191/168/246 179/166/246 64/46/246
f 64/46/247 179/166/247 178/163/247 61/52/247
f 61/52/248 178/163/248 175/162/248 42/49/248
f 7/1/249 41/40/249 53/43/249 10/2/249
f 10/2/250 53/43/250 56/34/250 11/5/250
f 11/5/251 56/34/251 44/32/251 23/7/251
f 23/7/252 44/32/252 43/29/252 20/16/252
f 20/16/253 43/29/253 40/28/253 8/13/253
f 68/65/254 122/95/254 134/98/254 78/66/254
f 78/66/255 134/98/255 137/89/255 79/69/255
f 79/69/256 137/89/256 125/114/256 91/71/256
f 91/71/257 125/114/257 124/111/257 88/77/257
f 88/77/258 124/111/258 121/110/258 69/1/258
f 283/367/200 289/276/200 294/279/200 285/366/200
f 285/366/201 294/279/201 297/286/201 286/364/201
f 286/363/202 297/304/202 309/302/202 287/376/202
f 287/376/203 309/302/203 308/299/203 288/377/203
f 288/377/204 308/299/204 291/298/204 284/240/204
f 122/95/259 291/298/259 310/301/259 132/96/259
f 132/96/260 310/301/260 313/307/260 133/120/260
f 133/120/261 313/295/261 301/293/261 145/122/261
f 145/122/262 301/293/262 300/290/262 142/126/262
f 142/126/263 300/290/263 290/55/263 123/124/263
f 204/206/264 323/128/264 335/324/264 221/207/264
f 221/207/265 335/324/265 338/329/265 222/209/265
f 222/209/266 338/316/266 326/314/266 210/197/266
f 210/197/267 326/314/267 325/311/267 207/192/267
f 207/192/268 325/311/268 322/310/268 202/189/268
f 123/124/235 204/206/235 223/186/235 140/125/235
f 140/125/236 223/186/236 226/203/236 141/127/236
f 141/127/237 226/203/237 214/202/237 129/92/237
f 129/92/238 214/202/238 213/175/238 126/113/238
f 126/113/239 213/175/239 203/199/239 121/110/239
f 289/276/269 324/332/269 343/335/269 292/277/269
f 292/277/270 343/335/270 346/341/270 293/280/270
f 293/80/271 346/134/271 334/325/271 305/282/271
f 305/282/272 334/325/272 333/322/272 302/292/272
f 302/292/273 333/322/273 323/128/273 290/55/273
f 316/273/205 322/310/205 327/313/205 318/378/205
f 318/378/206 327/313/206 330/319/206 319/379/206
f 319/379/207 330/319/207 342/338/207 320/373/207
f 320/372/208 342/336/208 341/333/208 321/371/208
f 321/371/209 341/333/209 324/332/209 317/370/209
f 149/40/274 203/199/274 215/201/274 159/140/274
f 159/140/275 215/201/275 218/194/275 160/143/275
f 160/143/276 218/194/276 206/166/276 172/145/276
f 172/145/277 206/166/277 205/190/277 169/380/277
f 169/380/278 205/190/278 202/189/278 150/381/278
f 9/22/279 1/228/279 68/369/279 95/95/279
f 1/347/279 231/234/279 284/307/279 68/382/279
f 258/267/280 229/210/280 2/78/280 34/148/280
f 34/370/280 2/367/280 8/13/280 40/28/280
f 41/40/281 7/1/281 94/83/281 176/174/281
f 256/243/282 35/357/282 150/383/282 316/316/282
f 35/249/282 42/49/282 175/162/282 150/151/282
f 177/183/283 96/104/283 67/55/283 148/128/283
f 149/40/281 69/1/281 121/110/281 203/199/281
f 68/65/279 284/240/279 291/298/279 122/95/279
f 204/206/283 123/124/283 290/55/283 323/128/283
f 316/273/282 150/381/282 202/189/282 322/310/282
f 317/341/284 283/280/284 230/222/284 257/255/284
f 324/332/284 289/276/284 283/367/284 317/370/284
