# Blender 5.1.2
# www.blender.org
mtllib L.mtl
o Cube
v 0.000000 0.850000 -1.000000
v -0.150000 1.000000 -1.000000
v -0.007342 0.896353 -1.000000
v -0.028647 0.938168 -1.000000
v -0.061832 0.971353 -1.000000
v -0.103647 0.992658 -1.000000
v 0.000000 0.850000 -2.850000
v -0.150000 0.850000 -3.000000
v -0.150000 1.000000 -2.850000
v -0.007344 0.850000 -2.896361
v -0.028637 0.850000 -2.938153
v -0.007344 0.896361 -2.850000
v -0.016042 0.897590 -2.897858
v -0.036143 0.896039 -2.936122
v -0.028637 0.938153 -2.850000
v -0.036249 0.936198 -2.896158
v -0.050494 0.929368 -2.929368
v -0.150000 0.896361 -2.992656
v -0.150000 0.938153 -2.971363
v -0.103639 0.850000 -2.992656
v -0.102410 0.897858 -2.983958
v -0.103961 0.936122 -2.963857
v -0.061847 0.850000 -2.971363
v -0.063802 0.896158 -2.963751
v -0.070632 0.929368 -2.949506
v -0.103639 0.992656 -2.850000
v -0.061847 0.971363 -2.850000
v -0.150000 0.992656 -2.896361
v -0.102142 0.983958 -2.897590
v -0.063878 0.963857 -2.896039
v -0.150000 0.971363 -2.938153
v -0.103842 0.963751 -2.936198
v -0.070632 0.949506 -2.929368
v 2.000000 0.850000 1.150000
v 1.850000 0.850000 1.000000
v 1.850000 1.000000 1.150000
v 1.992656 0.850000 1.103639
v 1.971363 0.850000 1.061847
v 1.992656 0.896361 1.150000
v 1.983958 0.897590 1.102142
v 1.963857 0.896039 1.063878
v 1.971363 0.938153 1.150000
v 1.963751 0.936198 1.103842
v 1.949506 0.929368 1.070632
v 1.850000 0.896361 1.007344
v 1.850000 0.938153 1.028637
v 1.896361 0.850000 1.007344
v 1.897590 0.897858 1.016042
v 1.896039 0.936122 1.036143
v 1.938153 0.850000 1.028637
v 1.936198 0.896158 1.036249
v 1.929368 0.929368 1.050494
v 1.896361 0.992656 1.150000
v 1.938153 0.971363 1.150000
v 1.850000 0.992656 1.103639
v 1.897858 0.983958 1.102410
v 1.936122 0.963857 1.103961
v 1.850000 0.971363 1.061847
v 1.896158 0.963751 1.063802
v 1.929368 0.949506 1.070632
v -0.150000 -1.000000 -1.000000
v 0.000000 -0.850000 -1.000000
v -0.103647 -0.992658 -1.000000
v -0.061832 -0.971353 -1.000000
v -0.028647 -0.938168 -1.000000
v -0.007342 -0.896353 -1.000000
v -0.150000 -0.850000 -3.000000
v 0.000000 -0.850000 -2.850000
v -0.150000 -1.000000 -2.850000
v -0.103639 -0.850000 -2.992656
v -0.061847 -0.850000 -2.971363
v -0.150000 -0.896361 -2.992656
v -0.102142 -0.897590 -2.983958
v -0.063878 -0.896039 -2.963857
v -0.150000 -0.938153 -2.971363
v -0.103842 -0.936198 -2.963751
v -0.070632 -0.929368 -2.949506
v -0.007344 -0.896361 -2.850000
v -0.028637 -0.938153 -2.850000
v -0.007344 -0.850000 -2.896361
v -0.016042 -0.897858 -2.897590
v -0.036143 -0.936122 -2.896039
v -0.028637 -0.850000 -2.938153
v -0.036249 -0.896158 -2.936198
v -0.050494 -0.929368 -2.929368
v -0.150000 -0.992656 -2.896361
v -0.150000 -0.971363 -2.938153
v -0.103639 -0.992656 -2.850000
v -0.102410 -0.983958 -2.897858
v -0.103961 -0.963857 -2.936122
v -0.061847 -0.971363 -2.850000
v -0.063802 -0.963751 -2.896158
v -0.070632 -0.949506 -2.929368
v 1.850000 -0.850000 1.000000
v 2.000000 -0.850000 1.150000
v 1.850000 -1.000000 1.150000
v 1.896361 -0.850000 1.007344
v 1.938153 -0.850000 1.028637
v 1.850000 -0.896361 1.007344
v 1.897858 -0.897590 1.016042
v 1.936122 -0.896039 1.036143
v 1.850000 -0.938153 1.028637
v 1.896158 -0.936198 1.036249
v 1.929368 -0.929368 1.050494
v 1.992656 -0.896361 1.150000
v 1.971363 -0.938153 1.150000
v 1.992656 -0.850000 1.103639
v 1.983958 -0.897858 1.102410
v 1.963857 -0.936122 1.103961
v 1.971363 -0.850000 1.061847
v 1.963751 -0.896158 1.063802
v 1.949506 -0.929368 1.070632
v 1.850000 -0.992656 1.103639
v 1.850000 -0.971363 1.061847
v 1.896361 -0.992656 1.150000
v 1.897590 -0.983958 1.102142
v 1.896039 -0.963857 1.063878
v 1.938153 -0.971363 1.150000
v 1.936198 -0.963751 1.103842
v 1.929368 -0.949506 1.070632
v 0.000000 0.850000 0.850000
v -0.150000 1.000000 1.150000
v 0.150000 0.850000 1.000000
v -0.007935 0.895920 0.903855
v -0.028983 0.937849 0.966832
v 0.008004 0.850000 0.896147
v 0.000686 0.895292 0.935809
v -0.014995 0.934904 0.978262
v 0.029011 0.850000 0.937882
v 0.015489 0.894457 0.963014
v 0.000013 0.930053 0.988004
v -0.096146 0.992065 1.104080
v -0.033168 0.971017 1.062151
v -0.104080 0.992065 1.096145
v -0.064344 0.979251 1.063711
v -0.021794 0.962863 1.036859
v -0.062151 0.971017 1.033168
v -0.037007 0.962457 1.021536
v -0.012005 0.951037 1.012005
v 0.103853 0.850000 0.991996
v 0.062118 0.850000 0.970990
v 0.096145 0.895920 1.007935
v 0.063561 0.895032 1.000576
v 0.036839 0.894457 0.984916
v 0.033168 0.937849 1.028984
v 0.021483 0.934758 1.015397
v 0.011996 0.930053 0.999987
v 0.000000 0.850000 3.000000
v 0.000000 1.000000 2.850000
v 0.000000 0.896353 2.992658
v 0.000000 0.938168 2.971353
v 0.000000 0.971353 2.938168
v 0.000000 0.992658 2.896353
v 2.000000 0.850000 2.850000
v 1.850000 1.000000 2.850000
v 1.850000 0.850000 3.000000
v 1.992656 0.896361 2.850000
v 1.971363 0.938153 2.850000
v 1.992656 0.850000 2.896361
v 1.983958 0.897858 2.897590
v 1.963857 0.936122 2.896039
v 1.971363 0.850000 2.938153
v 1.963751 0.896158 2.936198
v 1.949506 0.929368 2.929368
v 1.850000 0.992656 2.896361
v 1.850000 0.971363 2.938153
v 1.896361 0.992656 2.850000
v 1.897590 0.983958 2.897858
v 1.896039 0.963857 2.936122
v 1.938153 0.971363 2.850000
v 1.936198 0.963751 2.896158
v 1.929368 0.949506 2.929368
v 1.896361 0.850000 2.992656
v 1.938153 0.850000 2.971363
v 1.850000 0.896361 2.992656
v 1.897858 0.897590 2.983958
v 1.936122 0.896039 2.963857
v 1.850000 0.938153 2.971363
v 1.896158 0.936198 2.963751
v 1.929368 0.929368 2.949506
v 0.000000 -0.850000 0.850000
v 0.150000 -0.850000 1.000000
v -0.150000 -1.000000 1.150000
v 0.008004 -0.850000 0.896147
v 0.029011 -0.850000 0.937882
v -0.007935 -0.895920 0.903855
v -0.000576 -0.895032 0.936439
v 0.015084 -0.894457 0.963161
v -0.028983 -0.937849 0.966832
v -0.015397 -0.934758 0.978517
v 0.000013 -0.930053 0.988004
v 0.096145 -0.895920 1.007935
v 0.033168 -0.937849 1.028984
v 0.103853 -0.850000 0.991996
v 0.064191 -0.895291 0.999314
v 0.021738 -0.934904 1.014995
v 0.062119 -0.850000 0.970990
v 0.036986 -0.894457 0.984511
v 0.011996 -0.930053 0.999987
v -0.104080 -0.992065 1.096145
v -0.062151 -0.971016 1.033168
v -0.096145 -0.992065 1.104080
v -0.063711 -0.979251 1.064344
v -0.036859 -0.962863 1.021794
v -0.033168 -0.971017 1.062151
v -0.021536 -0.962457 1.037007
v -0.012005 -0.951037 1.012005
v 0.000000 -1.000000 2.850000
v 0.000000 -0.850000 3.000000
v 0.000000 -0.992658 2.896353
v 0.000000 -0.971353 2.938168
v 0.000000 -0.938168 2.971353
v 0.000000 -0.896353 2.992658
v 1.850000 -1.000000 2.850000
v 2.000000 -0.850000 2.850000
v 1.850000 -0.850000 3.000000
v 1.896361 -0.992656 2.850000
v 1.938153 -0.971363 2.850000
v 1.850000 -0.992656 2.896361
v 1.897858 -0.983958 2.897590
v 1.936122 -0.963857 2.896039
v 1.850000 -0.971363 2.938153
v 1.896158 -0.963751 2.936198
v 1.929368 -0.949506 2.929368
v 1.992656 -0.850000 2.896361
v 1.971363 -0.850000 2.938153
v 1.992656 -0.896361 2.850000
v 1.983958 -0.897590 2.897858
v 1.963857 -0.896039 2.936122
v 1.971363 -0.938153 2.850000
v 1.963751 -0.936198 2.896158
v 1.949506 -0.929368 2.929368
v 1.850000 -0.896361 2.992656
v 1.850000 -0.938153 2.971363
v 1.896361 -0.850000 2.992656
v 1.897590 -0.897858 2.983958
v 1.896039 -0.936122 2.963857
v 1.938153 -0.850000 2.971363
v 1.936198 -0.896158 2.963751
v 1.929368 -0.929368 2.949506
v -1.850000 1.000000 -1.000000
v -2.000000 0.850000 -1.000000
v -1.896353 0.992658 -1.000000
v -1.938168 0.971353 -1.000000
v -1.971353 0.938168 -1.000000
v -1.992658 0.896353 -1.000000
v -1.850000 0.850000 -3.000000
v -2.000000 0.850000 -2.850000
v -1.850000 1.000000 -2.850000
v -1.896361 0.850000 -2.992656
v -1.938153 0.850000 -2.971363
v -1.850000 0.896361 -2.992656
v -1.897858 0.897590 -2.983958
v -1.936122 0.896039 -2.963857
v -1.850000 0.938153 -2.971363
v -1.896158 0.936198 -2.963751
v -1.929368 0.929368 -2.949506
v -1.992656 0.896361 -2.850000
v -1.971363 0.938153 -2.850000
v -1.992656 0.850000 -2.896361
v -1.983958 0.897858 -2.897590
v -1.963857 0.936122 -2.896039
v -1.971363 0.850000 -2.938153
v -1.963751 0.896158 -2.936198
v -1.949506 0.929368 -2.929368
v -1.850000 0.992656 -2.896361
v -1.850000 0.971363 -2.938153
v -1.896361 0.992656 -2.850000
v -1.897590 0.983958 -2.897858
v -1.896039 0.963857 -2.936122
v -1.938153 0.971363 -2.850000
v -1.936198 0.963751 -2.896158
v -1.929368 0.949506 -2.929368
v -2.000000 -0.850000 -1.000000
v -1.850000 -1.000000 -1.000000
v -1.992658 -0.896353 -1.000000
v -1.971353 -0.938168 -1.000000
v -1.938168 -0.971353 -1.000000
v -1.896353 -0.992658 -1.000000
v -1.850000 -1.000000 -2.850000
v -2.000000 -0.850000 -2.850000
v -1.850000 -0.850000 -3.000000
v -1.896361 -0.992656 -2.850000
v -1.938153 -0.971363 -2.850000
v -1.850000 -0.992656 -2.896361
v -1.897858 -0.983958 -2.897590
v -1.936122 -0.963857 -2.896039
v -1.850000 -0.971363 -2.938153
v -1.896158 -0.963751 -2.936198
v -1.929368 -0.949506 -2.929368
v -1.992656 -0.850000 -2.896361
v -1.971363 -0.850000 -2.938153
v -1.992656 -0.896361 -2.850000
v -1.983958 -0.897590 -2.897858
v -1.963857 -0.896039 -2.936122
v -1.971363 -0.938153 -2.850000
v -1.963751 -0.936198 -2.896158
v -1.949506 -0.929368 -2.929368
v -1.850000 -0.896361 -2.992656
v -1.850000 -0.938153 -2.971363
v -1.896361 -0.850000 -2.992656
v -1.897590 -0.897858 -2.983958
v -1.896039 -0.936122 -2.963857
v -1.938153 -0.850000 -2.971363
v -1.936198 -0.896158 -2.963751
v -1.929368 -0.929368 -2.949506
v -2.000000 0.850000 1.000000
v -1.850000 1.000000 1.000000
v -1.992658 0.896353 1.000000
v -1.971353 0.938168 1.000000
v -1.938168 0.971353 1.000000
v -1.896353 0.992658 1.000000
v -2.000000 0.850000 2.850000
v -1.850000 0.850000 3.000000
v -1.850000 1.000000 2.850000
v -1.992656 0.850000 2.896361
v -1.971363 0.850000 2.938153
v -1.992656 0.896361 2.850000
v -1.983958 0.897590 2.897858
v -1.963857 0.896039 2.936122
v -1.971363 0.938153 2.850000
v -1.963751 0.936198 2.896158
v -1.949506 0.929368 2.929368
v -1.850000 0.896361 2.992656
v -1.850000 0.938153 2.971363
v -1.896361 0.850000 2.992656
v -1.897590 0.897858 2.983958
v -1.896039 0.936122 2.963857
v -1.938153 0.850000 2.971363
v -1.936198 0.896158 2.963751
v -1.929368 0.929368 2.949506
v -1.896361 0.992656 2.850000
v -1.938153 0.971363 2.850000
v -1.850000 0.992656 2.896361
v -1.897858 0.983958 2.897590
v -1.936122 0.963857 2.896039
v -1.850000 0.971363 2.938153
v -1.896158 0.963751 2.936198
v -1.929368 0.949506 2.929368
v -1.850000 -1.000000 1.000000
v -2.000000 -0.850000 1.000000
v -1.896353 -0.992658 1.000000
v -1.938168 -0.971353 1.000000
v -1.971353 -0.938168 1.000000
v -1.992658 -0.896353 1.000000
v -1.850000 -1.000000 2.850000
v -1.850000 -0.850000 3.000000
v -2.000000 -0.850000 2.850000
v -1.850000 -0.992656 2.896361
v -1.850000 -0.971363 2.938153
v -1.896361 -0.992656 2.850000
v -1.897590 -0.983958 2.897858
v -1.896039 -0.963857 2.936122
v -1.938153 -0.971363 2.850000
v -1.936198 -0.963751 2.896158
v -1.929368 -0.949506 2.929368
v -1.896361 -0.850000 2.992656
v -1.938153 -0.850000 2.971363
v -1.850000 -0.896361 2.992656
v -1.897858 -0.897590 2.983958
v -1.936122 -0.896039 2.963857
v -1.850000 -0.938153 2.971363
v -1.896158 -0.936198 2.963751
v -1.929368 -0.929368 2.949506
v -1.992656 -0.896361 2.850000
v -1.971363 -0.938153 2.850000
v -1.992656 -0.850000 2.896361
v -1.983958 -0.897858 2.897590
v -1.963857 -0.936122 2.896039
v -1.971363 -0.850000 2.938153
v -1.963751 -0.896158 2.936198
v -1.949506 -0.929368 2.929368
vn 0.9729 0.1635 -0.1635
vn 0.8764 0.1543 -0.4562
vn 0.6996 0.1450 -0.6997
vn 0.8764 0.4557 -0.1556
vn 0.7924 0.4313 -0.4314
vn 0.6456 0.4090 -0.6449
vn 0.1635 0.1635 -0.9729
vn 0.1543 0.4562 -0.8764
vn 0.1450 0.6997 -0.6996
vn 0.4557 0.1556 -0.8764
vn 0.4313 0.4314 -0.7924
vn 0.4090 0.6449 -0.6456
vn 0.1635 0.9729 -0.1635
vn 0.4562 0.8764 -0.1543
vn 0.6997 0.6996 -0.1450
vn 0.1556 0.8764 -0.4557
vn 0.4314 0.7924 -0.4313
vn 0.6449 0.6456 -0.4090
vn 0.5774 0.5773 -0.5774
vn 0.7924 0.4314 -0.4314
vn 0.5774 0.5773 -0.5773
vn 0.1635 -0.1635 -0.9729
vn 0.4562 -0.1543 -0.8764
vn 0.6997 -0.1450 -0.6996
vn 0.1556 -0.4557 -0.8764
vn 0.4314 -0.4313 -0.7924
vn 0.6449 -0.4090 -0.6456
vn 0.9729 -0.1635 -0.1635
vn 0.8764 -0.4562 -0.1543
vn 0.6996 -0.6997 -0.1450
vn 0.8764 -0.1556 -0.4557
vn 0.7924 -0.4314 -0.4313
vn 0.6456 -0.6449 -0.4090
vn 0.1635 -0.9729 -0.1635
vn 0.1543 -0.8764 -0.4562
vn 0.1450 -0.6996 -0.6997
vn 0.4557 -0.8764 -0.1556
vn 0.4314 -0.7924 -0.4314
vn 0.4090 -0.6456 -0.6449
vn 0.5774 -0.5773 -0.5774
vn 0.4314 -0.4314 -0.7924
vn 0.5774 -0.5773 -0.5773
vn 0.9166 0.3504 -0.1923
vn 0.6706 0.6814 -0.2934
vn 0.2610 0.8941 -0.3639
vn 0.7846 0.4723 -0.4018
vn 0.6420 0.6419 -0.4192
vn 0.3421 0.8356 -0.4298
vn 0.1189 0.9857 -0.1190
vn 0.2459 0.9585 -0.1444
vn 0.3687 0.8922 -0.2610
vn 0.1473 0.9576 -0.2476
vn 0.2417 0.9335 -0.2647
vn 0.4389 0.8324 -0.3384
vn 0.1757 0.3490 -0.9205
vn 0.4078 0.4922 -0.7691
vn 0.6042 0.5264 -0.5981
vn 0.2726 0.6588 -0.7012
vn 0.4432 0.6420 -0.6256
vn 0.5571 0.6239 -0.5480
vn 0.4496 0.7718 -0.4496
vn 0.9729 0.1635 0.1635
vn 0.8764 0.4562 0.1543
vn 0.6996 0.6997 0.1450
vn 0.8764 0.1556 0.4557
vn 0.7924 0.4314 0.4313
vn 0.6456 0.6449 0.4090
vn 0.1635 0.9729 0.1635
vn 0.1543 0.8764 0.4561
vn 0.1450 0.6996 0.6997
vn 0.4557 0.8764 0.1556
vn 0.4313 0.7924 0.4314
vn 0.4090 0.6456 0.6449
vn 0.1635 0.1635 0.9729
vn 0.4562 0.1543 0.8764
vn 0.6997 0.1450 0.6996
vn 0.1556 0.4557 0.8764
vn 0.4314 0.4313 0.7924
vn 0.6449 0.4090 0.6456
vn 0.5774 0.5773 0.5773
vn 0.9205 -0.3490 -0.1757
vn 0.7691 -0.4922 -0.4078
vn 0.5981 -0.5264 -0.6042
vn 0.7012 -0.6587 -0.2726
vn 0.6256 -0.6420 -0.4432
vn 0.5480 -0.6239 -0.5571
vn 0.1923 -0.3504 -0.9166
vn 0.2934 -0.6814 -0.6706
vn 0.3639 -0.8941 -0.2610
vn 0.4018 -0.4723 -0.7846
vn 0.4192 -0.6419 -0.6420
vn 0.4298 -0.8356 -0.3421
vn 0.1189 -0.9857 -0.1190
vn 0.1444 -0.9585 -0.2459
vn 0.2610 -0.8922 -0.3687
vn 0.2476 -0.9576 -0.1473
vn 0.2647 -0.9335 -0.2417
vn 0.3384 -0.8324 -0.4389
vn 0.4496 -0.7718 -0.4496
vn 0.1635 -0.9729 0.1635
vn 0.4562 -0.8764 0.1543
vn 0.6997 -0.6996 0.1450
vn 0.1556 -0.8764 0.4557
vn 0.4314 -0.7924 0.4313
vn 0.6449 -0.6456 0.4090
vn 0.9729 -0.1635 0.1635
vn 0.8764 -0.1543 0.4562
vn 0.6996 -0.1450 0.6997
vn 0.8764 -0.4557 0.1556
vn 0.7924 -0.4313 0.4314
vn 0.6456 -0.4090 0.6449
vn 0.1635 -0.1635 0.9729
vn 0.1543 -0.4562 0.8764
vn 0.1450 -0.6997 0.6996
vn 0.4557 -0.1556 0.8764
vn 0.4313 -0.4314 0.7924
vn 0.4090 -0.6449 0.6456
vn 0.5774 -0.5773 0.5773
vn -0.1635 0.1635 -0.9729
vn -0.4562 0.1543 -0.8764
vn -0.6997 0.1450 -0.6996
vn -0.1556 0.4557 -0.8764
vn -0.4314 0.4313 -0.7924
vn -0.6449 0.4090 -0.6456
vn -0.9729 0.1635 -0.1635
vn -0.8764 0.4562 -0.1543
vn -0.6996 0.6997 -0.1450
vn -0.8764 0.1556 -0.4557
vn -0.7924 0.4314 -0.4313
vn -0.6456 0.6449 -0.4090
vn -0.1635 0.9729 -0.1635
vn -0.1543 0.8764 -0.4562
vn -0.1450 0.6996 -0.6997
vn -0.4557 0.8764 -0.1556
vn -0.4314 0.7924 -0.4314
vn -0.4090 0.6456 -0.6449
vn -0.5774 0.5773 -0.5774
vn -0.1635 -0.9729 -0.1635
vn -0.4562 -0.8764 -0.1543
vn -0.6997 -0.6996 -0.1450
vn -0.1556 -0.8764 -0.4557
vn -0.4314 -0.7924 -0.4313
vn -0.6449 -0.6456 -0.4090
vn -0.9729 -0.1635 -0.1635
vn -0.8764 -0.1543 -0.4562
vn -0.6996 -0.1450 -0.6997
vn -0.8764 -0.4557 -0.1556
vn -0.7924 -0.4313 -0.4314
vn -0.6456 -0.4090 -0.6449
vn -0.1635 -0.1635 -0.9729
vn -0.1543 -0.4562 -0.8764
vn -0.1450 -0.6997 -0.6996
vn -0.4557 -0.1556 -0.8764
vn -0.4313 -0.4314 -0.7924
vn -0.4090 -0.6449 -0.6456
vn -0.5774 -0.5773 -0.5774
vn -0.9729 0.1635 0.1635
vn -0.8764 0.1543 0.4562
vn -0.6996 0.1450 0.6997
vn -0.8764 0.4557 0.1556
vn -0.7924 0.4313 0.4314
vn -0.6456 0.4090 0.6449
vn -0.1635 0.1635 0.9729
vn -0.1543 0.4562 0.8764
vn -0.1450 0.6997 0.6996
vn -0.4557 0.1556 0.8764
vn -0.4313 0.4314 0.7924
vn -0.4090 0.6449 0.6456
vn -0.1635 0.9729 0.1635
vn -0.4562 0.8764 0.1543
vn -0.6997 0.6996 0.1450
vn -0.1556 0.8764 0.4557
vn -0.4314 0.7924 0.4313
vn -0.6449 0.6456 0.4090
vn -0.5774 0.5773 0.5774
vn -0.1635 -0.9729 0.1635
vn -0.1543 -0.8764 0.4562
vn -0.1450 -0.6996 0.6997
vn -0.4557 -0.8764 0.1556
vn -0.4314 -0.7924 0.4314
vn -0.4090 -0.6456 0.6449
vn -0.1635 -0.1635 0.9729
vn -0.4562 -0.1543 0.8764
vn -0.6997 -0.1450 0.6996
vn -0.1556 -0.4557 0.8764
vn -0.4314 -0.4313 0.7924
vn -0.6449 -0.4090 0.6456
vn -0.9729 -0.1635 0.1635
vn -0.8764 -0.4562 0.1543
vn -0.6996 -0.6997 0.1450
vn -0.8764 -0.1556 0.4557
vn -0.7924 -0.4314 0.4313
vn -0.6456 -0.6449 0.4090
vn -0.5774 -0.5773 0.5774
vn 0.1634 0.9866 0.0002
vn 0.4515 0.8923 0.0003
vn 0.7072 0.7070 0.0002
vn 0.8925 0.4511 0.0003
vn 0.9866 0.1632 0.0002
vn -0.9877 0.1564 -0.0000
vn -0.8910 0.4540 -0.0000
vn -0.7071 0.7071 -0.0000
vn -0.4540 0.8910 -0.0000
vn -0.1564 0.9877 -0.0000
vn -0.1564 -0.9877 -0.0000
vn -0.4540 -0.8910 -0.0000
vn -0.7071 -0.7071 -0.0000
vn -0.8910 -0.4540 -0.0000
vn -0.9877 -0.1564 -0.0000
vn 0.9866 -0.1632 0.0002
vn 0.8925 -0.4511 0.0003
vn 0.7072 -0.7070 0.0002
vn 0.4515 -0.8923 0.0003
vn 0.1634 -0.9866 0.0002
vn 0.1709 -0.0000 -0.9853
vn 0.4496 -0.0000 -0.8932
vn 0.7071 -0.0000 -0.7071
vn 0.8932 -0.0000 -0.4496
vn 0.9853 -0.0000 -0.1709
vn 0.9877 0.1564 -0.0000
vn 0.8910 0.4540 -0.0000
vn 0.7071 0.7071 -0.0000
vn 0.4540 0.8910 -0.0000
vn 0.1564 0.9877 -0.0000
vn -0.0000 0.1565 -0.9877
vn -0.0000 0.4540 -0.8910
vn -0.0000 0.7071 -0.7071
vn -0.0000 0.8910 -0.4540
vn -0.0000 0.9877 -0.1565
vn -0.1565 -0.0000 -0.9877
vn -0.4540 -0.0000 -0.8910
vn -0.7071 -0.0000 -0.7071
vn -0.8910 -0.0000 -0.4540
vn -0.9877 -0.0000 -0.1565
vn -0.0000 -0.9877 -0.1565
vn -0.0000 -0.8910 -0.4540
vn -0.0000 -0.7071 -0.7071
vn -0.0000 -0.4540 -0.8910
vn -0.0000 -0.1565 -0.9877
vn 0.1564 -0.9877 -0.0000
vn 0.4540 -0.8910 -0.0000
vn 0.7071 -0.7071 -0.0000
vn 0.8910 -0.4540 -0.0000
vn 0.9877 -0.1564 -0.0000
vn 0.9877 -0.0000 -0.1565
vn 0.8910 -0.0000 -0.4540
vn 0.4540 -0.0000 -0.8910
vn 0.1565 -0.0000 -0.9877
vn -0.0000 0.9877 0.1564
vn -0.0000 0.8910 0.4540
vn -0.0000 0.7071 0.7071
vn -0.0000 0.4540 0.8910
vn -0.0000 0.1564 0.9877
vn -0.0000 -0.1564 0.9877
vn -0.0000 -0.4540 0.8910
vn -0.0000 -0.7071 0.7071
vn -0.0000 -0.8910 0.4540
vn -0.0000 -0.9877 0.1564
vn -0.9877 -0.0000 0.1565
vn -0.8910 -0.0000 0.4540
vn -0.7071 -0.0000 0.7071
vn -0.4540 -0.0000 0.8910
vn -0.1565 -0.0000 0.9877
vn 0.1565 0.9877 -0.0000
vn 0.9877 0.1565 -0.0000
vn -0.0002 0.1632 -0.9866
vn -0.0003 0.4511 -0.8925
vn -0.0002 0.7070 -0.7072
vn -0.0003 0.8923 -0.4515
vn -0.0002 0.9866 -0.1634
vn 0.1565 -0.0000 0.9877
vn 0.4540 -0.0000 0.8910
vn 0.7071 -0.0000 0.7071
vn 0.8910 -0.0000 0.4540
vn 0.9877 -0.0000 0.1565
vn -0.0002 -0.9866 -0.1634
vn -0.0003 -0.8923 -0.4515
vn -0.0002 -0.7070 -0.7072
vn -0.0003 -0.4511 -0.8925
vn -0.0002 -0.1632 -0.9866
vn 0.9877 -0.1565 -0.0000
vn 0.1565 -0.9877 -0.0000
vn 1.0000 -0.0000 -0.0000
vn -0.0000 1.0000 -0.0000
vn -0.0000 -0.0000 -1.0000
vn -0.0000 -1.0000 -0.0000
vn -0.0000 -0.0000 1.0000
vn -1.0000 -0.0000 -0.0000
vt 0.606250 0.518750
vt 0.606250 0.512955
vt 0.612199 0.512768
vt 0.612045 0.518750
vt 0.606250 0.507731
vt 0.612005 0.507985
vt 0.606250 0.492269
vt 0.612020 0.492025
vt 0.617025 0.512980
vt 0.617269 0.518750
vt 0.616171 0.505044
vt 0.616171 0.491171
vt 0.606250 0.481250
vt 0.612045 0.481250
vt 0.612232 0.487199
vt 0.606250 0.487045
vt 0.617269 0.481250
vt 0.617015 0.487005
vt 0.634375 0.490625
vt 0.631490 0.493510
vt 0.629415 0.495586
vt 0.643750 0.518750
vt 0.637955 0.518750
vt 0.637768 0.512801
vt 0.643750 0.512955
vt 0.632731 0.518750
vt 0.632985 0.512995
vt 0.606250 0.518750
vt 0.612199 0.512768
vt 0.606250 0.507731
vt 0.612020 0.492025
vt 0.616171 0.505044
vt 0.606250 0.481250
vt 0.612045 0.481250
vt 0.612232 0.487199
vt 0.606250 0.487045
vt 0.617015 0.487005
vt 0.634375 0.490625
vt 0.643750 0.518750
vt 0.637955 0.518750
vt 0.643750 0.512955
vt 0.632731 0.518750
vt 0.393750 0.481250
vt 0.393750 0.487045
vt 0.387801 0.487232
vt 0.387955 0.481250
vt 0.393750 0.492269
vt 0.387995 0.492015
vt 0.393750 0.507731
vt 0.387980 0.507975
vt 0.368510 0.493510
vt 0.365625 0.490625
vt 0.370585 0.495586
vt 0.380044 0.508829
vt 0.393750 0.518750
vt 0.387955 0.518750
vt 0.387768 0.512801
vt 0.393750 0.512955
vt 0.382731 0.518750
vt 0.382985 0.512995
vt 0.367269 0.518750
vt 0.367025 0.512980
vt 0.366171 0.508829
vt 0.356250 0.518750
vt 0.356250 0.512955
vt 0.362199 0.512768
vt 0.362045 0.518750
vt 0.356250 0.507731
vt 0.362005 0.507985
vt 0.393750 0.481250
vt 0.393750 0.487045
vt 0.387801 0.487232
vt 0.387955 0.481250
vt 0.393750 0.492269
vt 0.393750 0.507731
vt 0.368510 0.493510
vt 0.365625 0.490625
vt 0.370585 0.495586
vt 0.380044 0.508829
vt 0.393750 0.518750
vt 0.367269 0.518750
vt 0.367025 0.512980
vt 0.356250 0.512955
vt 0.362199 0.512768
vt 0.362045 0.518750
vt 0.362005 0.507985
vt 0.606250 0.731250
vt 0.611990 0.737982
vt 0.611911 0.741976
vt 0.606250 0.737018
vt 0.617231 0.745854
vt 0.616863 0.747283
vt 0.716102 0.670813
vt 0.879626 0.502692
vt 0.611807 0.745377
vt 0.606250 0.742235
vt 0.616257 0.748501
vt 0.747690 0.626501
vt 0.893750 0.518750
vt 0.887018 0.513010
vt 0.883043 0.507964
vt 0.888010 0.512018
vt 0.875000 0.500000
vt 0.625000 0.250000
vt 0.617231 0.254146
vt 0.616845 0.252685
vt 0.882769 0.504146
vt 0.876501 0.501501
vt 0.616257 0.250000
vt 0.618880 0.248499
vt 0.606250 0.268750
vt 0.606250 0.262982
vt 0.611879 0.257945
vt 0.611990 0.262018
vt 0.606250 0.250000
vt 0.611807 0.250000
vt 0.606250 0.750000
vt 0.611807 0.750000
vt 0.616257 0.750000
vt 0.606250 0.731250
vt 0.612045 0.731250
vt 0.612232 0.737199
vt 0.606250 0.737045
vt 0.617269 0.731250
vt 0.617015 0.737005
vt 0.632731 0.731250
vt 0.632975 0.737020
vt 0.612020 0.742025
vt 0.606250 0.742269
vt 0.616171 0.744956
vt 0.629415 0.754414
vt 0.643750 0.731250
vt 0.643750 0.737045
vt 0.637801 0.737232
vt 0.637955 0.731250
vt 0.634375 0.759375
vt 0.631498 0.756498
vt 0.617269 0.768750
vt 0.617025 0.762980
vt 0.616171 0.758829
vt 0.606250 0.768750
vt 0.606250 0.762955
vt 0.612199 0.762768
vt 0.612045 0.768750
vt 0.606250 0.757731
vt 0.612005 0.757985
vt 0.393750 0.731250
vt 0.393750 0.737018
vt 0.388121 0.742055
vt 0.388010 0.737982
vt 0.393750 0.742235
vt 0.388193 0.745395
vt 0.393750 0.750000
vt 0.388193 0.750000
vt 0.383155 0.747315
vt 0.382769 0.745854
vt 0.381558 0.748501
vt 0.376000 0.750000
vt 0.393750 0.268750
vt 0.388010 0.262018
vt 0.388089 0.258024
vt 0.393750 0.262982
vt 0.375000 0.254146
vt 0.375000 0.252717
vt 0.379146 0.750000
vt 0.370854 0.757769
vt 0.372308 0.754626
vt 0.377717 0.750000
vt 0.388193 0.250000
vt 0.393750 0.250000
vt 0.375000 0.251500
vt 0.373499 0.751501
vt 0.356250 0.768750
vt 0.361990 0.762018
vt 0.367036 0.758043
vt 0.362982 0.763010
vt 0.367231 0.754146
vt 0.370393 0.752724
vt 0.356250 0.731250
vt 0.362045 0.731250
vt 0.362232 0.737199
vt 0.356250 0.737045
vt 0.367269 0.731250
vt 0.367015 0.737005
vt 0.382731 0.731250
vt 0.382975 0.737020
vt 0.362020 0.742025
vt 0.356250 0.742269
vt 0.366171 0.741171
vt 0.380044 0.741171
vt 0.393750 0.731250
vt 0.393750 0.737045
vt 0.387801 0.737232
vt 0.387955 0.731250
vt 0.393750 0.742269
vt 0.387995 0.742015
vt 0.393750 0.757731
vt 0.387980 0.757975
vt 0.370585 0.754415
vt 0.393750 0.768750
vt 0.387955 0.768750
vt 0.387768 0.762801
vt 0.393750 0.762955
vt 0.365625 0.759375
vt 0.368502 0.756498
vt 0.606250 0.262955
vt 0.612199 0.262768
vt 0.612045 0.268750
vt 0.606250 0.257731
vt 0.612005 0.257985
vt 0.606250 0.242269
vt 0.612020 0.242025
vt 0.617025 0.262980
vt 0.617269 0.268750
vt 0.616171 0.255044
vt 0.616171 0.241171
vt 0.606250 0.231250
vt 0.612045 0.231250
vt 0.612232 0.237199
vt 0.606250 0.237045
vt 0.617269 0.231250
vt 0.617015 0.237005
vt 0.625000 0.231250
vt 0.625000 0.237020
vt 0.625000 0.244114
vt 0.856250 0.518750
vt 0.856250 0.512955
vt 0.862199 0.512768
vt 0.862045 0.518750
vt 0.856250 0.500000
vt 0.862005 0.500000
vt 0.625000 0.268750
vt 0.625000 0.262995
vt 0.875000 0.512980
vt 0.875000 0.518750
vt 0.875000 0.508829
vt 0.143750 0.518750
vt 0.137955 0.518750
vt 0.137768 0.512801
vt 0.143750 0.512955
vt 0.132731 0.518750
vt 0.132985 0.512995
vt 0.125000 0.518750
vt 0.125000 0.512980
vt 0.137980 0.507975
vt 0.143750 0.507731
vt 0.133829 0.508829
vt 0.125000 0.508829
vt 0.393750 0.231250
vt 0.393750 0.237045
vt 0.387801 0.237232
vt 0.387955 0.231250
vt 0.393750 0.242269
vt 0.387995 0.242015
vt 0.393750 0.257731
vt 0.387980 0.257975
vt 0.375000 0.237020
vt 0.375000 0.231250
vt 0.375000 0.241171
vt 0.375000 0.258829
vt 0.387955 0.268750
vt 0.387768 0.262801
vt 0.393750 0.262955
vt 0.375000 0.268750
vt 0.375000 0.262995
vt 0.143750 0.500000
vt 0.137995 0.500000
vt 0.133829 0.500000
vt 0.606250 0.018750
vt 0.606250 0.012955
vt 0.612199 0.012768
vt 0.612045 0.018750
vt 0.606250 0.000000
vt 0.612005 0.000000
vt 0.606250 1.000000
vt 0.606250 0.992269
vt 0.612020 0.992025
vt 0.612005 1.000000
vt 0.625000 0.012980
vt 0.625000 0.018750
vt 0.625000 0.008829
vt 0.625000 0.991171
vt 0.625000 1.000000
vt 0.606250 0.981250
vt 0.612045 0.981250
vt 0.612232 0.987199
vt 0.606250 0.987045
vt 0.625000 0.981250
vt 0.625000 0.987005
vt 0.856250 0.750000
vt 0.856250 0.742269
vt 0.862020 0.742025
vt 0.862005 0.750000
vt 0.866171 0.741171
vt 0.866171 0.750000
vt 0.856250 0.731250
vt 0.862045 0.731250
vt 0.862232 0.737199
vt 0.856250 0.737045
vt 0.867269 0.731250
vt 0.867015 0.737005
vt 0.875000 0.731250
vt 0.875000 0.737020
vt 0.875000 0.741171
vt 0.143750 0.731250
vt 0.143750 0.737045
vt 0.137801 0.737232
vt 0.137955 0.731250
vt 0.143750 0.750000
vt 0.137995 0.750000
vt 0.375000 0.981250
vt 0.382731 0.981250
vt 0.382975 0.987020
vt 0.375000 0.987005
vt 0.125000 0.737020
vt 0.125000 0.731250
vt 0.133829 0.750000
vt 0.383829 0.991171
vt 0.375000 0.991171
vt 0.393750 0.981250
vt 0.393750 0.987045
vt 0.387801 0.987232
vt 0.387955 0.981250
vt 0.393750 0.992269
vt 0.387995 0.992015
vt 0.393750 1.000000
vt 0.387980 1.000000
vt 0.383829 1.000000
vt 0.393750 0.018750
vt 0.387955 0.018750
vt 0.387768 0.012801
vt 0.393750 0.012955
vt 0.382731 0.018750
vt 0.382985 0.012995
vt 0.375000 0.018750
vt 0.375000 0.012980
vt 0.387980 0.000000
vt 0.393750 0.000000
vt 0.383829 0.000000
vt 0.375000 0.000000
vt 0.643750 0.500000
vt 0.643750 0.768750
vt 0.638010 0.762018
vt 0.637956 0.500000
vt 0.632729 0.500000
vt 0.617271 0.500000
vt 0.612044 0.500000
vt 0.606250 0.500000
vt 0.612044 0.000000
vt 0.612044 0.250000
vt 0.625000 0.000000
vt 0.875000 0.750000
vt 0.867271 0.750000
vt 0.867271 0.500000
vt 0.862044 0.750000
vt 0.862044 0.500000
vt 0.137956 0.750000
vt 0.137956 0.500000
vt 0.132729 0.750000
vt 0.132729 0.500000
vt 0.125000 0.750000
vt 0.125000 0.500000
vt 0.375000 0.250000
vt 0.387956 0.000000
vt 0.387956 0.250000
vt 0.393750 0.500000
vt 0.387956 0.500000
vt 0.382729 0.500000
vt 0.367271 0.500000
vt 0.362044 0.500000
vt 0.356250 0.500000
vt 0.612044 0.750000
vt 0.617271 0.750000
vt 0.632729 0.750000
vt 0.637956 0.750000
vt 0.643750 0.750000
vt 0.617271 0.000000
vt 0.356250 0.750000
vt 0.362044 0.750000
vt 0.367271 0.750000
vt 0.382729 0.750000
vt 0.387956 0.750000
vt 0.625000 0.731250
vt 0.625000 0.737044
vt 0.625000 0.742271
vt 0.625000 0.750000
vt 0.612044 0.750000
vt 0.387956 0.750000
vt 0.375000 0.750000
vt 0.375000 0.737044
vt 0.375000 0.731250
vt 0.382729 0.250000
vt 0.612044 1.000000
vt 0.617271 1.000000
vt 0.875000 0.737044
vt 0.125000 0.737044
vt 0.125000 0.742271
vt 0.375000 1.000000
vt 0.387956 1.000000
vt 0.106250 0.518750
vt 0.112982 0.513010
vt 0.120854 0.507769
vt 0.129146 0.500000
s 0
usemtl Material
f 7/1/1 10/2/1 13/3/1 12/4/1
f 10/2/2 11/5/2 14/6/2 13/3/2
f 11/5/3 23/7/3 24/8/3 14/6/3
f 12/4/4 13/3/4 16/9/4 15/10/4
f 13/3/5 14/6/5 17/11/5 16/9/5
f 14/6/6 24/8/6 25/12/6 17/11/6
f 8/13/7 18/14/7 21/15/7 20/16/7
f 18/14/8 19/17/8 22/18/8 21/15/8
f 19/17/9 31/19/9 32/20/9 22/18/9
f 20/16/10 21/15/10 24/8/10 23/7/10
f 21/15/11 22/18/11 25/12/11 24/8/11
f 22/18/12 32/20/12 33/21/12 25/12/12
f 9/22/13 26/23/13 29/24/13 28/25/13
f 26/23/14 27/26/14 30/27/14 29/24/14
f 27/26/15 15/10/15 16/9/15 30/27/15
f 28/25/16 29/24/16 32/20/16 31/19/16
f 29/24/17 30/27/17 33/21/17 32/20/17
f 30/27/18 16/9/18 17/11/18 33/21/18
f 17/11/19 25/12/19 33/21/19
f 34/28/1 37/2/1 40/29/1 39/4/1
f 37/2/2 38/30/2 41/6/2 40/29/2
f 38/30/3 50/7/3 51/31/3 41/6/3
f 39/4/4 40/29/4 43/9/4 42/10/4
f 40/29/20 41/6/20 44/32/20 43/9/20
f 41/6/6 51/31/6 52/12/6 44/32/6
f 35/33/7 45/34/7 48/35/7 47/36/7
f 45/34/8 46/17/8 49/37/8 48/35/8
f 46/17/9 58/38/9 59/20/9 49/37/9
f 47/36/10 48/35/10 51/31/10 50/7/10
f 48/35/11 49/37/11 52/12/11 51/31/11
f 49/37/12 59/20/12 60/21/12 52/12/12
f 36/39/13 53/40/13 56/24/13 55/41/13
f 53/40/14 54/42/14 57/27/14 56/24/14
f 54/42/15 42/10/15 43/9/15 57/27/15
f 55/41/16 56/24/16 59/20/16 58/38/16
f 56/24/17 57/27/17 60/21/17 59/20/17
f 57/27/18 43/9/18 44/32/18 60/21/18
f 44/32/21 52/12/21 60/21/21
f 67/43/22 70/44/22 73/45/22 72/46/22
f 70/44/23 71/47/23 74/48/23 73/45/23
f 71/47/24 83/49/24 84/50/24 74/48/24
f 72/46/25 73/45/25 76/51/25 75/52/25
f 73/45/26 74/48/26 77/53/26 76/51/26
f 74/48/27 84/50/27 85/54/27 77/53/27
f 68/55/28 78/56/28 81/57/28 80/58/28
f 78/56/29 79/59/29 82/60/29 81/57/29
f 79/59/30 91/61/30 92/62/30 82/60/30
f 80/58/31 81/57/31 84/50/31 83/49/31
f 81/57/32 82/60/32 85/54/32 84/50/32
f 82/60/33 92/62/33 93/63/33 85/54/33
f 69/64/34 86/65/34 89/66/34 88/67/34
f 86/65/35 87/68/35 90/69/35 89/66/35
f 87/68/36 75/52/36 76/51/36 90/69/36
f 88/67/37 89/66/37 92/62/37 91/61/37
f 89/66/38 90/69/38 93/63/38 92/62/38
f 90/69/39 76/51/39 77/53/39 93/63/39
f 77/53/40 85/54/40 93/63/40
f 94/70/22 97/71/22 100/72/22 99/73/22
f 97/71/23 98/74/23 101/48/23 100/72/23
f 98/74/24 110/75/24 111/50/24 101/48/24
f 99/73/25 100/72/25 103/76/25 102/77/25
f 100/72/41 101/48/41 104/78/41 103/76/41
f 101/48/27 111/50/27 112/79/27 104/78/27
f 95/80/28 105/56/28 108/57/28 107/58/28
f 105/56/29 106/59/29 109/60/29 108/57/29
f 106/59/30 118/81/30 119/82/30 109/60/30
f 107/58/31 108/57/31 111/50/31 110/75/31
f 108/57/32 109/60/32 112/79/32 111/50/32
f 109/60/33 119/82/33 120/63/33 112/79/33
f 96/64/34 113/83/34 116/84/34 115/85/34
f 113/83/35 114/68/35 117/86/35 116/84/35
f 114/68/36 102/77/36 103/76/36 117/86/36
f 115/85/37 116/84/37 119/82/37 118/81/37
f 116/84/38 117/86/38 120/63/38 119/82/38
f 117/86/39 103/76/39 104/78/39 120/63/39
f 104/78/42 112/79/42 120/63/42
f 121/87/43 124/88/43 127/89/43 126/90/43
f 124/88/44 125/91/44 128/92/44 127/89/44
f 125/91/45 137/93/45 138/94/45 128/92/45
f 126/90/46 127/89/46 130/95/46 129/96/46
f 127/89/47 128/92/47 131/97/47 130/95/47
f 128/92/48 138/94/48 139/98/48 131/97/48
f 122/99/49 132/100/49 135/101/49 134/102/49
f 132/100/50 133/103/50 136/103/50 135/101/50
f 133/104/51 145/105/51 146/106/51 136/104/51
f 134/102/52 135/101/52 138/94/52 137/107/52
f 135/101/53 136/103/53 139/108/53 138/94/53
f 136/104/54 146/106/54 147/109/54 139/110/54
f 123/111/55 140/112/55 143/113/55 142/114/55
f 140/112/56 141/115/56 144/116/56 143/113/56
f 141/117/57 129/96/57 130/95/57 144/118/57
f 142/114/58 143/113/58 146/106/58 145/105/58
f 143/113/59 144/116/59 147/109/59 146/106/59
f 144/118/60 130/95/60 131/97/60 147/119/60
f 131/97/61 139/98/61 147/119/61
f 154/120/62 157/121/62 160/122/62 159/123/62
f 157/121/63 158/124/63 161/125/63 160/122/63
f 158/124/64 170/126/64 171/127/64 161/125/64
f 159/123/65 160/122/65 163/128/65 162/129/65
f 160/122/66 161/125/66 164/130/66 163/128/66
f 161/125/67 171/127/67 172/131/67 164/130/67
f 155/132/68 165/133/68 168/134/68 167/135/68
f 165/133/69 166/136/69 169/137/69 168/134/69
f 166/136/70 178/138/70 179/139/70 169/137/70
f 167/135/71 168/134/71 171/127/71 170/126/71
f 168/134/72 169/137/72 172/131/72 171/127/72
f 169/137/73 179/139/73 180/140/73 172/131/73
f 156/141/74 173/142/74 176/143/74 175/144/74
f 173/142/75 174/145/75 177/146/75 176/143/75
f 174/145/76 162/129/76 163/128/76 177/146/76
f 175/144/77 176/143/77 179/139/77 178/138/77
f 176/143/78 177/146/78 180/140/78 179/139/78
f 177/146/79 163/128/79 164/130/79 180/140/79
f 164/130/80 172/131/80 180/140/80
f 181/147/81 184/148/81 187/149/81 186/150/81
f 184/148/82 185/151/82 188/152/82 187/149/82
f 185/151/83 197/153/83 198/154/83 188/152/83
f 186/150/84 187/149/84 190/155/84 189/156/84
f 187/149/85 188/152/85 191/157/85 190/155/85
f 188/152/86 198/154/86 199/158/86 191/157/86
f 182/159/87 192/160/87 195/161/87 194/162/87
f 192/160/88 193/163/88 196/164/88 195/161/88
f 193/165/89 205/166/89 206/167/89 196/168/89
f 194/162/90 195/161/90 198/169/90 197/170/90
f 195/161/91 196/164/91 199/171/91 198/169/91
f 196/168/92 206/167/92 207/172/92 199/158/92
f 183/173/93 200/174/93 203/175/93 202/176/93
f 200/174/94 201/177/94 204/178/94 203/175/94
f 201/177/95 189/156/95 190/155/95 204/178/95
f 202/176/96 203/175/96 206/167/96 205/166/96
f 203/175/97 204/178/97 207/172/97 206/167/97
f 204/178/98 190/155/98 191/157/98 207/172/98
f 191/157/99 199/158/99 207/172/99
f 214/179/100 217/180/100 220/181/100 219/182/100
f 217/180/101 218/183/101 221/184/101 220/181/101
f 218/183/102 230/185/102 231/186/102 221/184/102
f 219/182/103 220/181/103 223/187/103 222/188/103
f 220/181/104 221/184/104 224/189/104 223/187/104
f 221/184/105 231/186/105 232/190/105 224/189/105
f 215/191/106 225/192/106 228/193/106 227/194/106
f 225/192/107 226/195/107 229/196/107 228/193/107
f 226/195/108 238/197/108 239/198/108 229/196/108
f 227/194/109 228/193/109 231/186/109 230/185/109
f 228/193/110 229/196/110 232/190/110 231/186/110
f 229/196/111 239/198/111 240/199/111 232/190/111
f 216/200/112 233/201/112 236/202/112 235/203/112
f 233/201/113 234/204/113 237/205/113 236/202/113
f 234/204/114 222/188/114 223/187/114 237/205/114
f 235/203/115 236/202/115 239/198/115 238/197/115
f 236/202/116 237/205/116 240/199/116 239/198/116
f 237/205/117 223/187/117 224/189/117 240/199/117
f 224/189/118 232/190/118 240/199/118
f 247/111/119 250/206/119 253/207/119 252/208/119
f 250/206/120 251/209/120 254/210/120 253/207/120
f 251/209/121 263/211/121 264/212/121 254/210/121
f 252/208/122 253/207/122 256/213/122 255/214/122
f 253/207/123 254/210/123 257/215/123 256/213/123
f 254/210/124 264/212/124 265/216/124 257/215/124
f 248/217/125 258/218/125 261/219/125 260/220/125
f 258/218/126 259/221/126 262/222/126 261/219/126
f 259/221/127 271/223/127 272/224/127 262/222/127
f 260/220/128 261/219/128 264/212/128 263/211/128
f 261/219/129 262/222/129 265/216/129 264/212/129
f 262/222/130 272/224/130 273/225/130 265/216/130
f 249/226/131 266/227/131 269/228/131 268/229/131
f 266/227/132 267/230/132 270/231/132 269/228/132
f 267/232/133 255/214/133 256/213/133 270/233/133
f 268/229/134 269/228/134 272/234/134 271/235/134
f 269/228/135 270/231/135 273/236/135 272/234/135
f 270/233/136 256/213/136 257/215/136 273/225/136
f 257/215/137 265/216/137 273/225/137
f 280/237/138 283/238/138 286/239/138 285/240/138
f 283/238/139 284/241/139 287/242/139 286/239/139
f 284/241/140 296/243/140 297/244/140 287/242/140
f 285/240/141 286/239/141 289/245/141 288/246/141
f 286/239/142 287/242/142 290/247/142 289/245/142
f 287/242/143 297/244/143 298/248/143 290/247/143
f 281/249/144 291/250/144 294/251/144 293/252/144
f 291/250/145 292/253/145 295/254/145 294/251/145
f 292/253/146 304/255/146 305/256/146 295/254/146
f 293/252/147 294/251/147 297/257/147 296/258/147
f 294/251/148 295/254/148 298/259/148 297/257/148
f 295/254/149 305/256/149 306/260/149 298/259/149
f 282/159/150 299/261/150 302/262/150 301/263/150
f 299/261/151 300/264/151 303/265/151 302/262/151
f 300/266/152 288/246/152 289/245/152 303/267/152
f 301/263/153 302/262/153 305/256/153 304/255/153
f 302/262/154 303/265/154 306/260/154 305/256/154
f 303/267/155 289/245/155 290/247/155 306/268/155
f 290/247/156 298/248/156 306/268/156
f 313/269/157 316/270/157 319/271/157 318/272/157
f 316/270/158 317/273/158 320/274/158 319/271/158
f 317/275/159 329/276/159 330/277/159 320/278/159
f 318/272/160 319/271/160 322/279/160 321/280/160
f 319/271/161 320/274/161 323/281/161 322/279/161
f 320/278/162 330/277/162 331/282/162 323/283/162
f 314/284/163 324/285/163 327/286/163 326/287/163
f 324/285/164 325/288/164 328/289/164 327/286/164
f 325/290/165 337/291/165 338/292/165 328/293/165
f 326/287/166 327/286/166 330/277/166 329/276/166
f 327/286/167 328/289/167 331/282/167 330/277/167
f 328/293/168 338/292/168 339/294/168 331/295/168
f 315/296/169 332/297/169 335/298/169 334/299/169
f 332/297/170 333/300/170 336/301/170 335/298/170
f 333/300/171 321/302/171 322/303/171 336/301/171
f 334/299/172 335/298/172 338/292/172 337/291/172
f 335/298/173 336/301/173 339/294/173 338/292/173
f 336/301/174 322/303/174 323/304/174 339/294/174
f 323/304/175 331/295/175 339/294/175
f 346/305/176 349/306/176 352/307/176 351/308/176
f 349/306/177 350/309/177 353/310/177 352/307/177
f 350/311/178 362/312/178 363/313/178 353/314/178
f 351/308/179 352/307/179 355/315/179 354/316/179
f 352/307/180 353/310/180 356/317/180 355/315/180
f 353/314/181 363/313/181 364/318/181 356/319/181
f 347/320/182 357/321/182 360/322/182 359/323/182
f 357/321/183 358/324/183 361/325/183 360/322/183
f 358/324/184 370/326/184 371/327/184 361/325/184
f 359/323/185 360/322/185 363/313/185 362/312/185
f 360/322/186 361/325/186 364/318/186 363/313/186
f 361/325/187 371/327/187 372/328/187 364/318/187
f 348/329/188 365/330/188 368/331/188 367/332/188
f 365/330/189 366/333/189 369/334/189 368/331/189
f 366/333/190 354/335/190 355/336/190 369/334/190
f 367/332/191 368/331/191 371/337/191 370/338/191
f 368/331/192 369/334/192 372/339/192 371/337/192
f 369/334/193 355/336/193 356/340/193 372/339/193
f 356/319/194 364/318/194 372/328/194
f 2/341/195 122/342/195 134/343/195 6/344/195
f 6/344/196 134/343/196 137/93/196 5/345/196
f 5/345/197 137/93/197 125/91/197 4/346/197
f 4/346/198 125/91/198 124/88/198 3/347/198
f 3/347/199 124/88/199 121/87/199 1/348/199
f 242/115/200 307/273/200 309/349/200 246/350/200
f 246/350/201 309/349/201 310/351/201 245/104/201
f 245/103/202 310/352/202 311/353/202 244/354/202
f 244/354/203 311/353/203 312/355/203 243/356/203
f 243/356/204 312/355/204 308/290/204 241/230/204
f 275/266/205 340/309/205 342/357/205 279/358/205
f 279/358/206 342/357/206 343/359/206 278/360/206
f 278/360/207 343/359/207 344/361/207 277/362/207
f 277/363/208 344/340/208 345/364/208 276/365/208
f 276/365/209 345/364/209 341/338/209 274/170/209
f 62/366/210 181/147/210 186/150/210 66/367/210
f 66/367/211 186/150/211 189/156/211 65/368/211
f 65/368/212 189/156/212 201/177/212 64/369/212
f 64/369/213 201/177/213 200/174/213 63/370/213
f 63/370/214 200/174/214 183/173/214 61/371/214
f 123/111/215 182/159/215 194/162/215 140/112/215
f 140/112/216 194/162/216 197/170/216 141/115/216
f 141/117/217 197/153/217 185/151/217 129/96/217
f 129/96/218 185/151/218 184/148/218 126/90/218
f 126/90/219 184/148/219 181/147/219 121/87/219
f 1/117/220 7/1/220 12/4/220 3/372/220
f 3/372/221 12/4/221 15/10/221 4/373/221
f 4/373/222 15/10/222 27/26/222 5/374/222
f 5/374/223 27/26/223 26/23/223 6/375/223
f 6/375/224 26/23/224 9/22/224 2/376/224
f 8/13/225 247/111/225 252/208/225 18/14/225
f 18/14/226 252/208/226 255/214/226 19/17/226
f 19/17/227 255/214/227 267/232/227 31/19/227
f 31/19/228 267/230/228 266/227/228 28/25/228
f 28/25/229 266/227/229 249/226/229 9/22/229
f 241/290/204 249/226/204 268/229/204 243/355/204
f 243/355/203 268/229/203 271/235/203 244/352/203
f 244/351/202 271/223/202 259/221/202 245/377/202
f 245/377/201 259/221/201 258/218/201 246/349/201
f 246/349/200 258/218/200 248/217/200 242/273/200
f 274/338/209 281/249/209 293/252/209 276/364/209
f 276/364/208 293/252/208 296/258/208 277/340/208
f 277/361/207 296/243/207 284/241/207 278/359/207
f 278/359/206 284/241/206 283/238/206 279/357/206
f 279/357/205 283/238/205 280/237/205 275/309/205
f 247/111/230 282/159/230 301/263/230 250/206/230
f 250/206/231 301/263/231 304/255/231 251/209/231
f 251/209/232 304/255/232 292/253/232 263/211/232
f 263/211/233 292/253/233 291/250/233 260/220/233
f 260/220/234 291/250/234 281/249/234 248/217/234
f 69/64/235 280/237/235 285/240/235 86/65/235
f 86/65/236 285/240/236 288/246/236 87/68/236
f 87/68/237 288/246/237 300/266/237 75/52/237
f 75/52/238 300/264/238 299/261/238 72/46/238
f 72/46/239 299/261/239 282/159/239 67/43/239
f 61/378/240 69/64/240 88/67/240 63/379/240
f 63/379/241 88/67/241 91/61/241 64/380/241
f 64/380/242 91/61/242 79/59/242 65/381/242
f 65/381/243 79/59/243 78/56/243 66/382/243
f 66/382/244 78/56/244 68/55/244 62/153/244
f 7/1/245 68/55/245 80/58/245 10/2/245
f 10/2/246 80/58/246 83/49/246 11/5/246
f 11/5/217 83/49/217 71/47/217 23/7/217
f 23/7/247 71/47/247 70/44/247 20/16/247
f 20/16/248 70/44/248 67/43/248 8/13/248
f 307/115/200 313/269/200 318/272/200 309/350/200
f 309/350/201 318/272/201 321/280/201 310/104/201
f 310/103/202 321/302/202 333/300/202 311/354/202
f 311/354/203 333/300/203 332/297/203 312/356/203
f 312/356/204 332/297/204 315/296/204 308/230/204
f 149/383/249 315/296/249 334/299/249 153/384/249
f 153/384/250 334/299/250 337/291/250 152/385/250
f 152/385/251 337/291/251 325/290/251 151/386/251
f 151/386/252 325/288/252 324/285/252 150/387/252
f 150/387/253 324/285/253 314/284/253 148/117/253
f 209/153/254 347/320/254 359/323/254 213/388/254
f 213/388/255 359/323/255 362/312/255 212/381/255
f 212/381/256 362/312/256 350/311/256 211/389/256
f 211/389/257 350/309/257 349/306/257 210/390/257
f 210/390/258 349/306/258 346/305/258 208/391/258
f 313/269/259 348/329/259 367/332/259 316/270/259
f 316/270/260 367/332/260 370/338/260 317/273/260
f 317/275/261 370/326/261 358/324/261 329/276/261
f 329/276/262 358/324/262 357/321/262 326/287/262
f 326/287/263 357/321/263 347/320/263 314/284/263
f 340/266/205 346/305/205 351/308/205 342/358/205
f 342/358/206 351/308/206 354/316/206 343/362/206
f 343/363/207 354/335/207 366/333/207 344/392/207
f 344/392/208 366/333/208 365/330/208 345/365/208
f 345/365/209 365/330/209 348/329/209 341/170/209
f 36/39/264 155/132/264 167/135/264 53/40/264
f 53/40/223 167/135/223 170/126/223 54/42/223
f 54/42/222 170/126/222 158/124/222 42/10/222
f 42/10/221 158/124/221 157/121/221 39/4/221
f 39/4/265 157/121/265 154/120/265 34/28/265
f 35/33/266 123/111/266 142/114/266 45/34/266
f 45/34/267 142/114/267 145/105/267 46/17/267
f 46/17/268 145/105/268 133/104/268 58/38/268
f 58/38/269 133/103/269 132/100/269 55/41/269
f 55/41/270 132/100/270 122/99/270 36/39/270
f 148/275/253 156/141/253 175/144/253 150/393/253
f 150/393/252 175/144/252 178/138/252 151/394/252
f 151/394/251 178/138/251 166/136/251 152/283/251
f 152/352/250 166/136/250 165/133/250 153/395/250
f 153/395/249 165/133/249 155/132/249 149/302/249
f 208/316/258 214/179/258 219/182/258 210/396/258
f 210/396/257 219/182/257 222/188/257 211/397/257
f 211/397/256 222/188/256 234/204/256 212/361/256
f 212/398/255 234/204/255 233/201/255 213/399/255
f 213/399/254 233/201/254 216/200/254 209/326/254
f 156/141/271 216/200/271 235/203/271 173/142/271
f 173/142/272 235/203/272 238/197/272 174/145/272
f 174/145/273 238/197/273 226/195/273 162/129/273
f 162/129/274 226/195/274 225/192/274 159/123/274
f 159/123/275 225/192/275 215/191/275 154/120/275
f 96/64/276 183/400/276 202/401/276 113/83/276
f 113/83/277 202/401/277 205/402/277 114/68/277
f 114/68/278 205/402/278 193/403/278 102/77/278
f 102/77/279 193/163/279 192/160/279 99/73/279
f 99/73/280 192/160/280 182/159/280 94/70/280
f 95/80/281 215/191/281 227/194/281 105/56/281
f 105/56/243 227/194/243 230/185/243 106/59/243
f 106/59/242 230/185/242 218/183/242 118/81/242
f 118/81/241 218/183/241 217/180/241 115/85/241
f 115/85/282 217/180/282 214/179/282 96/64/282
f 34/28/245 95/80/245 107/58/245 37/2/245
f 37/2/246 107/58/246 110/75/246 38/30/246
f 38/30/217 110/75/217 98/74/217 50/7/217
f 50/7/247 98/74/247 97/71/247 47/36/247
f 47/36/248 97/71/248 94/70/248 35/33/248
f 62/366/283 1/348/283 121/87/283 181/147/283
f 2/341/284 241/230/284 308/290/284 122/342/284
f 68/55/283 7/1/283 1/117/283 62/153/283
f 9/22/284 249/226/284 241/290/284 2/376/284
f 282/159/285 247/111/285 8/13/285 67/43/285
f 95/80/283 34/28/283 154/120/283 215/191/283
f 36/39/284 122/99/284 149/302/284 155/132/284
f 182/159/285 123/111/285 35/33/285 94/70/285
f 280/237/286 69/64/286 61/378/286 275/309/286
f 275/266/286 61/371/286 183/173/286 340/309/286
f 183/400/286 96/64/286 214/179/286 208/316/286
f 122/39/284 308/230/284 315/296/284 149/383/284
f 209/153/287 148/117/287 314/284/287 347/320/287
f 216/200/287 156/141/287 148/275/287 209/326/287
f 340/266/286 183/64/286 208/391/286 346/305/286
f 341/338/288 307/273/288 242/115/288 274/170/288
f 274/338/288 242/273/288 248/217/288 281/249/288
f 348/329/288 313/269/288 307/115/288 341/170/288
