# Blender 5.1.2
# www.blender.org
mtllib linea.mtl
o Cube
v 0.850000 1.000000 1.000000
v 1.000000 0.850000 1.000000
v 0.896353 0.992658 1.000000
v 0.938168 0.971353 1.000000
v 0.971353 0.938168 1.000000
v 0.992658 0.896353 1.000000
v 1.000000 -0.850000 1.000000
v 0.850000 -1.000000 1.000000
v 0.992658 -0.896353 1.000000
v 0.971353 -0.938168 1.000000
v 0.938168 -0.971353 1.000000
v 0.896353 -0.992658 1.000000
v 1.000000 0.850000 2.850000
v 0.850000 1.000000 2.850000
v 0.850000 0.850000 3.000000
v 0.992656 0.896361 2.850000
v 0.971363 0.938153 2.850000
v 0.992656 0.850000 2.896361
v 0.983958 0.897858 2.897590
v 0.963857 0.936122 2.896039
v 0.971363 0.850000 2.938153
v 0.963751 0.896158 2.936198
v 0.949506 0.929368 2.929368
v 0.850000 0.992656 2.896361
v 0.850000 0.971363 2.938153
v 0.896361 0.992656 2.850000
v 0.897590 0.983958 2.897858
v 0.896039 0.963857 2.936122
v 0.938153 0.971363 2.850000
v 0.936198 0.963751 2.896158
v 0.929368 0.949506 2.929368
v 0.896361 0.850000 2.992656
v 0.938153 0.850000 2.971363
v 0.850000 0.896361 2.992656
v 0.897858 0.897590 2.983958
v 0.936122 0.896039 2.963857
v 0.850000 0.938153 2.971363
v 0.896158 0.936198 2.963751
v 0.929368 0.929368 2.949506
v 1.000000 -0.850000 2.850000
v 0.850000 -0.850000 3.000000
v 0.850000 -1.000000 2.850000
v 0.992656 -0.850000 2.896361
v 0.971363 -0.850000 2.938153
v 0.992656 -0.896361 2.850000
v 0.983958 -0.897590 2.897858
v 0.963857 -0.896039 2.936122
v 0.971363 -0.938153 2.850000
v 0.963751 -0.936198 2.896158
v 0.949506 -0.929368 2.929368
v 0.850000 -0.896361 2.992656
v 0.850000 -0.938153 2.971363
v 0.896361 -0.850000 2.992656
v 0.897590 -0.897858 2.983958
v 0.896039 -0.936122 2.963857
v 0.938153 -0.850000 2.971363
v 0.936198 -0.896158 2.963751
v 0.929368 -0.929368 2.949506
v 0.896361 -0.992656 2.850000
v 0.938153 -0.971363 2.850000
v 0.850000 -0.992656 2.896361
v 0.897858 -0.983958 2.897590
v 0.936122 -0.963857 2.896039
v 0.850000 -0.971363 2.938153
v 0.896158 -0.963751 2.936198
v 0.929368 -0.949506 2.929368
v -1.000000 0.850000 1.000000
v -0.850000 1.000000 1.000000
v -0.992658 0.896353 1.000000
v -0.971353 0.938168 1.000000
v -0.938168 0.971353 1.000000
v -0.896353 0.992658 1.000000
v -0.850000 -1.000000 1.000000
v -1.000000 -0.850000 1.000000
v -0.896353 -0.992658 1.000000
v -0.938168 -0.971353 1.000000
v -0.971353 -0.938168 1.000000
v -0.992658 -0.896353 1.000000
v -1.000000 0.850000 2.850000
v -0.850000 0.850000 3.000000
v -0.850000 1.000000 2.850000
v -0.992656 0.850000 2.896361
v -0.971363 0.850000 2.938153
v -0.992656 0.896361 2.850000
v -0.983958 0.897590 2.897858
v -0.963857 0.896039 2.936122
v -0.971363 0.938153 2.850000
v -0.963751 0.936198 2.896158
v -0.949506 0.929368 2.929368
v -0.850000 0.896361 2.992656
v -0.850000 0.938153 2.971363
v -0.896361 0.850000 2.992656
v -0.897590 0.897858 2.983958
v -0.896039 0.936122 2.963857
v -0.938153 0.850000 2.971363
v -0.936198 0.896158 2.963751
v -0.929368 0.929368 2.949506
v -0.896361 0.992656 2.850000
v -0.938153 0.971363 2.850000
v -0.850000 0.992656 2.896361
v -0.897858 0.983958 2.897590
v -0.936122 0.963857 2.896039
v -0.850000 0.971363 2.938153
v -0.896158 0.963751 2.936198
v -0.929368 0.949506 2.929368
v -0.850000 -1.000000 2.850000
v -0.850000 -0.850000 3.000000
v -1.000000 -0.850000 2.850000
v -0.850000 -0.992656 2.896361
v -0.850000 -0.971363 2.938153
v -0.896361 -0.992656 2.850000
v -0.897590 -0.983958 2.897858
v -0.896039 -0.963857 2.936122
v -0.938153 -0.971363 2.850000
v -0.936198 -0.963751 2.896158
v -0.929368 -0.949506 2.929368
v -0.896361 -0.850000 2.992656
v -0.938153 -0.850000 2.971363
v -0.850000 -0.896361 2.992656
v -0.897858 -0.897590 2.983958
v -0.936122 -0.896039 2.963857
v -0.850000 -0.938153 2.971363
v -0.896158 -0.936198 2.963751
v -0.929368 -0.929368 2.949506
v -0.992656 -0.896361 2.850000
v -0.971363 -0.938153 2.850000
v -0.992656 -0.850000 2.896361
v -0.983958 -0.897858 2.897590
v -0.963857 -0.936122 2.896039
v -0.971363 -0.850000 2.938153
v -0.963751 -0.896158 2.936198
v -0.949506 -0.929368 2.929368
v 0.850000 0.850000 -3.000000
v 0.850000 1.000000 -2.850000
v 1.000000 0.850000 -2.850000
v 0.850000 0.896361 -2.992656
v 0.850000 0.938153 -2.971363
v 0.896361 0.850000 -2.992656
v 0.897590 0.897858 -2.983958
v 0.896039 0.936122 -2.963857
v 0.938153 0.850000 -2.971363
v 0.936198 0.896158 -2.963751
v 0.929368 0.929368 -2.949506
v 0.896361 0.992656 -2.850000
v 0.938153 0.971363 -2.850000
v 0.850000 0.992656 -2.896361
v 0.897858 0.983958 -2.897590
v 0.936122 0.963857 -2.896039
v 0.850000 0.971363 -2.938153
v 0.896158 0.963751 -2.936198
v 0.929368 0.949506 -2.929368
v 0.992656 0.850000 -2.896361
v 0.971363 0.850000 -2.938153
v 0.992656 0.896361 -2.850000
v 0.983958 0.897590 -2.897858
v 0.963857 0.896039 -2.936122
v 0.971363 0.938153 -2.850000
v 0.963751 0.936198 -2.896158
v 0.949506 0.929368 -2.929368
v 0.850000 -1.000000 -2.850000
v 0.850000 -0.850000 -3.000000
v 1.000000 -0.850000 -2.850000
v 0.850000 -0.992656 -2.896361
v 0.850000 -0.971363 -2.938153
v 0.896361 -0.992656 -2.850000
v 0.897590 -0.983958 -2.897858
v 0.896039 -0.963857 -2.936122
v 0.938153 -0.971363 -2.850000
v 0.936198 -0.963751 -2.896158
v 0.929368 -0.949506 -2.929368
v 0.896361 -0.850000 -2.992656
v 0.938153 -0.850000 -2.971363
v 0.850000 -0.896361 -2.992656
v 0.897858 -0.897590 -2.983958
v 0.936122 -0.896039 -2.963857
v 0.850000 -0.938153 -2.971363
v 0.896158 -0.936198 -2.963751
v 0.929368 -0.929368 -2.949506
v 0.992656 -0.896361 -2.850000
v 0.971363 -0.938153 -2.850000
v 0.992656 -0.850000 -2.896361
v 0.983958 -0.897858 -2.897590
v 0.963857 -0.936122 -2.896039
v 0.971363 -0.850000 -2.938153
v 0.963751 -0.896158 -2.936198
v 0.949506 -0.929368 -2.929368
v 1.000000 0.850000 -1.000000
v 0.850000 1.000000 -1.000000
v 0.992658 0.896353 -1.000000
v 0.971353 0.938168 -1.000000
v 0.938168 0.971353 -1.000000
v 0.896353 0.992658 -1.000000
v 0.850000 -1.000000 -1.000000
v 1.000000 -0.850000 -1.000000
v 0.896353 -0.992658 -1.000000
v 0.938168 -0.971353 -1.000000
v 0.971353 -0.938168 -1.000000
v 0.992658 -0.896353 -1.000000
v -0.850000 0.850000 -3.000000
v -1.000000 0.850000 -2.850000
v -0.850000 1.000000 -2.850000
v -0.896361 0.850000 -2.992656
v -0.938153 0.850000 -2.971363
v -0.850000 0.896361 -2.992656
v -0.897858 0.897590 -2.983958
v -0.936122 0.896039 -2.963857
v -0.850000 0.938153 -2.971363
v -0.896158 0.936198 -2.963751
v -0.929368 0.929368 -2.949506
v -0.992656 0.896361 -2.850000
v -0.971363 0.938153 -2.850000
v -0.992656 0.850000 -2.896361
v -0.983958 0.897858 -2.897590
v -0.963857 0.936122 -2.896039
v -0.971363 0.850000 -2.938153
v -0.963751 0.896158 -2.936198
v -0.949506 0.929368 -2.929368
v -0.850000 0.992656 -2.896361
v -0.850000 0.971363 -2.938153
v -0.896361 0.992656 -2.850000
v -0.897590 0.983958 -2.897858
v -0.896039 0.963857 -2.936122
v -0.938153 0.971363 -2.850000
v -0.936198 0.963751 -2.896158
v -0.929368 0.949506 -2.929368
v -1.000000 -0.850000 -2.850000
v -0.850000 -0.850000 -3.000000
v -0.850000 -1.000000 -2.850000
v -0.992656 -0.850000 -2.896361
v -0.971363 -0.850000 -2.938153
v -0.992656 -0.896361 -2.850000
v -0.983958 -0.897590 -2.897858
v -0.963857 -0.896039 -2.936122
v -0.971363 -0.938153 -2.850000
v -0.963751 -0.936198 -2.896158
v -0.949506 -0.929368 -2.929368
v -0.850000 -0.896361 -2.992656
v -0.850000 -0.938153 -2.971363
v -0.896361 -0.850000 -2.992656
v -0.897590 -0.897858 -2.983958
v -0.896039 -0.936122 -2.963857
v -0.938153 -0.850000 -2.971363
v -0.936198 -0.896158 -2.963751
v -0.929368 -0.929368 -2.949506
v -0.896361 -0.992656 -2.850000
v -0.938153 -0.971363 -2.850000
v -0.850000 -0.992656 -2.896361
v -0.897858 -0.983958 -2.897590
v -0.936122 -0.963857 -2.896039
v -0.850000 -0.971363 -2.938153
v -0.896158 -0.963751 -2.936198
v -0.929368 -0.949506 -2.929368
v -0.850000 1.000000 -1.000000
v -1.000000 0.850000 -1.000000
v -0.896353 0.992658 -1.000000
v -0.938168 0.971353 -1.000000
v -0.971353 0.938168 -1.000000
v -0.992658 0.896353 -1.000000
v -1.000000 -0.850000 -1.000000
v -0.850000 -1.000000 -1.000000
v -0.992658 -0.896353 -1.000000
v -0.971353 -0.938168 -1.000000
v -0.938168 -0.971353 -1.000000
v -0.896353 -0.992658 -1.000000
v 0.850000 1.000000 -1.000000
v 1.000000 0.850000 -1.000000
v 0.896353 0.992658 -1.000000
v 0.938168 0.971353 -1.000000
v 0.971353 0.938168 -1.000000
v 0.992658 0.896353 -1.000000
v 1.000000 -0.850000 -1.000000
v 0.850000 -1.000000 -1.000000
v 0.992658 -0.896353 -1.000000
v 0.971353 -0.938168 -1.000000
v 0.938168 -0.971353 -1.000000
v 0.896353 -0.992658 -1.000000
v 1.000000 0.850000 1.000000
v 0.850000 1.000000 1.000000
v 0.992658 0.896353 1.000000
v 0.971353 0.938168 1.000000
v 0.938168 0.971353 1.000000
v 0.896353 0.992658 1.000000
v 0.850000 -1.000000 1.000000
v 1.000000 -0.850000 1.000000
v 0.896353 -0.992658 1.000000
v 0.938168 -0.971353 1.000000
v 0.971353 -0.938168 1.000000
v 0.992658 -0.896353 1.000000
v -1.000000 0.850000 -1.000000
v -0.850000 1.000000 -1.000000
v -0.992658 0.896353 -1.000000
v -0.971353 0.938168 -1.000000
v -0.938168 0.971353 -1.000000
v -0.896353 0.992658 -1.000000
v -0.850000 -1.000000 -1.000000
v -1.000000 -0.850000 -1.000000
v -0.896353 -0.992658 -1.000000
v -0.938168 -0.971353 -1.000000
v -0.971353 -0.938168 -1.000000
v -0.992658 -0.896353 -1.000000
v -0.850000 1.000000 1.000000
v -1.000000 0.850000 1.000000
v -0.896353 0.992658 1.000000
v -0.938168 0.971353 1.000000
v -0.971353 0.938168 1.000000
v -0.992658 0.896353 1.000000
v -1.000000 -0.850000 1.000000
v -0.850000 -1.000000 1.000000
v -0.992658 -0.896353 1.000000
v -0.971353 -0.938168 1.000000
v -0.938168 -0.971353 1.000000
v -0.896353 -0.992658 1.000000
vn 0.9729 0.1635 0.1635
vn 0.8764 0.4562 0.1543
vn 0.6996 0.6997 0.1450
vn 0.8764 0.1556 0.4557
vn 0.7924 0.4314 0.4313
vn 0.6456 0.6449 0.4090
vn 0.1635 0.9729 0.1635
vn 0.1543 0.8764 0.4562
vn 0.1450 0.6996 0.6997
vn 0.4557 0.8764 0.1556
vn 0.4314 0.7924 0.4314
vn 0.4090 0.6456 0.6449
vn 0.1635 0.1635 0.9729
vn 0.4562 0.1543 0.8764
vn 0.6997 0.1450 0.6996
vn 0.1556 0.4557 0.8764
vn 0.4314 0.4313 0.7924
vn 0.6449 0.4090 0.6456
vn 0.5774 0.5773 0.5774
vn 0.9729 -0.1635 0.1635
vn 0.8764 -0.1543 0.4562
vn 0.6996 -0.1450 0.6997
vn 0.8764 -0.4557 0.1556
vn 0.7924 -0.4313 0.4314
vn 0.6456 -0.4090 0.6449
vn 0.1635 -0.1635 0.9729
vn 0.1543 -0.4562 0.8764
vn 0.1450 -0.6997 0.6996
vn 0.4557 -0.1556 0.8764
vn 0.4313 -0.4314 0.7924
vn 0.4090 -0.6449 0.6456
vn 0.1635 -0.9729 0.1635
vn 0.4562 -0.8764 0.1543
vn 0.6997 -0.6996 0.1450
vn 0.1556 -0.8764 0.4557
vn 0.4314 -0.7924 0.4313
vn 0.6449 -0.6456 0.4090
vn 0.5774 -0.5773 0.5774
vn -0.9729 0.1635 0.1635
vn -0.8764 0.1543 0.4562
vn -0.6996 0.1450 0.6997
vn -0.8764 0.4557 0.1556
vn -0.7924 0.4313 0.4314
vn -0.6456 0.4090 0.6449
vn -0.1635 0.1635 0.9729
vn -0.1543 0.4562 0.8764
vn -0.1450 0.6997 0.6996
vn -0.4557 0.1556 0.8764
vn -0.4313 0.4314 0.7924
vn -0.4090 0.6449 0.6456
vn -0.1635 0.9729 0.1635
vn -0.4562 0.8764 0.1543
vn -0.6997 0.6996 0.1450
vn -0.1556 0.8764 0.4557
vn -0.4314 0.7924 0.4313
vn -0.6449 0.6456 0.4090
vn -0.5774 0.5773 0.5774
vn -0.1635 -0.9729 0.1635
vn -0.1543 -0.8764 0.4562
vn -0.1450 -0.6996 0.6997
vn -0.4557 -0.8764 0.1556
vn -0.4314 -0.7924 0.4314
vn -0.4090 -0.6456 0.6449
vn -0.1635 -0.1635 0.9729
vn -0.4562 -0.1543 0.8764
vn -0.6997 -0.1450 0.6996
vn -0.1556 -0.4557 0.8764
vn -0.4314 -0.4313 0.7924
vn -0.6449 -0.4090 0.6456
vn -0.9729 -0.1635 0.1635
vn -0.8764 -0.4562 0.1543
vn -0.6996 -0.6997 0.1450
vn -0.8764 -0.1556 0.4557
vn -0.7924 -0.4314 0.4313
vn -0.6456 -0.6449 0.4090
vn -0.5774 -0.5773 0.5774
vn 0.1635 0.1635 -0.9729
vn 0.1543 0.4562 -0.8764
vn 0.1450 0.6997 -0.6996
vn 0.4557 0.1556 -0.8764
vn 0.4313 0.4314 -0.7924
vn 0.4090 0.6449 -0.6456
vn 0.1635 0.9729 -0.1635
vn 0.4562 0.8764 -0.1543
vn 0.6997 0.6996 -0.1450
vn 0.1556 0.8764 -0.4557
vn 0.4314 0.7924 -0.4313
vn 0.6449 0.6456 -0.4090
vn 0.9729 0.1635 -0.1635
vn 0.8764 0.1543 -0.4562
vn 0.6996 0.1450 -0.6997
vn 0.8764 0.4557 -0.1556
vn 0.7924 0.4313 -0.4314
vn 0.6456 0.4090 -0.6449
vn 0.5774 0.5773 -0.5774
vn 0.1635 -0.9729 -0.1635
vn 0.1543 -0.8764 -0.4562
vn 0.1450 -0.6996 -0.6997
vn 0.4557 -0.8764 -0.1556
vn 0.4314 -0.7924 -0.4314
vn 0.4090 -0.6456 -0.6449
vn 0.1635 -0.1635 -0.9729
vn 0.4562 -0.1543 -0.8764
vn 0.6997 -0.1450 -0.6996
vn 0.1556 -0.4557 -0.8764
vn 0.4314 -0.4313 -0.7924
vn 0.6449 -0.4090 -0.6456
vn 0.9729 -0.1635 -0.1635
vn 0.8764 -0.4562 -0.1543
vn 0.6996 -0.6997 -0.1450
vn 0.8764 -0.1556 -0.4557
vn 0.7924 -0.4314 -0.4313
vn 0.6456 -0.6449 -0.4090
vn 0.5774 -0.5773 -0.5774
vn -0.1635 0.1635 -0.9729
vn -0.4562 0.1543 -0.8764
vn -0.6997 0.1450 -0.6996
vn -0.1556 0.4557 -0.8764
vn -0.4314 0.4313 -0.7924
vn -0.6449 0.4090 -0.6456
vn -0.9729 0.1635 -0.1635
vn -0.8764 0.4562 -0.1543
vn -0.6996 0.6997 -0.1450
vn -0.8764 0.1556 -0.4557
vn -0.7924 0.4314 -0.4313
vn -0.6456 0.6449 -0.4090
vn -0.1635 0.9729 -0.1635
vn -0.1543 0.8764 -0.4562
vn -0.1450 0.6996 -0.6997
vn -0.4557 0.8764 -0.1556
vn -0.4314 0.7924 -0.4314
vn -0.4090 0.6456 -0.6449
vn -0.5774 0.5773 -0.5774
vn -0.9729 -0.1635 -0.1635
vn -0.8764 -0.1543 -0.4562
vn -0.6996 -0.1450 -0.6997
vn -0.8764 -0.4557 -0.1556
vn -0.7924 -0.4313 -0.4314
vn -0.6456 -0.4090 -0.6449
vn -0.1635 -0.1635 -0.9729
vn -0.1543 -0.4562 -0.8764
vn -0.1450 -0.6997 -0.6996
vn -0.4557 -0.1556 -0.8764
vn -0.4313 -0.4314 -0.7924
vn -0.4090 -0.6449 -0.6456
vn -0.1635 -0.9729 -0.1635
vn -0.4562 -0.8764 -0.1543
vn -0.6997 -0.6996 -0.1450
vn -0.1556 -0.8764 -0.4557
vn -0.4314 -0.7924 -0.4313
vn -0.6449 -0.6456 -0.4090
vn -0.5774 -0.5773 -0.5774
vn -0.1564 -0.9877 -0.0000
vn -0.4540 -0.8910 -0.0000
vn -0.7071 -0.7071 -0.0000
vn -0.8910 -0.4540 -0.0000
vn -0.9877 -0.1564 -0.0000
vn -0.1565 -0.0000 0.9877
vn -0.4540 -0.0000 0.8910
vn -0.7071 -0.0000 0.7071
vn -0.8910 -0.0000 0.4540
vn -0.9877 -0.0000 0.1565
vn 0.1565 -0.0000 0.9877
vn 0.4540 -0.0000 0.8910
vn 0.7071 -0.0000 0.7071
vn 0.8910 -0.0000 0.4540
vn 0.9877 -0.0000 0.1565
vn -0.0000 0.9877 0.1565
vn -0.0000 0.8910 0.4540
vn -0.0000 0.7071 0.7071
vn -0.0000 0.4540 0.8910
vn -0.0000 0.1565 0.9877
vn 0.1564 0.9877 -0.0000
vn 0.4540 0.8910 -0.0000
vn 0.7071 0.7071 -0.0000
vn 0.8910 0.4540 -0.0000
vn 0.9877 0.1564 -0.0000
vn -0.0000 -0.9877 0.1565
vn -0.0000 -0.8910 0.4540
vn -0.0000 -0.7071 0.7071
vn -0.0000 -0.4540 0.8910
vn -0.0000 -0.1565 0.9877
vn -0.1564 0.9877 -0.0000
vn -0.4540 0.8910 -0.0000
vn -0.7071 0.7071 -0.0000
vn -0.8910 0.4540 -0.0000
vn -0.9877 0.1564 -0.0000
vn 0.1564 -0.9877 -0.0000
vn 0.4540 -0.8910 -0.0000
vn 0.7071 -0.7071 -0.0000
vn 0.8910 -0.4540 -0.0000
vn 0.9877 -0.1564 -0.0000
vn -0.0000 -0.9877 -0.1565
vn -0.0000 -0.8910 -0.4540
vn -0.0000 -0.7071 -0.7071
vn -0.0000 -0.4540 -0.8910
vn -0.0000 -0.1565 -0.9877
vn 0.9877 -0.0000 -0.1565
vn 0.8910 -0.0000 -0.4540
vn 0.7071 -0.0000 -0.7071
vn 0.4540 -0.0000 -0.8910
vn 0.1565 -0.0000 -0.9877
vn -0.1565 -0.0000 -0.9877
vn -0.4540 -0.0000 -0.8910
vn -0.7071 -0.0000 -0.7071
vn -0.8910 -0.0000 -0.4540
vn -0.9877 -0.0000 -0.1565
vn -0.0000 0.9877 -0.1565
vn -0.0000 0.8910 -0.4540
vn -0.0000 0.7071 -0.7071
vn -0.0000 0.4540 -0.8910
vn -0.0000 0.1565 -0.9877
vn 1.0000 -0.0000 -0.0000
vn -0.0000 1.0000 -0.0000
vn -0.0000 -1.0000 -0.0000
vn -0.0000 -0.0000 1.0000
vn -1.0000 -0.0000 -0.0000
vn -0.0000 -0.0000 -1.0000
vt 0.606250 0.731250
vt 0.612045 0.731250
vt 0.612232 0.737199
vt 0.606250 0.737045
vt 0.617269 0.731250
vt 0.617015 0.737005
vt 0.632731 0.731250
vt 0.632975 0.737020
vt 0.612020 0.742025
vt 0.606250 0.742269
vt 0.616171 0.744956
vt 0.629415 0.754415
vt 0.643750 0.731250
vt 0.643750 0.737045
vt 0.637801 0.737232
vt 0.637955 0.731250
vt 0.634375 0.759375
vt 0.631498 0.756498
vt 0.617269 0.768750
vt 0.617025 0.762980
vt 0.616171 0.758829
vt 0.606250 0.768750
vt 0.606250 0.762955
vt 0.612199 0.762768
vt 0.612045 0.768750
vt 0.606250 0.757731
vt 0.612005 0.757985
vt 0.393750 0.731250
vt 0.393750 0.737045
vt 0.387801 0.737232
vt 0.387955 0.731250
vt 0.393750 0.742269
vt 0.387995 0.742015
vt 0.393750 0.757731
vt 0.387980 0.757975
vt 0.382975 0.737020
vt 0.382731 0.731250
vt 0.380044 0.741171
vt 0.370585 0.754414
vt 0.393750 0.768750
vt 0.387955 0.768750
vt 0.387768 0.762801
vt 0.393750 0.762955
vt 0.365625 0.759375
vt 0.368502 0.756498
vt 0.356250 0.742269
vt 0.362020 0.742025
vt 0.366171 0.741171
vt 0.356250 0.731250
vt 0.362045 0.731250
vt 0.362232 0.737199
vt 0.356250 0.737045
vt 0.367269 0.731250
vt 0.367015 0.737005
vt 0.606250 0.018750
vt 0.606250 0.012955
vt 0.612199 0.012768
vt 0.612045 0.018750
vt 0.606250 0.000000
vt 0.612005 0.000000
vt 0.606250 1.000000
vt 0.606250 0.992269
vt 0.612020 0.992025
vt 0.612005 1.000000
vt 0.625000 0.012980
vt 0.625000 0.018750
vt 0.616171 0.000000
vt 0.616171 0.991171
vt 0.616171 1.000000
vt 0.606250 0.981250
vt 0.612045 0.981250
vt 0.612232 0.987199
vt 0.606250 0.987045
vt 0.617269 0.981250
vt 0.617015 0.987005
vt 0.625000 0.981250
vt 0.625000 0.987020
vt 0.625000 0.991171
vt 0.856250 0.731250
vt 0.862045 0.731250
vt 0.862232 0.737199
vt 0.856250 0.737045
vt 0.867269 0.731250
vt 0.867015 0.737005
vt 0.875000 0.731250
vt 0.875000 0.737020
vt 0.862020 0.750000
vt 0.856250 0.750000
vt 0.866171 0.750000
vt 0.875000 0.750000
vt 0.143750 0.731250
vt 0.143750 0.737045
vt 0.137801 0.737232
vt 0.137955 0.731250
vt 0.143750 0.742269
vt 0.137995 0.742015
vt 0.143750 0.750000
vt 0.137980 0.750000
vt 0.132975 0.737020
vt 0.132731 0.731250
vt 0.133829 0.741171
vt 0.133829 0.750000
vt 0.393750 0.981250
vt 0.393750 0.987045
vt 0.387801 0.987232
vt 0.387955 0.981250
vt 0.393750 0.992269
vt 0.387995 0.992015
vt 0.393750 1.000000
vt 0.387980 1.000000
vt 0.375000 0.987020
vt 0.375000 0.981250
vt 0.375000 0.991171
vt 0.375000 1.000000
vt 0.393750 0.018750
vt 0.387955 0.018750
vt 0.387768 0.012801
vt 0.393750 0.012955
vt 0.375000 0.018750
vt 0.375000 0.012995
vt 0.125000 0.731250
vt 0.125000 0.737005
vt 0.387980 0.000000
vt 0.393750 0.000000
vt 0.375000 0.008829
vt 0.125000 0.741171
vt 0.606250 0.481250
vt 0.612045 0.481250
vt 0.612232 0.487199
vt 0.606250 0.487045
vt 0.617269 0.481250
vt 0.617015 0.487005
vt 0.634375 0.490625
vt 0.631490 0.493510
vt 0.612020 0.492025
vt 0.606250 0.492269
vt 0.616171 0.491171
vt 0.629415 0.495586
vt 0.643750 0.518750
vt 0.637955 0.518750
vt 0.637768 0.512801
vt 0.643750 0.512955
vt 0.632731 0.518750
vt 0.632985 0.512995
vt 0.617269 0.518750
vt 0.617025 0.512980
vt 0.616171 0.505044
vt 0.606250 0.518750
vt 0.606250 0.512955
vt 0.612199 0.512768
vt 0.612045 0.518750
vt 0.606250 0.507731
vt 0.612005 0.507985
vt 0.356250 0.518750
vt 0.356250 0.512955
vt 0.362199 0.512768
vt 0.362045 0.518750
vt 0.356250 0.507731
vt 0.362005 0.507985
vt 0.365625 0.490625
vt 0.368510 0.493510
vt 0.367025 0.512980
vt 0.367269 0.518750
vt 0.366171 0.508829
vt 0.370585 0.495586
vt 0.393750 0.481250
vt 0.393750 0.487045
vt 0.387801 0.487232
vt 0.387955 0.481250
vt 0.393750 0.492269
vt 0.387995 0.492015
vt 0.393750 0.507731
vt 0.387980 0.507975
vt 0.380044 0.508829
vt 0.393750 0.518750
vt 0.387955 0.518750
vt 0.387768 0.512801
vt 0.393750 0.512955
vt 0.382731 0.518750
vt 0.382985 0.512995
vt 0.606250 0.268750
vt 0.606250 0.262955
vt 0.612199 0.262768
vt 0.612045 0.268750
vt 0.606250 0.257731
vt 0.612005 0.257985
vt 0.606250 0.242269
vt 0.612020 0.242025
vt 0.617025 0.262980
vt 0.617269 0.268750
vt 0.616171 0.255044
vt 0.616171 0.241171
vt 0.606250 0.231250
vt 0.612045 0.231250
vt 0.612232 0.237199
vt 0.606250 0.237045
vt 0.617269 0.231250
vt 0.617015 0.237005
vt 0.625000 0.231250
vt 0.625000 0.237020
vt 0.625000 0.244114
vt 0.856250 0.518750
vt 0.856250 0.512955
vt 0.862199 0.512768
vt 0.862045 0.518750
vt 0.856250 0.500000
vt 0.862005 0.500000
vt 0.625000 0.268750
vt 0.625000 0.262995
vt 0.875000 0.512980
vt 0.875000 0.518750
vt 0.875000 0.508829
vt 0.393750 0.231250
vt 0.393750 0.237045
vt 0.387801 0.237232
vt 0.387955 0.231250
vt 0.393750 0.242269
vt 0.387995 0.242015
vt 0.393750 0.257731
vt 0.387980 0.257975
vt 0.375000 0.237020
vt 0.375000 0.231250
vt 0.375000 0.241171
vt 0.375000 0.258829
vt 0.393750 0.268750
vt 0.387955 0.268750
vt 0.387768 0.262801
vt 0.393750 0.262955
vt 0.375000 0.268750
vt 0.375000 0.262995
vt 0.143750 0.500000
vt 0.143750 0.507731
vt 0.137980 0.507975
vt 0.137995 0.500000
vt 0.133829 0.508829
vt 0.133829 0.500000
vt 0.143750 0.518750
vt 0.137955 0.518750
vt 0.137768 0.512801
vt 0.143750 0.512955
vt 0.132731 0.518750
vt 0.132985 0.512995
vt 0.125000 0.518750
vt 0.125000 0.512980
vt 0.125000 0.508829
vt 0.137956 0.500000
vt 0.132729 0.500000
vt 0.125000 0.500000
vt 0.375000 0.250000
vt 0.387956 0.250000
vt 0.393750 0.250000
vt 0.643750 0.500000
vt 0.637956 0.500000
vt 0.632729 0.500000
vt 0.617271 0.500000
vt 0.612044 0.500000
vt 0.606250 0.500000
vt 0.862044 0.500000
vt 0.867271 0.500000
vt 0.875000 0.500000
vt 0.625000 0.250000
vt 0.612044 0.250000
vt 0.606250 0.250000
vt 0.356250 0.500000
vt 0.362044 0.500000
vt 0.367271 0.500000
vt 0.382729 0.500000
vt 0.387956 0.500000
vt 0.393750 0.500000
vt 0.137956 0.750000
vt 0.132729 0.750000
vt 0.125000 0.750000
vt 0.375000 0.000000
vt 0.387956 0.000000
vt 0.643750 0.750000
vt 0.637956 0.750000
vt 0.632729 0.750000
vt 0.617271 0.750000
vt 0.612044 0.750000
vt 0.606250 0.750000
vt 0.862044 0.750000
vt 0.625000 0.000000
vt 0.617271 0.000000
vt 0.612044 0.000000
vt 0.356250 0.750000
vt 0.362044 0.750000
vt 0.367271 0.750000
vt 0.382729 0.750000
vt 0.387956 0.750000
vt 0.393750 0.750000
vt 0.867271 0.750000
s 0
usemtl Material
f 13/1/1 16/2/1 19/3/1 18/4/1
f 16/2/2 17/5/2 20/6/2 19/3/2
f 17/5/3 29/7/3 30/8/3 20/6/3
f 18/4/4 19/3/4 22/9/4 21/10/4
f 19/3/5 20/6/5 23/11/5 22/9/5
f 20/6/6 30/8/6 31/12/6 23/11/6
f 14/13/7 24/14/7 27/15/7 26/16/7
f 24/14/8 25/17/8 28/18/8 27/15/8
f 25/17/9 37/19/9 38/20/9 28/18/9
f 26/16/10 27/15/10 30/8/10 29/7/10
f 27/15/11 28/18/11 31/12/11 30/8/11
f 28/18/12 38/20/12 39/21/12 31/12/12
f 15/22/13 32/23/13 35/24/13 34/25/13
f 32/23/14 33/26/14 36/27/14 35/24/14
f 33/26/15 21/10/15 22/9/15 36/27/15
f 34/25/16 35/24/16 38/20/16 37/19/16
f 35/24/17 36/27/17 39/21/17 38/20/17
f 36/27/18 22/9/18 23/11/18 39/21/18
f 23/11/19 31/12/19 39/21/19
f 40/28/20 43/29/20 46/30/20 45/31/20
f 43/29/21 44/32/21 47/33/21 46/30/21
f 44/32/22 56/34/22 57/35/22 47/33/22
f 45/31/23 46/30/23 49/36/23 48/37/23
f 46/30/24 47/33/24 50/38/24 49/36/24
f 47/33/25 57/35/25 58/39/25 50/38/25
f 41/40/26 51/41/26 54/42/26 53/43/26
f 51/41/27 52/44/27 55/45/27 54/42/27
f 52/44/28 64/46/28 65/47/28 55/45/28
f 53/43/29 54/42/29 57/35/29 56/34/29
f 54/42/30 55/45/30 58/39/30 57/35/30
f 55/45/31 65/47/31 66/48/31 58/39/31
f 42/49/32 59/50/32 62/51/32 61/52/32
f 59/50/33 60/53/33 63/54/33 62/51/33
f 60/53/34 48/37/34 49/36/34 63/54/34
f 61/52/35 62/51/35 65/47/35 64/46/35
f 62/51/36 63/54/36 66/48/36 65/47/36
f 63/54/37 49/36/37 50/38/37 66/48/37
f 50/38/38 58/39/38 66/48/38
f 79/55/39 82/56/39 85/57/39 84/58/39
f 82/56/40 83/59/40 86/60/40 85/57/40
f 83/61/41 95/62/41 96/63/41 86/64/41
f 84/58/42 85/57/42 88/65/42 87/66/42
f 85/57/43 86/60/43 89/67/43 88/65/43
f 86/64/44 96/63/44 97/68/44 89/69/44
f 80/70/45 90/71/45 93/72/45 92/73/45
f 90/71/46 91/74/46 94/75/46 93/72/46
f 91/74/47 103/76/47 104/77/47 94/75/47
f 92/73/48 93/72/48 96/63/48 95/62/48
f 93/72/49 94/75/49 97/68/49 96/63/49
f 94/75/50 104/77/50 105/78/50 97/68/50
f 81/79/51 98/80/51 101/81/51 100/82/51
f 98/80/52 99/83/52 102/84/52 101/81/52
f 99/83/53 87/85/53 88/86/53 102/84/53
f 100/82/54 101/81/54 104/87/54 103/88/54
f 101/81/55 102/84/55 105/89/55 104/87/55
f 102/84/56 88/86/56 89/90/56 105/89/56
f 89/69/57 97/68/57 105/78/57
f 106/91/58 109/92/58 112/93/58 111/94/58
f 109/92/59 110/95/59 113/96/59 112/93/59
f 110/95/60 122/97/60 123/98/60 113/96/60
f 111/94/61 112/93/61 115/99/61 114/100/61
f 112/93/62 113/96/62 116/101/62 115/99/62
f 113/96/63 123/98/63 124/102/63 116/101/63
f 107/103/64 117/104/64 120/105/64 119/106/64
f 117/104/65 118/107/65 121/108/65 120/105/65
f 118/107/66 130/109/66 131/110/66 121/108/66
f 119/106/67 120/105/67 123/111/67 122/112/67
f 120/105/68 121/108/68 124/113/68 123/111/68
f 121/108/69 131/110/69 132/114/69 124/113/69
f 108/115/70 125/116/70 128/117/70 127/118/70
f 125/116/71 126/119/71 129/120/71 128/117/71
f 126/121/72 114/100/72 115/99/72 129/122/72
f 127/118/73 128/117/73 131/123/73 130/124/73
f 128/117/74 129/120/74 132/125/74 131/123/74
f 129/122/75 115/99/75 116/101/75 132/126/75
f 116/101/76 124/102/76 132/126/76
f 133/127/77 136/128/77 139/129/77 138/130/77
f 136/128/78 137/131/78 140/132/78 139/129/78
f 137/131/79 149/133/79 150/134/79 140/132/79
f 138/130/80 139/129/80 142/135/80 141/136/80
f 139/129/81 140/132/81 143/137/81 142/135/81
f 140/132/82 150/134/82 151/138/82 143/137/82
f 134/139/83 144/140/83 147/141/83 146/142/83
f 144/140/84 145/143/84 148/144/84 147/141/84
f 145/143/85 157/145/85 158/146/85 148/144/85
f 146/142/86 147/141/86 150/134/86 149/133/86
f 147/141/87 148/144/87 151/138/87 150/134/87
f 148/144/88 158/146/88 159/147/88 151/138/88
f 135/148/89 152/149/89 155/150/89 154/151/89
f 152/149/90 153/152/90 156/153/90 155/150/90
f 153/152/91 141/136/91 142/135/91 156/153/91
f 154/151/92 155/150/92 158/146/92 157/145/92
f 155/150/93 156/153/93 159/147/93 158/146/93
f 156/153/94 142/135/94 143/137/94 159/147/94
f 143/137/95 151/138/95 159/147/95
f 160/154/96 163/155/96 166/156/96 165/157/96
f 163/155/97 164/158/97 167/159/97 166/156/97
f 164/158/98 176/160/98 177/161/98 167/159/98
f 165/157/99 166/156/99 169/162/99 168/163/99
f 166/156/100 167/159/100 170/164/100 169/162/100
f 167/159/101 177/161/101 178/165/101 170/164/101
f 161/166/102 171/167/102 174/168/102 173/169/102
f 171/167/103 172/170/103 175/171/103 174/168/103
f 172/170/104 184/172/104 185/173/104 175/171/104
f 173/169/105 174/168/105 177/161/105 176/160/105
f 174/168/106 175/171/106 178/165/106 177/161/106
f 175/171/107 185/173/107 186/174/107 178/165/107
f 162/175/108 179/176/108 182/177/108 181/178/108
f 179/176/109 180/179/109 183/180/109 182/177/109
f 180/179/110 168/163/110 169/162/110 183/180/110
f 181/178/111 182/177/111 185/173/111 184/172/111
f 182/177/112 183/180/112 186/174/112 185/173/112
f 183/180/113 169/162/113 170/164/113 186/174/113
f 170/164/114 178/165/114 186/174/114
f 199/181/115 202/182/115 205/183/115 204/184/115
f 202/182/116 203/185/116 206/186/116 205/183/116
f 203/185/117 215/187/117 216/188/117 206/186/117
f 204/184/118 205/183/118 208/189/118 207/190/118
f 205/183/119 206/186/119 209/191/119 208/189/119
f 206/186/120 216/188/120 217/192/120 209/191/120
f 200/193/121 210/194/121 213/195/121 212/196/121
f 210/194/122 211/197/122 214/198/122 213/195/122
f 211/197/123 223/199/123 224/200/123 214/198/123
f 212/196/124 213/195/124 216/188/124 215/187/124
f 213/195/125 214/198/125 217/192/125 216/188/125
f 214/198/126 224/200/126 225/201/126 217/192/126
f 201/202/127 218/203/127 221/204/127 220/205/127
f 218/203/128 219/206/128 222/207/128 221/204/128
f 219/208/129 207/190/129 208/189/129 222/209/129
f 220/205/130 221/204/130 224/210/130 223/211/130
f 221/204/131 222/207/131 225/212/131 224/210/131
f 222/209/132 208/189/132 209/191/132 225/201/132
f 209/191/133 217/192/133 225/201/133
f 226/213/134 229/214/134 232/215/134 231/216/134
f 229/214/135 230/217/135 233/218/135 232/215/135
f 230/217/136 242/219/136 243/220/136 233/218/136
f 231/216/137 232/215/137 235/221/137 234/222/137
f 232/215/138 233/218/138 236/223/138 235/221/138
f 233/218/139 243/220/139 244/224/139 236/223/139
f 227/225/140 237/226/140 240/227/140 239/228/140
f 237/226/141 238/229/141 241/230/141 240/227/141
f 238/231/142 250/232/142 251/233/142 241/234/142
f 239/228/143 240/227/143 243/220/143 242/219/143
f 240/227/144 241/230/144 244/224/144 243/220/144
f 241/234/145 251/233/145 252/235/145 244/236/145
f 228/237/146 245/238/146 248/239/146 247/240/146
f 245/238/147 246/241/147 249/242/147 248/239/147
f 246/241/148 234/243/148 235/244/148 249/242/148
f 247/240/149 248/239/149 251/233/149 250/232/149
f 248/239/150 249/242/150 252/235/150 251/233/150
f 249/242/151 235/244/151 236/245/151 252/235/151
f 236/245/152 244/236/152 252/235/152
f 73/231/153 106/91/153 111/94/153 75/246/153
f 75/246/154 111/94/154 114/100/154 76/247/154
f 76/247/155 114/100/155 126/121/155 77/248/155
f 77/249/156 126/119/156 125/116/156 78/250/156
f 78/250/157 125/116/157 108/115/157 74/251/157
f 107/103/158 80/70/158 92/73/158 117/104/158
f 117/104/159 92/73/159 95/62/159 118/107/159
f 118/107/160 95/62/160 83/61/160 130/109/160
f 130/124/161 83/59/161 82/56/161 127/118/161
f 127/118/162 82/56/162 79/55/162 108/115/162
f 15/22/163 41/40/163 53/43/163 32/23/163
f 32/23/164 53/43/164 56/34/164 33/26/164
f 33/26/165 56/34/165 44/32/165 21/10/165
f 21/10/166 44/32/166 43/29/166 18/4/166
f 18/4/167 43/29/167 40/28/167 13/1/167
f 14/13/168 81/79/168 100/82/168 24/14/168
f 24/14/169 100/82/169 103/88/169 25/17/169
f 25/17/170 103/76/170 91/74/170 37/19/170
f 37/19/171 91/74/171 90/71/171 34/25/171
f 34/25/172 90/71/172 80/70/172 15/22/172
f 1/252/173 14/13/173 26/16/173 3/253/173
f 3/253/174 26/16/174 29/7/174 4/254/174
f 4/254/175 29/7/175 17/5/175 5/255/175
f 5/255/176 17/5/176 16/2/176 6/256/176
f 6/256/177 16/2/177 13/1/177 2/257/177
f 106/91/178 42/49/178 61/52/178 109/92/178
f 109/92/179 61/52/179 64/46/179 110/95/179
f 110/95/180 64/46/180 52/44/180 122/97/180
f 122/112/181 52/44/181 51/41/181 119/106/181
f 119/106/182 51/41/182 41/40/182 107/103/182
f 81/79/183 68/206/183 72/258/183 98/80/183
f 98/80/184 72/258/184 71/259/184 99/83/184
f 99/83/185 71/259/185 70/260/185 87/85/185
f 87/66/186 70/261/186 69/262/186 84/58/186
f 84/58/187 69/262/187 67/263/187 79/55/187
f 42/49/188 8/264/188 12/265/188 59/50/188
f 59/50/189 12/265/189 11/266/189 60/53/189
f 60/53/190 11/266/190 10/267/190 48/37/190
f 48/37/191 10/267/191 9/268/191 45/31/191
f 45/31/192 9/268/192 7/269/192 40/28/192
f 228/237/153 260/97/153 264/270/153 245/238/153
f 245/238/154 264/270/154 263/271/154 246/241/154
f 246/241/155 263/271/155 262/272/155 234/243/155
f 234/222/156 262/273/156 261/274/156 231/216/156
f 231/216/157 261/274/157 259/124/157 226/213/157
f 160/154/193 228/237/193 247/240/193 163/155/193
f 163/155/194 247/240/194 250/232/194 164/158/194
f 164/158/195 250/232/195 238/231/195 176/160/195
f 176/160/196 238/229/196 237/226/196 173/169/196
f 173/169/197 237/226/197 227/225/197 161/166/197
f 135/148/198 162/175/198 181/178/198 152/149/198
f 152/149/199 181/178/199 184/172/199 153/152/199
f 153/152/200 184/172/200 172/170/200 141/136/200
f 141/136/201 172/170/201 171/167/201 138/130/201
f 138/130/202 171/167/202 161/166/202 133/127/202
f 199/181/203 227/225/203 239/228/203 202/182/203
f 202/182/204 239/228/204 242/219/204 203/185/204
f 203/185/205 242/219/205 230/217/205 215/187/205
f 215/187/206 230/217/206 229/214/206 212/196/206
f 212/196/207 229/214/207 226/213/207 200/193/207
f 134/139/173 188/275/173 192/276/173 144/140/173
f 144/140/174 192/276/174 191/277/174 145/143/174
f 145/143/175 191/277/175 190/278/175 157/145/175
f 157/145/176 190/278/176 189/279/176 154/151/176
f 154/151/177 189/279/177 187/280/177 135/148/177
f 253/88/183 201/202/183 220/205/183 255/281/183
f 255/281/184 220/205/184 223/211/184 256/90/184
f 256/282/185 223/199/185 211/197/185 257/283/185
f 257/283/186 211/197/186 210/194/186 258/284/186
f 258/284/187 210/194/187 200/193/187 254/59/187
f 201/202/208 134/139/208 146/142/208 218/203/208
f 218/203/209 146/142/209 149/133/209 219/206/209
f 219/208/210 149/133/210 137/131/210 207/190/210
f 207/190/211 137/131/211 136/128/211 204/184/211
f 204/184/212 136/128/212 133/127/212 199/181/212
f 193/285/188 160/154/188 165/157/188 195/286/188
f 195/286/189 165/157/189 168/163/189 196/287/189
f 196/287/190 168/163/190 180/179/190 197/288/190
f 197/288/191 180/179/191 179/176/191 198/289/191
f 198/289/192 179/176/192 162/175/192 194/290/192
f 295/231/153 308/97/153 312/270/153 297/246/153
f 297/246/154 312/270/154 311/271/154 298/247/154
f 298/247/155 311/271/155 310/272/155 299/248/155
f 299/249/156 310/273/156 309/274/156 300/250/156
f 300/250/157 309/274/157 307/124/157 296/251/157
f 265/252/173 278/275/173 282/276/173 267/253/173
f 267/253/174 282/276/174 281/277/174 268/254/174
f 268/254/175 281/277/175 280/278/175 269/255/175
f 269/255/176 280/278/176 279/279/176 270/256/176
f 270/256/177 279/279/177 277/280/177 266/257/177
f 301/88/183 290/206/183 294/258/183 303/281/183
f 303/281/184 294/258/184 293/259/184 304/291/184
f 304/291/185 293/259/185 292/260/185 305/90/185
f 305/282/186 292/261/186 291/262/186 306/284/186
f 306/284/187 291/262/187 289/263/187 302/59/187
f 283/285/188 272/264/188 276/265/188 285/286/188
f 285/286/189 276/265/189 275/266/189 286/287/189
f 286/287/190 275/266/190 274/267/190 287/288/190
f 287/288/191 274/267/191 273/268/191 288/289/191
f 288/289/192 273/268/192 271/269/192 284/290/192
f 7/269/213 2/257/213 13/1/213 40/28/213
f 1/252/214 68/206/214 81/79/214 14/13/214
f 73/231/215 8/264/215 42/49/215 106/91/215
f 41/40/216 15/22/216 80/70/216 107/103/216
f 108/115/217 79/55/217 67/263/217 74/251/217
f 227/225/218 199/181/218 133/127/218 161/166/218
f 162/175/213 135/148/213 187/280/213 194/290/213
f 134/139/214 201/202/214 253/88/214 188/275/214
f 228/237/215 160/154/215 193/285/215 260/97/215
f 259/124/217 254/59/217 200/193/217 226/213/217
f 271/269/213 266/257/213 277/280/213 284/290/213
f 265/252/214 290/206/214 301/88/214 278/275/214
f 295/231/215 272/264/215 283/285/215 308/97/215
f 307/124/217 302/59/217 289/263/217 296/251/217
