# Blender 5.1.2
# www.blender.org
mtllib S.mtl
o Cube
v 0.000000 0.850000 -1.150000
v -0.150000 1.000000 -0.850000
v 0.150000 0.850000 -1.000000
v -0.007935 0.895920 -1.096145
v -0.028984 0.937849 -1.033168
v 0.008004 0.850000 -1.103853
v 0.000686 0.895291 -1.064191
v -0.014995 0.934904 -1.021738
v 0.029011 0.850000 -1.062118
v 0.015489 0.894457 -1.036986
v 0.000013 0.930053 -1.011996
v -0.096145 0.992065 -0.895920
v -0.033168 0.971017 -0.937849
v -0.104080 0.992065 -0.903855
v -0.064344 0.979251 -0.936289
v -0.021794 0.962863 -0.963141
v -0.062151 0.971017 -0.966832
v -0.037007 0.962457 -0.978464
v -0.012005 0.951037 -0.987995
v 0.103853 0.850000 -1.008004
v 0.062119 0.850000 -1.029011
v 0.096145 0.895920 -0.992065
v 0.063561 0.895032 -0.999424
v 0.036839 0.894457 -1.015084
v 0.033168 0.937849 -0.971016
v 0.021483 0.934758 -0.984603
v 0.011996 0.930053 -1.000013
v 0.000000 -0.850000 -1.150000
v 0.150000 -0.850000 -1.000000
v -0.150000 -1.000000 -0.850000
v 0.008004 -0.850000 -1.103853
v 0.029011 -0.850000 -1.062119
v -0.007935 -0.895920 -1.096145
v -0.000576 -0.895032 -1.063561
v 0.015084 -0.894457 -1.036839
v -0.028984 -0.937849 -1.033168
v -0.015397 -0.934758 -1.021483
v 0.000013 -0.930053 -1.011996
v 0.096145 -0.895920 -0.992065
v 0.033168 -0.937849 -0.971016
v 0.103853 -0.850000 -1.008004
v 0.064191 -0.895291 -1.000686
v 0.021738 -0.934904 -0.985005
v 0.062118 -0.850000 -1.029011
v 0.036986 -0.894457 -1.015489
v 0.011996 -0.930053 -1.000013
v -0.104080 -0.992065 -0.903855
v -0.062151 -0.971017 -0.966832
v -0.096145 -0.992065 -0.895920
v -0.063711 -0.979251 -0.935656
v -0.036859 -0.962863 -0.978206
v -0.033168 -0.971017 -0.937849
v -0.021536 -0.962457 -0.962993
v -0.012005 -0.951037 -0.987995
v -0.150000 0.850000 1.000000
v 0.000000 0.850000 1.150000
v 0.150000 1.000000 0.850000
v -0.103853 0.850000 1.008004
v -0.062118 0.850000 1.029011
v -0.096145 0.895920 0.992065
v -0.063561 0.895032 0.999424
v -0.036839 0.894457 1.015084
v -0.033168 0.937849 0.971017
v -0.021483 0.934758 0.984603
v -0.011996 0.930053 1.000013
v 0.007935 0.895920 1.096145
v 0.028984 0.937849 1.033168
v -0.008004 0.850000 1.103853
v -0.000686 0.895291 1.064191
v 0.014995 0.934904 1.021738
v -0.029010 0.850000 1.062119
v -0.015489 0.894457 1.036986
v -0.000013 0.930053 1.011996
v 0.096145 0.992065 0.895920
v 0.033168 0.971016 0.937849
v 0.104080 0.992065 0.903855
v 0.064344 0.979251 0.936289
v 0.021794 0.962863 0.963141
v 0.062151 0.971017 0.966832
v 0.037007 0.962457 0.978464
v 0.012005 0.951037 0.987995
v 0.150000 -1.000000 0.850000
v 0.000000 -0.850000 1.150000
v -0.150000 -0.850000 1.000000
v 0.104080 -0.992065 0.903855
v 0.062151 -0.971017 0.966832
v 0.096145 -0.992065 0.895920
v 0.063711 -0.979251 0.935656
v 0.036859 -0.962863 0.978206
v 0.033168 -0.971017 0.937849
v 0.021536 -0.962457 0.962993
v 0.012005 -0.951037 0.987995
v -0.008004 -0.850000 1.103853
v -0.029010 -0.850000 1.062118
v 0.007935 -0.895920 1.096145
v 0.000576 -0.895032 1.063561
v -0.015083 -0.894457 1.036839
v 0.028984 -0.937849 1.033168
v 0.015397 -0.934758 1.021483
v -0.000013 -0.930053 1.011996
v -0.096145 -0.895920 0.992065
v -0.033168 -0.937849 0.971017
v -0.103853 -0.850000 1.008004
v -0.064191 -0.895292 1.000686
v -0.021738 -0.934904 0.985005
v -0.062118 -0.850000 1.029011
v -0.036986 -0.894457 1.015489
v -0.011996 -0.930053 1.000013
v -1.850000 1.000000 -1.000000
v -2.000000 0.850000 -1.000000
v -1.896353 0.992658 -1.000000
v -1.938168 0.971353 -1.000000
v -1.971353 0.938168 -1.000000
v -1.992658 0.896353 -1.000000
v -2.000000 -0.850000 -1.000000
v -1.850000 -1.000000 -1.000000
v -1.992658 -0.896353 -1.000000
v -1.971353 -0.938168 -1.000000
v -1.938168 -0.971353 -1.000000
v -1.896353 -0.992658 -1.000000
v -2.000000 0.850000 0.850000
v -1.850000 0.850000 1.000000
v -1.850000 1.000000 0.850000
v -1.992656 0.850000 0.896361
v -1.971363 0.850000 0.938153
v -1.992656 0.896361 0.850000
v -1.983958 0.897590 0.897858
v -1.963857 0.896039 0.936122
v -1.971363 0.938153 0.850000
v -1.963751 0.936198 0.896158
v -1.949506 0.929368 0.929368
v -1.850000 0.896361 0.992656
v -1.850000 0.938153 0.971363
v -1.896361 0.850000 0.992656
v -1.897590 0.897858 0.983958
v -1.896039 0.936122 0.963857
v -1.938153 0.850000 0.971363
v -1.936198 0.896158 0.963751
v -1.929368 0.929368 0.949506
v -1.896361 0.992656 0.850000
v -1.938153 0.971363 0.850000
v -1.850000 0.992656 0.896361
v -1.897858 0.983958 0.897590
v -1.936122 0.963857 0.896039
v -1.850000 0.971363 0.938153
v -1.896158 0.963751 0.936198
v -1.929368 0.949506 0.929368
v -1.850000 -1.000000 0.850000
v -1.850000 -0.850000 1.000000
v -2.000000 -0.850000 0.850000
v -1.850000 -0.992656 0.896361
v -1.850000 -0.971363 0.938153
v -1.896361 -0.992656 0.850000
v -1.897590 -0.983958 0.897858
v -1.896039 -0.963857 0.936122
v -1.938153 -0.971363 0.850000
v -1.936198 -0.963751 0.896158
v -1.929368 -0.949506 0.929368
v -1.896361 -0.850000 0.992656
v -1.938153 -0.850000 0.971363
v -1.850000 -0.896361 0.992656
v -1.897858 -0.897590 0.983958
v -1.936122 -0.896039 0.963857
v -1.850000 -0.938153 0.971363
v -1.896158 -0.936198 0.963751
v -1.929368 -0.929368 0.949506
v -1.992656 -0.896361 0.850000
v -1.971363 -0.938153 0.850000
v -1.992656 -0.850000 0.896361
v -1.983958 -0.897858 0.897590
v -1.963857 -0.936122 0.896039
v -1.971363 -0.850000 0.938153
v -1.963751 -0.896158 0.936198
v -1.949506 -0.929368 0.929368
v 0.000000 0.850000 -2.850000
v -0.150000 0.850000 -3.000000
v -0.150000 1.000000 -2.850000
v -0.007344 0.850000 -2.896361
v -0.028637 0.850000 -2.938153
v -0.007344 0.896361 -2.850000
v -0.016042 0.897590 -2.897858
v -0.036143 0.896039 -2.936122
v -0.028637 0.938153 -2.850000
v -0.036249 0.936198 -2.896158
v -0.050494 0.929368 -2.929368
v -0.150000 0.896361 -2.992656
v -0.150000 0.938153 -2.971363
v -0.103639 0.850000 -2.992656
v -0.102410 0.897858 -2.983958
v -0.103961 0.936122 -2.963857
v -0.061847 0.850000 -2.971363
v -0.063802 0.896158 -2.963751
v -0.070632 0.929368 -2.949506
v -0.103639 0.992656 -2.850000
v -0.061847 0.971363 -2.850000
v -0.150000 0.992656 -2.896361
v -0.102142 0.983958 -2.897590
v -0.063878 0.963857 -2.896039
v -0.150000 0.971363 -2.938153
v -0.103842 0.963751 -2.936198
v -0.070632 0.949506 -2.929368
v -0.150000 -0.850000 -3.000000
v 0.000000 -0.850000 -2.850000
v -0.150000 -1.000000 -2.850000
v -0.103639 -0.850000 -2.992656
v -0.061847 -0.850000 -2.971363
v -0.150000 -0.896361 -2.992656
v -0.102142 -0.897590 -2.983958
v -0.063878 -0.896039 -2.963857
v -0.150000 -0.938153 -2.971363
v -0.103842 -0.936198 -2.963751
v -0.070632 -0.929368 -2.949506
v -0.007344 -0.896361 -2.850000
v -0.028637 -0.938153 -2.850000
v -0.007344 -0.850000 -2.896361
v -0.016042 -0.897858 -2.897590
v -0.036143 -0.936122 -2.896039
v -0.028637 -0.850000 -2.938153
v -0.036249 -0.896158 -2.936198
v -0.050494 -0.929368 -2.929368
v -0.150000 -0.992656 -2.896361
v -0.150000 -0.971363 -2.938153
v -0.103639 -0.992656 -2.850000
v -0.102410 -0.983958 -2.897858
v -0.103961 -0.963857 -2.936122
v -0.061847 -0.971363 -2.850000
v -0.063802 -0.963751 -2.896158
v -0.070632 -0.949506 -2.929368
v -1.850000 0.850000 -3.000000
v -2.000000 0.850000 -2.850000
v -1.850000 1.000000 -2.850000
v -1.896361 0.850000 -2.992656
v -1.938153 0.850000 -2.971363
v -1.850000 0.896361 -2.992656
v -1.897858 0.897590 -2.983958
v -1.936122 0.896039 -2.963857
v -1.850000 0.938153 -2.971363
v -1.896158 0.936198 -2.963751
v -1.929368 0.929368 -2.949506
v -1.992656 0.896361 -2.850000
v -1.971363 0.938153 -2.850000
v -1.992656 0.850000 -2.896361
v -1.983958 0.897858 -2.897590
v -1.963857 0.936122 -2.896039
v -1.971363 0.850000 -2.938153
v -1.963751 0.896158 -2.936198
v -1.949506 0.929368 -2.929368
v -1.850000 0.992656 -2.896361
v -1.850000 0.971363 -2.938153
v -1.896361 0.992656 -2.850000
v -1.897590 0.983958 -2.897858
v -1.896039 0.963857 -2.936122
v -1.938153 0.971363 -2.850000
v -1.936198 0.963751 -2.896158
v -1.929368 0.949506 -2.929368
v -1.850000 -1.000000 -2.850000
v -2.000000 -0.850000 -2.850000
v -1.850000 -0.850000 -3.000000
v -1.896361 -0.992656 -2.850000
v -1.938153 -0.971363 -2.850000
v -1.850000 -0.992656 -2.896361
v -1.897858 -0.983958 -2.897590
v -1.936122 -0.963857 -2.896039
v -1.850000 -0.971363 -2.938153
v -1.896158 -0.963751 -2.936198
v -1.929368 -0.949506 -2.929368
v -1.992656 -0.850000 -2.896361
v -1.971363 -0.850000 -2.938153
v -1.992656 -0.896361 -2.850000
v -1.983958 -0.897590 -2.897858
v -1.963857 -0.896039 -2.936122
v -1.971363 -0.938153 -2.850000
v -1.963751 -0.936198 -2.896158
v -1.949506 -0.929368 -2.929368
v -1.850000 -0.896361 -2.992656
v -1.850000 -0.938153 -2.971363
v -1.896361 -0.850000 -2.992656
v -1.897590 -0.897858 -2.983958
v -1.896039 -0.936122 -2.963857
v -1.938153 -0.850000 -2.971363
v -1.936198 -0.896158 -2.963751
v -1.929368 -0.929368 -2.949506
v 2.000000 0.850000 -0.850000
v 1.850000 0.850000 -1.000000
v 1.850000 1.000000 -0.850000
v 1.992656 0.850000 -0.896361
v 1.971363 0.850000 -0.938153
v 1.992656 0.896361 -0.850000
v 1.983958 0.897590 -0.897858
v 1.963857 0.896039 -0.936122
v 1.971363 0.938153 -0.850000
v 1.963751 0.936198 -0.896158
v 1.949506 0.929368 -0.929368
v 1.850000 0.896361 -0.992656
v 1.850000 0.938153 -0.971363
v 1.896361 0.850000 -0.992656
v 1.897590 0.897858 -0.983958
v 1.896039 0.936122 -0.963857
v 1.938153 0.850000 -0.971363
v 1.936198 0.896158 -0.963751
v 1.929368 0.929368 -0.949506
v 1.896361 0.992656 -0.850000
v 1.938153 0.971363 -0.850000
v 1.850000 0.992656 -0.896361
v 1.897858 0.983958 -0.897590
v 1.936122 0.963857 -0.896039
v 1.850000 0.971363 -0.938153
v 1.896158 0.963751 -0.936198
v 1.929368 0.949506 -0.929368
v 1.850000 -0.850000 -1.000000
v 2.000000 -0.850000 -0.850000
v 1.850000 -1.000000 -0.850000
v 1.896361 -0.850000 -0.992656
v 1.938153 -0.850000 -0.971363
v 1.850000 -0.896361 -0.992656
v 1.897858 -0.897590 -0.983958
v 1.936122 -0.896039 -0.963857
v 1.850000 -0.938153 -0.971363
v 1.896158 -0.936198 -0.963751
v 1.929368 -0.929368 -0.949506
v 1.992656 -0.896361 -0.850000
v 1.971363 -0.938153 -0.850000
v 1.992656 -0.850000 -0.896361
v 1.983958 -0.897858 -0.897590
v 1.963857 -0.936122 -0.896039
v 1.971363 -0.850000 -0.938153
v 1.963751 -0.896158 -0.936198
v 1.949506 -0.929368 -0.929368
v 1.850000 -0.992656 -0.896361
v 1.850000 -0.971363 -0.938153
v 1.896361 -0.992656 -0.850000
v 1.897590 -0.983958 -0.897858
v 1.896039 -0.963857 -0.936122
v 1.938153 -0.971363 -0.850000
v 1.936198 -0.963751 -0.896158
v 1.929368 -0.949506 -0.929368
v 1.850000 1.000000 1.000000
v 2.000000 0.850000 1.000000
v 1.896353 0.992658 1.000000
v 1.938168 0.971353 1.000000
v 1.971353 0.938168 1.000000
v 1.992658 0.896353 1.000000
v 2.000000 -0.850000 1.000000
v 1.850000 -1.000000 1.000000
v 1.992658 -0.896353 1.000000
v 1.971353 -0.938168 1.000000
v 1.938168 -0.971353 1.000000
v 1.896353 -0.992658 1.000000
v 2.000000 0.850000 2.850000
v 1.850000 1.000000 2.850000
v 1.850000 0.850000 3.000000
v 1.992656 0.896361 2.850000
v 1.971363 0.938153 2.850000
v 1.992656 0.850000 2.896361
v 1.983958 0.897858 2.897590
v 1.963857 0.936122 2.896039
v 1.971363 0.850000 2.938153
v 1.963751 0.896158 2.936198
v 1.949506 0.929368 2.929368
v 1.850000 0.992656 2.896361
v 1.850000 0.971363 2.938153
v 1.896361 0.992656 2.850000
v 1.897590 0.983958 2.897858
v 1.896039 0.963857 2.936122
v 1.938153 0.971363 2.850000
v 1.936198 0.963751 2.896158
v 1.929368 0.949506 2.929368
v 1.896361 0.850000 2.992656
v 1.938153 0.850000 2.971363
v 1.850000 0.896361 2.992656
v 1.897858 0.897590 2.983958
v 1.936122 0.896039 2.963857
v 1.850000 0.938153 2.971363
v 1.896158 0.936198 2.963751
v 1.929368 0.929368 2.949506
v 1.850000 -1.000000 2.850000
v 2.000000 -0.850000 2.850000
v 1.850000 -0.850000 3.000000
v 1.896361 -0.992656 2.850000
v 1.938153 -0.971363 2.850000
v 1.850000 -0.992656 2.896361
v 1.897858 -0.983958 2.897590
v 1.936122 -0.963857 2.896039
v 1.850000 -0.971363 2.938153
v 1.896158 -0.963751 2.936198
v 1.929368 -0.949506 2.929368
v 1.992656 -0.850000 2.896361
v 1.971363 -0.850000 2.938153
v 1.992656 -0.896361 2.850000
v 1.983958 -0.897590 2.897858
v 1.963857 -0.896039 2.936122
v 1.971363 -0.938153 2.850000
v 1.963751 -0.936198 2.896158
v 1.949506 -0.929368 2.929368
v 1.850000 -0.896361 2.992656
v 1.850000 -0.938153 2.971363
v 1.896361 -0.850000 2.992656
v 1.897590 -0.897858 2.983958
v 1.896039 -0.936122 2.963857
v 1.938153 -0.850000 2.971363
v 1.936198 -0.896158 2.963751
v 1.929368 -0.929368 2.949506
v 0.000000 0.850000 2.850000
v 0.150000 0.850000 3.000000
v 0.150000 1.000000 2.850000
v 0.007344 0.850000 2.896361
v 0.028637 0.850000 2.938153
v 0.007344 0.896361 2.850000
v 0.016042 0.897590 2.897858
v 0.036143 0.896039 2.936122
v 0.028637 0.938153 2.850000
v 0.036249 0.936198 2.896158
v 0.050494 0.929368 2.929368
v 0.150000 0.896361 2.992656
v 0.150000 0.938153 2.971363
v 0.103639 0.850000 2.992656
v 0.102410 0.897858 2.983958
v 0.103961 0.936122 2.963857
v 0.061847 0.850000 2.971363
v 0.063802 0.896158 2.963751
v 0.070632 0.929368 2.949506
v 0.103639 0.992656 2.850000
v 0.061847 0.971363 2.850000
v 0.150000 0.992656 2.896361
v 0.102142 0.983958 2.897590
v 0.063878 0.963857 2.896039
v 0.150000 0.971363 2.938153
v 0.103842 0.963751 2.936198
v 0.070632 0.949506 2.929368
v 0.150000 -1.000000 2.850000
v 0.150000 -0.850000 3.000000
v 0.000000 -0.850000 2.850000
v 0.150000 -0.992656 2.896361
v 0.150000 -0.971363 2.938153
v 0.103639 -0.992656 2.850000
v 0.102410 -0.983958 2.897858
v 0.103961 -0.963857 2.936122
v 0.061847 -0.971363 2.850000
v 0.063802 -0.963751 2.896158
v 0.070632 -0.949506 2.929368
v 0.103639 -0.850000 2.992656
v 0.061847 -0.850000 2.971363
v 0.150000 -0.896361 2.992656
v 0.102142 -0.897590 2.983958
v 0.063878 -0.896039 2.963857
v 0.150000 -0.938153 2.971363
v 0.103842 -0.936198 2.963751
v 0.070632 -0.929368 2.949506
v 0.007344 -0.896361 2.850000
v 0.028637 -0.938153 2.850000
v 0.007344 -0.850000 2.896361
v 0.016042 -0.897858 2.897590
v 0.036143 -0.936122 2.896039
v 0.028637 -0.850000 2.938153
v 0.036249 -0.896158 2.936198
v 0.050494 -0.929368 2.929368
vn 0.9166 0.3504 -0.1923
vn 0.6706 0.6814 -0.2934
vn 0.2610 0.8941 -0.3639
vn 0.7846 0.4723 -0.4018
vn 0.6420 0.6419 -0.4192
vn 0.3421 0.8356 -0.4298
vn 0.1189 0.9857 -0.1190
vn 0.2459 0.9585 -0.1444
vn 0.3687 0.8922 -0.2610
vn 0.1473 0.9576 -0.2476
vn 0.2417 0.9335 -0.2647
vn 0.4389 0.8324 -0.3384
vn 0.1757 0.3490 -0.9205
vn 0.4078 0.4922 -0.7691
vn 0.6042 0.5264 -0.5981
vn 0.2726 0.6587 -0.7012
vn 0.4432 0.6420 -0.6256
vn 0.5571 0.6239 -0.5480
vn 0.4496 0.7718 -0.4496
vn 0.9205 -0.3490 -0.1757
vn 0.7691 -0.4922 -0.4078
vn 0.5981 -0.5264 -0.6042
vn 0.7012 -0.6588 -0.2726
vn 0.6256 -0.6420 -0.4432
vn 0.5480 -0.6239 -0.5571
vn 0.1923 -0.3504 -0.9166
vn 0.2934 -0.6814 -0.6706
vn 0.3639 -0.8941 -0.2610
vn 0.4018 -0.4723 -0.7846
vn 0.4192 -0.6419 -0.6420
vn 0.4298 -0.8356 -0.3421
vn 0.1190 -0.9857 -0.1190
vn 0.1444 -0.9585 -0.2459
vn 0.2610 -0.8922 -0.3687
vn 0.2476 -0.9576 -0.1473
vn 0.2647 -0.9335 -0.2417
vn 0.3384 -0.8324 -0.4389
vn 0.4496 -0.7718 -0.4496
vn -0.1757 0.3490 0.9205
vn -0.4078 0.4922 0.7691
vn -0.6042 0.5264 0.5981
vn -0.2726 0.6588 0.7012
vn -0.4432 0.6420 0.6256
vn -0.5571 0.6239 0.5480
vn -0.9166 0.3504 0.1923
vn -0.6706 0.6814 0.2934
vn -0.2610 0.8941 0.3639
vn -0.7846 0.4723 0.4018
vn -0.6420 0.6419 0.4192
vn -0.3421 0.8356 0.4298
vn -0.1190 0.9857 0.1189
vn -0.2459 0.9585 0.1444
vn -0.3687 0.8922 0.2610
vn -0.1473 0.9576 0.2476
vn -0.2417 0.9335 0.2647
vn -0.4389 0.8324 0.3384
vn -0.4496 0.7718 0.4496
vn -0.1190 -0.9857 0.1189
vn -0.1444 -0.9585 0.2459
vn -0.2610 -0.8922 0.3687
vn -0.2476 -0.9576 0.1473
vn -0.2647 -0.9335 0.2417
vn -0.3384 -0.8324 0.4389
vn -0.9205 -0.3490 0.1757
vn -0.7691 -0.4922 0.4078
vn -0.5981 -0.5264 0.6042
vn -0.7012 -0.6588 0.2726
vn -0.6256 -0.6420 0.4432
vn -0.5480 -0.6239 0.5571
vn -0.1923 -0.3504 0.9166
vn -0.2934 -0.6814 0.6706
vn -0.3639 -0.8941 0.2610
vn -0.4018 -0.4723 0.7846
vn -0.4192 -0.6419 0.6420
vn -0.4298 -0.8356 0.3421
vn -0.4496 -0.7718 0.4496
vn -0.9729 0.1635 0.1635
vn -0.8764 0.1543 0.4562
vn -0.6996 0.1450 0.6997
vn -0.8764 0.4557 0.1556
vn -0.7924 0.4313 0.4314
vn -0.6456 0.4090 0.6449
vn -0.1635 0.1635 0.9729
vn -0.1543 0.4562 0.8764
vn -0.1450 0.6997 0.6996
vn -0.4557 0.1556 0.8764
vn -0.4313 0.4314 0.7924
vn -0.4090 0.6449 0.6456
vn -0.1635 0.9729 0.1635
vn -0.4562 0.8764 0.1543
vn -0.6997 0.6996 0.1450
vn -0.1556 0.8764 0.4557
vn -0.4314 0.7924 0.4313
vn -0.6449 0.6456 0.4090
vn -0.5774 0.5774 0.5774
vn -0.1635 -0.9729 0.1635
vn -0.1543 -0.8764 0.4562
vn -0.1450 -0.6996 0.6997
vn -0.4557 -0.8764 0.1556
vn -0.4313 -0.7924 0.4314
vn -0.4090 -0.6456 0.6449
vn -0.1635 -0.1635 0.9729
vn -0.4562 -0.1543 0.8764
vn -0.6997 -0.1450 0.6996
vn -0.1556 -0.4557 0.8764
vn -0.4314 -0.4313 0.7924
vn -0.6449 -0.4090 0.6456
vn -0.9729 -0.1635 0.1635
vn -0.8764 -0.4562 0.1543
vn -0.6996 -0.6997 0.1450
vn -0.8764 -0.1556 0.4557
vn -0.7924 -0.4314 0.4313
vn -0.6456 -0.6449 0.4090
vn -0.5774 -0.5774 0.5774
vn 0.9729 0.1635 -0.1635
vn 0.8764 0.1543 -0.4562
vn 0.6996 0.1450 -0.6997
vn 0.8764 0.4557 -0.1556
vn 0.7924 0.4313 -0.4314
vn 0.6456 0.4090 -0.6449
vn 0.1635 0.1635 -0.9729
vn 0.1543 0.4562 -0.8764
vn 0.1450 0.6997 -0.6996
vn 0.4557 0.1556 -0.8764
vn 0.4313 0.4314 -0.7924
vn 0.4090 0.6449 -0.6456
vn 0.1635 0.9729 -0.1635
vn 0.4562 0.8764 -0.1543
vn 0.6997 0.6996 -0.1450
vn 0.1556 0.8764 -0.4557
vn 0.4314 0.7924 -0.4313
vn 0.6449 0.6456 -0.4090
vn 0.5774 0.5773 -0.5774
vn 0.1635 -0.1635 -0.9729
vn 0.4562 -0.1543 -0.8764
vn 0.6997 -0.1450 -0.6996
vn 0.1556 -0.4557 -0.8764
vn 0.4314 -0.4313 -0.7924
vn 0.6449 -0.4090 -0.6456
vn 0.9729 -0.1635 -0.1635
vn 0.8764 -0.4562 -0.1543
vn 0.6996 -0.6997 -0.1450
vn 0.8764 -0.1556 -0.4557
vn 0.7924 -0.4314 -0.4313
vn 0.6456 -0.6449 -0.4090
vn 0.1635 -0.9729 -0.1635
vn 0.1543 -0.8764 -0.4562
vn 0.1450 -0.6996 -0.6997
vn 0.4557 -0.8764 -0.1556
vn 0.4314 -0.7924 -0.4314
vn 0.4090 -0.6456 -0.6449
vn 0.5774 -0.5773 -0.5774
vn -0.1635 0.1635 -0.9729
vn -0.4562 0.1543 -0.8764
vn -0.6997 0.1450 -0.6996
vn -0.1556 0.4557 -0.8764
vn -0.4314 0.4313 -0.7924
vn -0.6449 0.4090 -0.6456
vn -0.9729 0.1635 -0.1635
vn -0.8764 0.4562 -0.1543
vn -0.6996 0.6997 -0.1450
vn -0.8764 0.1556 -0.4557
vn -0.7924 0.4314 -0.4313
vn -0.6456 0.6449 -0.4090
vn -0.1635 0.9729 -0.1635
vn -0.1543 0.8764 -0.4562
vn -0.1450 0.6996 -0.6997
vn -0.4557 0.8764 -0.1556
vn -0.4314 0.7924 -0.4314
vn -0.4090 0.6456 -0.6449
vn -0.5774 0.5773 -0.5774
vn -0.1635 -0.9729 -0.1635
vn -0.4562 -0.8764 -0.1543
vn -0.6997 -0.6996 -0.1450
vn -0.1556 -0.8764 -0.4557
vn -0.4314 -0.7924 -0.4313
vn -0.6449 -0.6456 -0.4090
vn -0.9729 -0.1635 -0.1635
vn -0.8764 -0.1543 -0.4562
vn -0.6996 -0.1450 -0.6997
vn -0.8764 -0.4557 -0.1556
vn -0.7924 -0.4313 -0.4314
vn -0.6456 -0.4090 -0.6449
vn -0.1635 -0.1635 -0.9729
vn -0.1543 -0.4562 -0.8764
vn -0.1450 -0.6997 -0.6996
vn -0.4557 -0.1556 -0.8764
vn -0.4313 -0.4314 -0.7924
vn -0.4090 -0.6449 -0.6456
vn -0.5774 -0.5773 -0.5774
vn 0.5774 0.5774 -0.5773
vn 0.4314 -0.4314 -0.7924
vn 0.4313 -0.7924 -0.4314
vn 0.5774 -0.5774 -0.5773
vn 0.9729 0.1635 0.1635
vn 0.8764 0.4562 0.1543
vn 0.6996 0.6997 0.1450
vn 0.8764 0.1556 0.4557
vn 0.7924 0.4314 0.4313
vn 0.6456 0.6449 0.4090
vn 0.1635 0.9729 0.1635
vn 0.1543 0.8764 0.4561
vn 0.1450 0.6996 0.6997
vn 0.4557 0.8764 0.1556
vn 0.4313 0.7924 0.4314
vn 0.4090 0.6456 0.6449
vn 0.1635 0.1635 0.9729
vn 0.4562 0.1543 0.8764
vn 0.6997 0.1450 0.6996
vn 0.1556 0.4557 0.8764
vn 0.4314 0.4313 0.7924
vn 0.6449 0.4090 0.6456
vn 0.5774 0.5773 0.5773
vn 0.1635 -0.9729 0.1635
vn 0.4562 -0.8764 0.1543
vn 0.6997 -0.6996 0.1450
vn 0.1556 -0.8764 0.4557
vn 0.4314 -0.7924 0.4313
vn 0.6449 -0.6456 0.4090
vn 0.9729 -0.1635 0.1635
vn 0.8764 -0.1543 0.4562
vn 0.6996 -0.1450 0.6997
vn 0.8764 -0.4557 0.1556
vn 0.7924 -0.4313 0.4314
vn 0.6456 -0.4090 0.6449
vn 0.1635 -0.1635 0.9729
vn 0.1543 -0.4562 0.8764
vn 0.1450 -0.6997 0.6996
vn 0.4557 -0.1556 0.8764
vn 0.4313 -0.4314 0.7924
vn 0.4090 -0.6449 0.6456
vn 0.5774 -0.5773 0.5773
vn -0.4314 0.4314 0.7924
vn -0.5774 0.5773 0.5774
vn -0.5774 -0.5773 0.5774
vn -0.9877 0.1564 -0.0000
vn -0.8910 0.4540 -0.0000
vn -0.7071 0.7071 -0.0000
vn -0.4540 0.8910 -0.0000
vn -0.1564 0.9877 -0.0000
vn 0.0002 0.9866 0.1634
vn 0.0003 0.8923 0.4515
vn 0.0002 0.7070 0.7072
vn 0.0003 0.4511 0.8925
vn 0.0002 0.1632 0.9866
vn 0.0002 -0.1632 0.9866
vn 0.0003 -0.4511 0.8925
vn 0.0002 -0.7070 0.7072
vn 0.0003 -0.8923 0.4515
vn 0.0002 -0.9866 0.1634
vn -0.1709 -0.0000 0.9853
vn -0.4496 -0.0000 0.8932
vn -0.7071 -0.0000 0.7071
vn -0.8932 -0.0000 0.4496
vn -0.9853 -0.0000 0.1709
vn -0.9877 -0.0000 0.1565
vn -0.8910 -0.0000 0.4540
vn -0.4540 -0.0000 0.8910
vn -0.1565 -0.0000 0.9877
vn -0.1564 -0.9877 -0.0000
vn -0.4540 -0.8910 -0.0000
vn -0.7071 -0.7071 -0.0000
vn -0.8910 -0.4540 -0.0000
vn -0.9877 -0.1564 -0.0000
vn 0.9866 0.1632 0.0002
vn 0.8925 0.4511 0.0003
vn 0.7072 0.7070 0.0002
vn 0.4515 0.8923 0.0003
vn 0.1634 0.9866 0.0002
vn -0.0000 0.1565 -0.9877
vn -0.0000 0.4540 -0.8910
vn -0.0000 0.7071 -0.7071
vn -0.0000 0.8910 -0.4540
vn -0.0000 0.9877 -0.1565
vn -0.1565 -0.0000 -0.9877
vn -0.4540 -0.0000 -0.8910
vn -0.7071 -0.0000 -0.7071
vn -0.8910 -0.0000 -0.4540
vn -0.9877 -0.0000 -0.1565
vn -0.0000 -0.9877 -0.1565
vn -0.0000 -0.8910 -0.4540
vn -0.0000 -0.7071 -0.7071
vn -0.0000 -0.4540 -0.8910
vn -0.0000 -0.1565 -0.9877
vn 0.1634 -0.9866 0.0002
vn 0.4515 -0.8923 0.0003
vn 0.7072 -0.7070 0.0002
vn 0.8925 -0.4511 0.0003
vn 0.9866 -0.1632 0.0002
vn 0.9877 -0.0000 -0.1565
vn 0.8910 -0.0000 -0.4540
vn 0.7071 -0.0000 -0.7071
vn 0.4540 -0.0000 -0.8910
vn 0.1565 -0.0000 -0.9877
vn 0.1709 -0.0000 -0.9853
vn 0.4496 -0.0000 -0.8932
vn 0.8932 -0.0000 -0.4496
vn 0.9853 -0.0000 -0.1709
vn 0.1564 0.9877 -0.0000
vn 0.4540 0.8910 -0.0000
vn 0.7071 0.7071 -0.0000
vn 0.8910 0.4540 -0.0000
vn 0.9877 0.1564 -0.0000
vn -0.0002 0.9866 -0.1634
vn -0.0003 0.8923 -0.4515
vn -0.0002 0.7070 -0.7072
vn -0.0003 0.4511 -0.8925
vn -0.0002 0.1632 -0.9866
vn -0.0002 -0.1632 -0.9866
vn -0.0003 -0.4511 -0.8925
vn -0.0002 -0.7070 -0.7072
vn -0.0003 -0.8923 -0.4515
vn -0.0002 -0.9866 -0.1634
vn 0.9877 -0.1564 -0.0000
vn 0.8910 -0.4540 -0.0000
vn 0.7071 -0.7071 -0.0000
vn 0.4540 -0.8910 -0.0000
vn 0.1564 -0.9877 -0.0000
vn -0.9866 0.1632 -0.0002
vn -0.8925 0.4511 -0.0003
vn -0.7072 0.7070 -0.0002
vn -0.4515 0.8923 -0.0003
vn -0.1634 0.9866 -0.0002
vn -0.0000 0.9877 0.1565
vn -0.0000 0.8910 0.4540
vn -0.0000 0.7071 0.7071
vn -0.0000 0.4540 0.8910
vn -0.0000 0.1565 0.9877
vn -0.0000 -0.1565 0.9877
vn -0.0000 -0.4540 0.8910
vn -0.0000 -0.7071 0.7071
vn -0.0000 -0.8910 0.4540
vn -0.0000 -0.9877 0.1565
vn 0.1565 -0.0000 0.9877
vn 0.4540 -0.0000 0.8910
vn 0.7071 -0.0000 0.7071
vn 0.8910 -0.0000 0.4540
vn 0.9877 -0.0000 0.1565
vn -0.1634 -0.9866 -0.0002
vn -0.4515 -0.8923 -0.0003
vn -0.7072 -0.7070 -0.0002
vn -0.8925 -0.4511 -0.0003
vn -0.9866 -0.1632 -0.0002
vn -0.0000 1.0000 -0.0000
vn 1.0000 -0.0000 -0.0000
vn -0.0000 -0.0000 -1.0000
vn -0.0000 -1.0000 -0.0000
vn -0.0000 -0.0000 1.0000
vn -1.0000 -0.0000 -0.0000
vt 0.606250 0.731250
vt 0.611990 0.737982
vt 0.611911 0.741976
vt 0.606250 0.737018
vt 0.617231 0.745854
vt 0.616863 0.747283
vt 0.716102 0.670813
vt 0.879626 0.502692
vt 0.611807 0.745377
vt 0.606250 0.742235
vt 0.616257 0.748501
vt 0.747690 0.626501
vt 0.893750 0.518750
vt 0.887018 0.513010
vt 0.883043 0.507964
vt 0.888010 0.512018
vt 0.875000 0.500000
vt 0.625000 0.250000
vt 0.617231 0.254146
vt 0.616845 0.252685
vt 0.882769 0.504146
vt 0.876501 0.501501
vt 0.616257 0.250000
vt 0.618880 0.248499
vt 0.606250 0.268750
vt 0.606250 0.262982
vt 0.611879 0.257945
vt 0.611990 0.262018
vt 0.606250 0.250000
vt 0.611807 0.250000
vt 0.606250 0.750000
vt 0.611807 0.750000
vt 0.616257 0.750000
vt 0.393750 0.731250
vt 0.393750 0.737018
vt 0.388121 0.742055
vt 0.388010 0.737982
vt 0.393750 0.742235
vt 0.388193 0.745395
vt 0.393750 0.750000
vt 0.388193 0.750000
vt 0.383155 0.747315
vt 0.382769 0.745854
vt 0.381558 0.748501
vt 0.376000 0.750000
vt 0.393750 0.268750
vt 0.388010 0.262018
vt 0.388089 0.258024
vt 0.393750 0.262982
vt 0.375000 0.254146
vt 0.375000 0.252717
vt 0.379146 0.750000
vt 0.370854 0.757769
vt 0.372308 0.754626
vt 0.377717 0.750000
vt 0.388193 0.250000
vt 0.393750 0.250000
vt 0.375000 0.251500
vt 0.373499 0.751501
vt 0.356250 0.768750
vt 0.361990 0.762018
vt 0.367036 0.758043
vt 0.362982 0.763010
vt 0.367231 0.754146
vt 0.370393 0.752724
vt 0.606250 0.768750
vt 0.606250 0.762982
vt 0.611879 0.757945
vt 0.611990 0.762018
vt 0.606250 0.757765
vt 0.611807 0.754605
vt 0.611807 0.750000
vt 0.626343 0.751343
vt 0.627073 0.752073
vt 0.625750 0.750750
vt 0.625000 0.751000
vt 0.606250 0.231250
vt 0.611990 0.237982
vt 0.611911 0.241976
vt 0.606250 0.237018
vt 0.625000 0.245854
vt 0.625000 0.247283
vt 0.625000 0.754146
vt 0.617231 0.745854
vt 0.620374 0.747308
vt 0.625000 0.752717
vt 0.611807 0.250000
vt 0.625000 0.248500
vt 0.623499 0.748499
vt 0.606250 0.731250
vt 0.612982 0.736990
vt 0.616957 0.742036
vt 0.611990 0.737982
vt 0.620854 0.742231
vt 0.622276 0.745393
vt 0.143750 0.481250
vt 0.138010 0.487982
vt 0.132964 0.491957
vt 0.137018 0.486990
vt 0.132769 0.495854
vt 0.129607 0.497276
vt 0.125000 0.504146
vt 0.125000 0.502685
vt 0.125000 0.500000
vt 0.126501 0.498499
vt 0.124998 0.501499
vt 0.393750 0.231250
vt 0.393750 0.237018
vt 0.388121 0.242055
vt 0.388010 0.237982
vt 0.393750 0.757765
vt 0.388193 0.754623
vt 0.375000 0.247315
vt 0.375000 0.245854
vt 0.383743 0.248500
vt 0.381183 0.751125
vt 0.379371 0.750751
vt 0.393750 0.768750
vt 0.388010 0.762018
vt 0.388089 0.758024
vt 0.393750 0.762982
vt 0.377848 0.753109
vt 0.383137 0.752717
vt 0.377764 0.744821
vt 0.375000 0.750000
vt 0.378810 0.748499
vt 0.606250 0.018750
vt 0.606250 0.012955
vt 0.612199 0.012768
vt 0.612045 0.018750
vt 0.606250 0.007731
vt 0.612005 0.007985
vt 0.606250 0.000000
vt 0.612020 0.000000
vt 0.625000 0.012980
vt 0.625000 0.018750
vt 0.625000 0.008829
vt 0.625000 0.000000
vt 0.606250 0.981250
vt 0.612045 0.981250
vt 0.612232 0.987199
vt 0.606250 0.987045
vt 0.625000 0.981250
vt 0.625000 0.987005
vt 0.856250 0.750000
vt 0.856250 0.742269
vt 0.862020 0.742025
vt 0.862005 0.750000
vt 0.612020 1.000000
vt 0.606250 1.000000
vt 0.625000 0.991171
vt 0.866171 0.741171
vt 0.866171 0.750000
vt 0.856250 0.731250
vt 0.862045 0.731250
vt 0.862232 0.737199
vt 0.856250 0.737045
vt 0.867269 0.731250
vt 0.867015 0.737005
vt 0.875000 0.731250
vt 0.875000 0.737020
vt 0.875000 0.741171
vt 0.143750 0.731250
vt 0.143750 0.737045
vt 0.137801 0.737232
vt 0.137955 0.731250
vt 0.143750 0.742269
vt 0.137995 0.742015
vt 0.143750 0.750000
vt 0.137980 0.750000
vt 0.132975 0.737020
vt 0.132731 0.731250
vt 0.133829 0.741171
vt 0.133829 0.750000
vt 0.393750 0.981250
vt 0.393750 0.987045
vt 0.387801 0.987232
vt 0.387955 0.981250
vt 0.393750 1.000000
vt 0.387995 1.000000
vt 0.393750 0.000000
vt 0.393750 0.007731
vt 0.387980 0.007975
vt 0.387995 0.000000
vt 0.375000 0.987020
vt 0.375000 0.981250
vt 0.375000 0.991171
vt 0.375000 0.008829
vt 0.375000 0.000000
vt 0.393750 0.018750
vt 0.387955 0.018750
vt 0.387768 0.012801
vt 0.393750 0.012955
vt 0.375000 0.018750
vt 0.375000 0.012995
vt 0.125000 0.731250
vt 0.125000 0.737005
vt 0.125000 0.741171
vt 0.606250 0.518750
vt 0.606250 0.512955
vt 0.612199 0.512768
vt 0.612045 0.518750
vt 0.606250 0.507731
vt 0.612005 0.507985
vt 0.606250 0.492269
vt 0.612020 0.492025
vt 0.617025 0.512980
vt 0.617269 0.518750
vt 0.616171 0.505044
vt 0.616171 0.491171
vt 0.606250 0.481250
vt 0.612045 0.481250
vt 0.612232 0.487199
vt 0.606250 0.487045
vt 0.617269 0.481250
vt 0.617015 0.487005
vt 0.634375 0.490625
vt 0.631490 0.493510
vt 0.629415 0.495586
vt 0.643750 0.518750
vt 0.637955 0.518750
vt 0.637768 0.512801
vt 0.643750 0.512955
vt 0.632731 0.518750
vt 0.632985 0.512995
vt 0.393750 0.481250
vt 0.393750 0.487045
vt 0.387801 0.487232
vt 0.387955 0.481250
vt 0.393750 0.492269
vt 0.387995 0.492015
vt 0.393750 0.507731
vt 0.387980 0.507975
vt 0.368510 0.493510
vt 0.365625 0.490625
vt 0.370585 0.495586
vt 0.380044 0.508829
vt 0.393750 0.518750
vt 0.387955 0.518750
vt 0.387768 0.512801
vt 0.393750 0.512955
vt 0.382731 0.518750
vt 0.382985 0.512995
vt 0.367269 0.518750
vt 0.367025 0.512980
vt 0.366171 0.508829
vt 0.356250 0.518750
vt 0.356250 0.512955
vt 0.362199 0.512768
vt 0.362045 0.518750
vt 0.356250 0.507731
vt 0.362005 0.507985
vt 0.606250 0.262955
vt 0.612199 0.262768
vt 0.612045 0.268750
vt 0.606250 0.257731
vt 0.612005 0.257985
vt 0.606250 0.242269
vt 0.612020 0.242025
vt 0.617025 0.262980
vt 0.617269 0.268750
vt 0.616171 0.255044
vt 0.616171 0.241171
vt 0.606250 0.231250
vt 0.612045 0.231250
vt 0.612232 0.237199
vt 0.606250 0.237045
vt 0.617269 0.231250
vt 0.617015 0.237005
vt 0.625000 0.231250
vt 0.625000 0.237020
vt 0.625000 0.244114
vt 0.856250 0.518750
vt 0.856250 0.512955
vt 0.862199 0.512768
vt 0.862045 0.518750
vt 0.856250 0.500000
vt 0.862005 0.500000
vt 0.625000 0.268750
vt 0.625000 0.262995
vt 0.875000 0.512980
vt 0.875000 0.518750
vt 0.875000 0.508829
vt 0.143750 0.518750
vt 0.137955 0.518750
vt 0.137768 0.512801
vt 0.143750 0.512955
vt 0.132731 0.518750
vt 0.132985 0.512995
vt 0.125000 0.518750
vt 0.125000 0.512980
vt 0.137980 0.507975
vt 0.143750 0.507731
vt 0.133829 0.508829
vt 0.125000 0.508829
vt 0.393750 0.231250
vt 0.393750 0.237045
vt 0.387801 0.237232
vt 0.387955 0.231250
vt 0.393750 0.242269
vt 0.387995 0.242015
vt 0.393750 0.257731
vt 0.387980 0.257975
vt 0.375000 0.237020
vt 0.375000 0.231250
vt 0.375000 0.241171
vt 0.375000 0.258829
vt 0.387955 0.268750
vt 0.387768 0.262801
vt 0.393750 0.262955
vt 0.375000 0.268750
vt 0.375000 0.262995
vt 0.143750 0.500000
vt 0.137995 0.500000
vt 0.133829 0.500000
vt 0.606250 0.518750
vt 0.606250 0.512955
vt 0.612045 0.518750
vt 0.606250 0.507731
vt 0.612020 0.492025
vt 0.617269 0.518750
vt 0.606250 0.481250
vt 0.612045 0.481250
vt 0.612232 0.487199
vt 0.606250 0.487045
vt 0.617015 0.487005
vt 0.634375 0.490625
vt 0.643750 0.518750
vt 0.637768 0.512801
vt 0.643750 0.512955
vt 0.632985 0.512995
vt 0.393750 0.481250
vt 0.393750 0.487045
vt 0.387801 0.487232
vt 0.387955 0.481250
vt 0.393750 0.492269
vt 0.393750 0.507731
vt 0.387980 0.507975
vt 0.368510 0.493510
vt 0.365625 0.490625
vt 0.380044 0.508829
vt 0.393750 0.518750
vt 0.387955 0.518750
vt 0.387768 0.512801
vt 0.382985 0.512995
vt 0.367269 0.518750
vt 0.367025 0.512980
vt 0.356250 0.512955
vt 0.362199 0.512768
vt 0.362045 0.518750
vt 0.362005 0.507985
vt 0.606250 0.731250
vt 0.612045 0.731250
vt 0.612232 0.737199
vt 0.606250 0.737045
vt 0.617269 0.731250
vt 0.617015 0.737005
vt 0.632731 0.731250
vt 0.632975 0.737020
vt 0.612020 0.742025
vt 0.606250 0.742269
vt 0.616171 0.744956
vt 0.629415 0.754414
vt 0.643750 0.731250
vt 0.643750 0.737045
vt 0.637801 0.737232
vt 0.637955 0.731250
vt 0.634375 0.759375
vt 0.631498 0.756498
vt 0.617269 0.768750
vt 0.617025 0.762980
vt 0.616171 0.758829
vt 0.606250 0.768750
vt 0.606250 0.762955
vt 0.612199 0.762768
vt 0.612045 0.768750
vt 0.606250 0.757731
vt 0.612005 0.757985
vt 0.356250 0.731250
vt 0.362045 0.731250
vt 0.362232 0.737199
vt 0.356250 0.737045
vt 0.367269 0.731250
vt 0.367015 0.737005
vt 0.382731 0.731250
vt 0.382975 0.737020
vt 0.362020 0.742025
vt 0.356250 0.742269
vt 0.366171 0.741171
vt 0.380044 0.741171
vt 0.393750 0.731250
vt 0.393750 0.737045
vt 0.387801 0.737232
vt 0.387955 0.731250
vt 0.393750 0.742269
vt 0.387995 0.742015
vt 0.393750 0.757731
vt 0.387980 0.757975
vt 0.370585 0.754415
vt 0.393750 0.768750
vt 0.387955 0.768750
vt 0.387768 0.762801
vt 0.393750 0.762955
vt 0.365625 0.759375
vt 0.368502 0.756498
vt 0.606250 0.018750
vt 0.606250 0.012955
vt 0.612199 0.012768
vt 0.612045 0.018750
vt 0.612005 0.000000
vt 0.606250 0.992269
vt 0.612020 0.992025
vt 0.612005 1.000000
vt 0.625000 0.018750
vt 0.616171 0.000000
vt 0.616171 0.991171
vt 0.616171 1.000000
vt 0.612045 0.981250
vt 0.612232 0.987199
vt 0.606250 0.987045
vt 0.617269 0.981250
vt 0.617015 0.987005
vt 0.625000 0.987020
vt 0.625000 0.991171
vt 0.856250 0.731250
vt 0.862045 0.731250
vt 0.862232 0.737199
vt 0.856250 0.737045
vt 0.867269 0.731250
vt 0.867015 0.737005
vt 0.875000 0.731250
vt 0.862020 0.750000
vt 0.856250 0.750000
vt 0.875000 0.750000
vt 0.143750 0.731250
vt 0.137801 0.737232
vt 0.137955 0.731250
vt 0.143750 0.742269
vt 0.387801 0.987232
vt 0.393750 0.992269
vt 0.387995 0.992015
vt 0.387980 1.000000
vt 0.375000 1.000000
vt 0.393750 0.018750
vt 0.387955 0.018750
vt 0.387768 0.012801
vt 0.393750 0.012955
vt 0.375000 0.018750
vt 0.375000 0.012995
vt 0.125000 0.731250
vt 0.387980 0.000000
vt 0.612044 0.250000
vt 0.867271 0.500000
vt 0.862044 0.500000
vt 0.387018 0.736990
vt 0.137956 0.500000
vt 0.132729 0.500000
vt 0.375000 0.250000
vt 0.387956 0.250000
vt 0.638010 0.762018
vt 0.643750 0.768750
vt 0.862044 0.750000
vt 0.617271 0.000000
vt 0.612044 0.000000
vt 0.387956 0.000000
vt 0.125000 0.750000
vt 0.132729 0.750000
vt 0.137956 0.750000
vt 0.643750 0.750000
vt 0.637956 0.750000
vt 0.632729 0.750000
vt 0.617271 0.750000
vt 0.612044 0.750000
vt 0.129146 0.500000
vt 0.120854 0.507769
vt 0.112982 0.513010
vt 0.106250 0.518750
vt 0.387956 0.750000
vt 0.382729 0.750000
vt 0.367271 0.750000
vt 0.362044 0.750000
vt 0.356250 0.750000
vt 0.643750 0.500000
vt 0.637956 0.500000
vt 0.632729 0.500000
vt 0.617271 0.500000
vt 0.612044 0.500000
vt 0.606250 0.500000
vt 0.875000 0.504146
vt 0.867231 0.495854
vt 0.861990 0.487982
vt 0.856250 0.481250
vt 0.393750 0.500000
vt 0.387956 0.500000
vt 0.382729 0.500000
vt 0.367271 0.500000
vt 0.362044 0.500000
vt 0.356250 0.500000
s 0
usemtl Material
f 55/66/39 58/67/39 61/68/39 60/69/39
f 58/67/40 59/70/40 62/71/40 61/68/40
f 59/70/41 71/31/41 72/72/41 62/71/41
f 60/69/42 61/68/42 64/73/42 63/74/42
f 61/68/43 62/71/43 65/75/43 64/73/43
f 62/71/44 72/72/44 73/76/44 65/75/44
f 67/83/47 79/84/47 80/85/47 70/86/47
f 70/86/50 80/85/50 81/89/50 73/76/50
f 57/90/51 74/91/51 77/92/51 76/93/51
f 74/91/52 75/94/52 78/95/52 77/92/52
f 75/94/53 63/74/53 64/73/53 78/95/53
f 76/93/54 77/92/54 80/85/54 79/84/54
f 77/92/55 78/95/55 81/89/55 80/85/55
f 78/95/56 64/73/56 65/75/56 81/89/56
f 65/75/57 73/76/57 81/89/57
f 94/40/66 106/111/66 107/112/66 97/41/66
f 97/41/69 107/112/69 108/116/69 100/117/69
f 84/118/70 101/119/70 104/120/70 103/121/70
f 101/119/71 102/122/71 105/123/71 104/120/71
f 102/122/72 90/124/72 91/125/72 105/123/72
f 103/121/73 104/120/73 107/112/73 106/111/73
f 104/120/74 105/123/74 108/116/74 107/112/74
f 105/123/75 91/125/75 92/126/75 108/116/75
f 92/126/76 100/117/76 108/116/76
f 121/127/77 124/128/77 127/129/77 126/130/77
f 124/128/78 125/131/78 128/132/78 127/129/78
f 125/131/79 137/133/79 138/134/79 128/132/79
f 126/130/80 127/129/80 130/135/80 129/136/80
f 127/129/81 128/132/81 131/137/81 130/135/81
f 128/132/82 138/134/82 139/138/82 131/137/82
f 122/139/83 132/140/83 135/141/83 134/142/83
f 132/140/84 133/143/84 136/144/84 135/141/84
f 133/145/85 145/146/85 146/147/85 136/148/85
f 134/142/86 135/141/86 138/149/86 137/150/86
f 135/141/87 136/144/87 139/151/87 138/149/87
f 136/148/88 146/147/88 147/152/88 139/153/88
f 123/154/89 140/155/89 143/156/89 142/157/89
f 140/155/90 141/158/90 144/159/90 143/156/90
f 141/158/91 129/160/91 130/161/91 144/159/91
f 142/157/92 143/156/92 146/147/92 145/146/92
f 143/156/93 144/159/93 147/152/93 146/147/93
f 144/159/94 130/161/94 131/162/94 147/152/94
f 131/162/95 139/153/95 147/152/95
f 148/163/96 151/164/96 154/165/96 153/166/96
f 151/164/97 152/167/97 155/168/97 154/165/97
f 152/167/98 164/169/98 165/170/98 155/168/98
f 153/166/99 154/165/99 157/171/99 156/172/99
f 154/165/100 155/168/100 158/173/100 157/171/100
f 155/168/101 165/170/101 166/174/101 158/173/101
f 149/175/102 159/176/102 162/177/102 161/178/102
f 159/176/103 160/179/103 163/180/103 162/177/103
f 160/181/104 172/182/104 173/183/104 163/184/104
f 161/178/105 162/177/105 165/185/105 164/186/105
f 162/177/106 163/180/106 166/187/106 165/185/106
f 163/184/107 173/183/107 174/188/107 166/189/107
f 150/190/108 167/191/108 170/192/108 169/193/108
f 167/191/109 168/194/109 171/195/109 170/192/109
f 168/196/110 156/172/110 157/171/110 171/197/110
f 169/193/111 170/192/111 173/183/111 172/182/111
f 170/192/112 171/195/112 174/188/112 173/183/112
f 171/197/113 157/171/113 158/173/113 174/198/113
f 158/173/114 166/174/114 174/198/114
f 110/29/236 121/127/236 126/130/236 114/452/236
f 114/452/237 126/130/237 129/136/237 113/18/237
f 113/17/238 129/160/238 141/158/238 112/453/238
f 112/453/239 141/158/239 140/155/239 111/454/239
f 111/454/240 140/155/240 123/154/240 109/277/240
f 57/90/241 123/154/241 142/157/241 74/91/241
f 74/91/242 142/157/242 145/146/242 75/94/242
f 75/94/243 145/146/243 133/145/243 63/74/243
f 63/74/244 133/143/244 132/140/244 60/69/244
f 60/69/245 132/140/245 122/139/245 55/66/245
f 84/118/246 149/175/246 161/178/246 101/119/246
f 101/119/247 161/178/247 164/186/247 102/122/247
f 102/122/248 164/169/248 152/167/248 90/124/248
f 90/124/249 152/167/249 151/164/249 87/455/249
f 87/455/250 151/164/250 148/163/250 82/34/250
f 55/66/251 84/118/251 103/121/251 58/67/251
f 58/67/252 103/121/252 106/111/252 59/70/252
f 59/70/253 106/111/253 94/40/253 71/31/253
f 121/127/256 150/190/256 169/193/256 124/128/256
f 124/128/257 169/193/257 172/182/257 125/131/257
f 125/131/253 172/182/253 160/181/253 137/133/253
f 137/150/258 160/179/258 159/176/258 134/142/258
f 134/142/259 159/176/259 149/175/259 122/139/259
f 116/313/260 148/163/260 153/166/260 120/456/260
f 120/456/261 153/166/261 156/172/261 119/457/261
f 119/457/262 156/172/262 168/196/262 118/104/262
f 118/458/263 168/194/263 167/191/263 117/459/263
f 117/459/264 167/191/264 150/190/264 115/57/264
f 2/328/344 109/277/344 123/154/344 57/90/344
f 116/313/347 30/247/347 82/34/347 148/163/347
f 84/118/348 55/66/348 122/139/348 149/175/348
f 150/190/349 121/127/349 110/29/349 115/57/349
usemtl Material.001
f 1/1/1 4/2/1 7/3/1 6/4/1
f 4/2/2 5/5/2 8/6/2 7/3/2
f 5/5/3 17/7/3 18/8/3 8/6/3
f 6/4/4 7/3/4 10/9/4 9/10/4
f 7/3/5 8/6/5 11/11/5 10/9/5
f 8/6/6 18/8/6 19/12/6 11/11/6
f 21/31/15 9/10/15 10/9/15 24/32/15
f 24/32/18 10/9/18 11/11/18 27/33/18
f 11/11/19 19/12/19 27/33/19
f 28/34/20 31/35/20 34/36/20 33/37/20
f 31/35/21 32/38/21 35/39/21 34/36/21
f 32/38/22 44/40/22 45/41/22 35/39/22
f 33/37/23 34/36/23 37/42/23 36/43/23
f 34/36/24 35/39/24 38/44/24 37/42/24
f 35/39/25 45/41/25 46/45/25 38/44/25
f 40/52/28 52/53/28 53/54/28 43/55/28
f 43/55/31 53/54/31 54/59/31 46/45/31
f 30/60/32 47/61/32 50/62/32 49/63/32
f 47/61/33 48/64/33 51/65/33 50/62/33
f 48/64/34 36/43/34 37/42/34 51/65/34
f 49/63/35 50/62/35 53/54/35 52/53/35
f 50/62/36 51/65/36 54/59/36 53/54/36
f 51/65/37 37/42/37 38/44/37 54/59/37
f 38/44/38 46/45/38 54/59/38
f 175/199/115 178/200/115 181/201/115 180/202/115
f 178/200/116 179/203/116 182/204/116 181/201/116
f 179/203/117 191/205/117 192/206/117 182/204/117
f 180/202/118 181/201/118 184/207/118 183/208/118
f 181/201/119 182/204/119 185/209/119 184/207/119
f 182/204/120 192/206/120 193/210/120 185/209/120
f 176/211/121 186/212/121 189/213/121 188/214/121
f 186/212/122 187/215/122 190/216/122 189/213/122
f 187/215/123 199/217/123 200/218/123 190/216/123
f 188/214/124 189/213/124 192/206/124 191/205/124
f 189/213/125 190/216/125 193/210/125 192/206/125
f 190/216/126 200/218/126 201/219/126 193/210/126
f 177/220/127 194/221/127 197/222/127 196/223/127
f 194/221/128 195/224/128 198/225/128 197/222/128
f 195/224/129 183/208/129 184/207/129 198/225/129
f 196/223/130 197/222/130 200/218/130 199/217/130
f 197/222/131 198/225/131 201/219/131 200/218/131
f 198/225/132 184/207/132 185/209/132 201/219/132
f 185/209/133 193/210/133 201/219/133
f 202/226/134 205/227/134 208/228/134 207/229/134
f 205/227/135 206/230/135 209/231/135 208/228/135
f 206/230/136 218/232/136 219/233/136 209/231/136
f 207/229/137 208/228/137 211/234/137 210/235/137
f 208/228/138 209/231/138 212/236/138 211/234/138
f 209/231/139 219/233/139 220/237/139 212/236/139
f 203/238/140 213/239/140 216/240/140 215/241/140
f 213/239/141 214/242/141 217/243/141 216/240/141
f 214/242/142 226/244/142 227/245/142 217/243/142
f 215/241/143 216/240/143 219/233/143 218/232/143
f 216/240/144 217/243/144 220/237/144 219/233/144
f 217/243/145 227/245/145 228/246/145 220/237/145
f 204/247/146 221/248/146 224/249/146 223/250/146
f 221/248/147 222/251/147 225/252/147 224/249/147
f 222/251/148 210/235/148 211/234/148 225/252/148
f 223/250/149 224/249/149 227/245/149 226/244/149
f 224/249/150 225/252/150 228/246/150 227/245/150
f 225/252/151 211/234/151 212/236/151 228/246/151
f 212/236/152 220/237/152 228/246/152
f 229/25/153 232/253/153 235/254/153 234/255/153
f 232/253/154 233/256/154 236/257/154 235/254/154
f 233/256/155 245/258/155 246/259/155 236/257/155
f 234/255/156 235/254/156 238/260/156 237/261/156
f 235/254/157 236/257/157 239/262/157 238/260/157
f 236/257/158 246/259/158 247/263/158 239/262/158
f 230/264/159 240/265/159 243/266/159 242/267/159
f 240/265/160 241/268/160 244/269/160 243/266/160
f 241/268/161 253/270/161 254/271/161 244/269/161
f 242/267/162 243/266/162 246/259/162 245/258/162
f 243/266/163 244/269/163 247/263/163 246/259/163
f 244/269/164 254/271/164 255/272/164 247/263/164
f 231/273/165 248/274/165 251/275/165 250/276/165
f 248/274/166 249/277/166 252/278/166 251/275/166
f 249/279/167 237/261/167 238/260/167 252/280/167
f 250/276/168 251/275/168 254/281/168 253/282/168
f 251/275/169 252/278/169 255/283/169 254/281/169
f 252/280/170 238/260/170 239/262/170 255/272/170
f 239/262/171 247/263/171 255/272/171
f 256/284/172 259/285/172 262/286/172 261/287/172
f 259/285/173 260/288/173 263/289/173 262/286/173
f 260/288/174 272/290/174 273/291/174 263/289/174
f 261/287/175 262/286/175 265/292/175 264/293/175
f 262/286/176 263/289/176 266/294/176 265/292/176
f 263/289/177 273/291/177 274/295/177 266/294/177
f 257/296/178 267/297/178 270/298/178 269/299/178
f 267/297/179 268/300/179 271/301/179 270/298/179
f 268/300/180 280/302/180 281/303/180 271/301/180
f 269/299/181 270/298/181 273/304/181 272/305/181
f 270/298/182 271/301/182 274/306/182 273/304/182
f 271/301/183 281/303/183 282/307/183 274/306/183
f 258/46/184 275/308/184 278/309/184 277/310/184
f 275/308/185 276/311/185 279/312/185 278/309/185
f 276/313/186 264/293/186 265/292/186 279/314/186
f 277/310/187 278/309/187 281/303/187 280/302/187
f 278/309/188 279/312/188 282/307/188 281/303/188
f 279/314/189 265/292/189 266/294/189 282/315/189
f 266/294/190 274/295/190 282/315/190
f 1/1/265 175/199/265 180/202/265 4/2/265
f 4/2/266 180/202/266 183/208/266 5/5/266
f 5/5/267 183/208/267 195/224/267 17/7/267
f 17/7/268 195/224/268 194/221/268 14/460/268
f 14/460/269 194/221/269 177/220/269 2/461/269
f 176/211/270 229/25/270 234/255/270 186/212/270
f 186/212/271 234/255/271 237/261/271 187/215/271
f 187/215/272 237/261/272 249/279/272 199/217/272
f 199/217/273 249/277/273 248/274/273 196/223/273
f 196/223/274 248/274/274 231/273/274 177/220/274
f 109/145/240 231/273/240 250/276/240 111/462/240
f 111/462/239 250/276/239 253/282/239 112/434/239
f 112/138/238 253/270/238 241/268/238 113/463/238
f 113/463/237 241/268/237 240/265/237 114/464/237
f 114/464/236 240/265/236 230/264/236 110/133/236
f 115/181/264 257/296/264 269/299/264 117/465/264
f 117/465/263 269/299/263 272/305/263 118/189/263
f 118/466/262 272/290/262 260/288/262 119/467/262
f 119/467/261 260/288/261 259/285/261 120/468/261
f 120/468/260 259/285/260 256/284/260 116/169/260
f 229/25/275 258/46/275 277/310/275 232/253/275
f 232/253/276 277/310/276 280/302/276 233/256/276
f 233/256/277 280/302/277 268/300/277 245/258/277
f 245/258/278 268/300/278 267/297/278 242/267/278
f 242/267/279 267/297/279 257/296/279 230/264/279
f 204/247/280 256/284/280 261/287/280 221/248/280
f 221/248/281 261/287/281 264/293/281 222/251/281
f 222/251/282 264/293/282 276/313/282 210/235/282
f 210/235/283 276/311/283 275/308/283 207/229/283
f 207/229/284 275/308/284 258/46/284 202/226/284
f 30/60/285 204/247/285 223/250/285 47/61/285
f 47/61/286 223/250/286 226/244/286 48/64/286
f 48/64/287 226/244/287 214/242/287 36/43/287
f 36/43/288 214/242/288 213/239/288 33/37/288
f 33/37/289 213/239/289 203/238/289 28/34/289
f 175/199/290 203/238/290 215/241/290 178/200/290
f 178/200/291 215/241/291 218/232/291 179/203/291
f 179/203/292 218/232/292 206/230/292 191/205/292
f 191/205/293 206/230/293 205/227/293 188/214/293
f 188/214/294 205/227/294 202/226/294 176/211/294
f 21/31/292 44/40/292 32/38/292 9/10/292
f 9/10/297 32/38/297 31/35/297 6/4/297
f 6/4/298 31/35/298 28/34/298 1/1/298
f 177/220/344 231/273/344 109/145/344 2/461/344
f 203/238/345 175/199/345 1/1/345 28/34/345
f 256/284/347 204/247/347 30/60/347 116/169/347
f 115/181/349 110/133/349 230/264/349 257/296/349
f 258/46/346 229/25/346 176/211/346 202/226/346
usemtl Material.002
f 2/13/7 12/14/7 15/15/7 14/16/7
f 12/14/8 13/17/8 16/17/8 15/15/8
f 13/18/9 25/19/9 26/20/9 16/18/9
f 14/16/10 15/15/10 18/8/10 17/21/10
f 15/15/11 16/17/11 19/22/11 18/8/11
f 16/18/12 26/20/12 27/23/12 19/24/12
f 3/25/13 20/26/13 23/27/13 22/28/13
f 20/26/14 21/29/14 24/30/14 23/27/14
f 22/28/16 23/27/16 26/20/16 25/19/16
f 23/27/17 24/30/17 27/23/17 26/20/17
f 29/46/26 39/47/26 42/48/26 41/49/26
f 39/47/27 40/50/27 43/51/27 42/48/27
f 41/49/29 42/48/29 45/56/29 44/57/29
f 42/48/30 43/51/30 46/58/30 45/56/30
f 283/316/115 286/317/115 289/201/115 288/318/115
f 286/317/116 287/319/116 290/204/116 289/201/116
f 287/319/117 299/205/117 300/320/117 290/204/117
f 288/318/118 289/201/118 292/207/118 291/321/118
f 289/201/119 290/204/119 293/209/119 292/207/119
f 290/204/120 300/320/120 301/210/120 293/209/120
f 284/322/121 294/323/121 297/324/121 296/325/121
f 294/323/122 295/215/122 298/326/122 297/324/122
f 295/215/123 307/327/123 308/218/123 298/326/123
f 296/325/124 297/324/124 300/320/124 299/205/124
f 297/324/125 298/326/125 301/210/125 300/320/125
f 298/326/126 308/218/126 309/219/126 301/210/126
f 285/328/127 302/221/127 305/329/127 304/330/127
f 302/221/128 303/224/128 306/331/128 305/329/128
f 303/224/129 291/321/129 292/207/129 306/331/129
f 304/330/130 305/329/130 308/218/130 307/327/130
f 305/329/131 306/331/131 309/219/131 308/218/131
f 306/331/132 292/207/132 293/209/132 309/219/132
f 293/209/191 301/210/191 309/219/191
f 310/332/134 313/333/134 316/334/134 315/335/134
f 313/333/135 314/336/135 317/231/135 316/334/135
f 314/336/136 326/337/136 327/338/136 317/231/136
f 315/335/137 316/334/137 319/339/137 318/340/137
f 316/334/192 317/231/192 320/236/192 319/339/192
f 317/231/139 327/338/139 328/341/139 320/236/139
f 311/342/140 321/343/140 324/344/140 323/241/140
f 321/343/141 322/242/141 325/345/141 324/344/141
f 322/242/142 334/346/142 335/347/142 325/345/142
f 323/241/143 324/344/143 327/338/143 326/337/143
f 324/344/144 325/345/144 328/341/144 327/338/144
f 325/345/145 335/347/145 336/246/145 328/341/145
f 312/247/146 329/348/146 332/349/146 331/350/146
f 329/348/147 330/251/147 333/351/147 332/349/147
f 330/251/148 318/340/148 319/339/148 333/351/148
f 331/350/149 332/349/149 335/347/149 334/346/149
f 332/349/193 333/351/193 336/246/193 335/347/193
f 333/351/151 319/339/151 320/236/151 336/246/151
f 320/236/194 328/341/194 336/246/194
f 3/25/295 29/46/295 41/49/295 20/26/295
f 20/26/296 41/49/296 44/57/296 21/29/296
f 285/328/299 337/469/299 339/470/299 302/221/299
f 302/221/300 339/470/300 340/471/300 303/224/300
f 303/224/301 340/471/301 341/472/301 291/321/301
f 291/321/302 341/472/302 342/473/302 288/318/302
f 288/318/303 342/473/303 338/31/303 283/316/303
f 2/13/304 285/328/304 304/330/304 12/14/304
f 12/14/305 304/330/305 307/327/305 13/17/305
f 13/18/306 307/327/306 295/215/306 25/19/306
f 25/19/307 295/215/307 294/323/307 22/28/307
f 22/28/308 294/323/308 284/322/308 3/25/308
f 29/46/309 310/332/309 315/335/309 39/47/309
f 39/47/310 315/335/310 318/340/310 40/50/310
f 40/474/311 318/340/311 330/251/311 52/475/311
f 52/475/312 330/251/312 329/348/312 49/476/312
f 49/476/313 329/348/313 312/247/313 30/477/313
f 311/342/314 343/40/314 345/478/314 321/343/314
f 321/343/315 345/478/315 346/479/315 322/242/315
f 322/242/316 346/479/316 347/480/316 334/346/316
f 334/346/317 347/480/317 348/481/317 331/350/317
f 331/350/318 348/481/318 344/482/318 312/247/318
f 283/316/290 311/342/290 323/241/290 286/317/290
f 286/317/291 323/241/291 326/337/291 287/319/291
f 287/319/292 326/337/292 314/336/292 299/205/292
f 299/205/293 314/336/293 313/333/293 296/325/293
f 296/325/294 313/333/294 310/332/294 284/322/294
f 285/328/344 2/13/344 57/154/344 337/469/344
f 29/46/346 3/25/346 284/322/346 310/332/346
f 30/477/347 312/247/347 344/482/347 82/163/347
f 311/342/345 283/316/345 338/31/345 343/40/345
usemtl Material.003
f 56/77/45 66/78/45 69/79/45 68/80/45
f 66/78/46 67/81/46 70/82/46 69/79/46
f 68/80/48 69/79/48 72/87/48 71/29/48
f 69/79/49 70/82/49 73/88/49 72/87/49
f 82/96/58 85/97/58 88/98/58 87/99/58
f 85/97/59 86/100/59 89/101/59 88/98/59
f 86/100/60 98/102/60 99/103/60 89/101/60
f 87/99/61 88/98/61 91/104/61 90/104/61
f 88/98/62 89/101/62 92/105/62 91/104/62
f 89/101/63 99/103/63 100/106/63 92/105/63
f 83/107/64 93/108/64 96/109/64 95/110/64
f 93/108/65 94/57/65 97/56/65 96/109/65
f 95/110/67 96/109/67 99/113/67 98/114/67
f 96/109/68 97/56/68 100/115/68 99/113/68
f 349/352/195 352/353/195 355/354/195 354/355/195
f 352/353/196 353/356/196 356/357/196 355/354/196
f 353/356/197 365/358/197 366/359/197 356/357/197
f 354/355/198 355/354/198 358/360/198 357/361/198
f 355/354/199 356/357/199 359/362/199 358/360/199
f 356/357/200 366/359/200 367/363/200 359/362/200
f 350/364/201 360/365/201 363/366/201 362/367/201
f 360/365/202 361/368/202 364/369/202 363/366/202
f 361/368/203 373/370/203 374/371/203 364/369/203
f 362/367/204 363/366/204 366/359/204 365/358/204
f 363/366/205 364/369/205 367/363/205 366/359/205
f 364/369/206 374/371/206 375/372/206 367/363/206
f 351/373/207 368/374/207 371/375/207 370/376/207
f 368/374/208 369/377/208 372/378/208 371/375/208
f 369/377/209 357/361/209 358/360/209 372/378/209
f 370/376/210 371/375/210 374/371/210 373/370/210
f 371/375/211 372/378/211 375/372/211 374/371/211
f 372/378/212 358/360/212 359/362/212 375/372/212
f 359/362/213 367/363/213 375/372/213
f 376/379/214 379/380/214 382/381/214 381/382/214
f 379/380/215 380/383/215 383/384/215 382/381/215
f 380/383/216 392/385/216 393/386/216 383/384/216
f 381/382/217 382/381/217 385/387/217 384/388/217
f 382/381/218 383/384/218 386/389/218 385/387/218
f 383/384/219 393/386/219 394/390/219 386/389/219
f 377/391/220 387/392/220 390/393/220 389/394/220
f 387/392/221 388/395/221 391/396/221 390/393/221
f 388/395/222 400/397/222 401/398/222 391/396/222
f 389/394/223 390/393/223 393/386/223 392/385/223
f 390/393/224 391/396/224 394/390/224 393/386/224
f 391/396/225 401/398/225 402/399/225 394/390/225
f 378/400/226 395/401/226 398/402/226 397/403/226
f 395/401/227 396/404/227 399/405/227 398/402/227
f 396/404/228 384/388/228 385/387/228 399/405/228
f 397/403/229 398/402/229 401/398/229 400/397/229
f 398/402/230 399/405/230 402/399/230 401/398/230
f 399/405/231 385/387/231 386/389/231 402/399/231
f 386/389/232 394/390/232 402/399/232
f 403/406/77 406/407/77 409/408/77 408/409/77
f 406/407/78 407/133/78 410/410/78 409/408/78
f 407/150/79 419/411/79 420/412/79 410/413/79
f 408/409/80 409/408/80 412/135/80 411/414/80
f 409/408/81 410/410/81 413/415/81 412/135/81
f 410/413/82 420/412/82 421/416/82 413/417/82
f 404/139/83 414/418/83 417/419/83 416/420/83
f 414/418/84 415/421/84 418/422/84 417/419/84
f 415/421/85 427/143/85 428/423/85 418/422/85
f 416/420/86 417/419/86 420/412/86 419/411/86
f 417/419/233 418/422/233 421/416/233 420/412/233
f 418/422/88 428/423/88 429/424/88 421/416/88
f 405/425/89 422/426/89 425/427/89 424/428/89
f 422/426/90 423/429/90 426/430/90 425/427/90
f 423/429/91 411/431/91 412/161/91 426/430/91
f 424/428/92 425/427/92 428/432/92 427/433/92
f 425/427/93 426/430/93 429/153/93 428/432/93
f 426/430/94 412/161/94 413/434/94 429/153/94
f 413/417/234 421/416/234 429/424/234
f 430/435/96 433/164/96 436/436/96 435/437/96
f 433/164/97 434/438/97 437/168/97 436/436/97
f 434/438/98 446/169/98 447/170/98 437/168/98
f 435/437/99 436/436/99 439/171/99 438/172/99
f 436/436/100 437/168/100 440/173/100 439/171/100
f 437/168/101 447/170/101 448/174/101 440/173/101
f 431/175/102 441/176/102 444/439/102 443/178/102
f 441/176/103 442/440/103 445/441/103 444/439/103
f 442/440/104 454/179/104 455/442/104 445/441/104
f 443/178/105 444/439/105 447/185/105 446/186/105
f 444/439/106 445/441/106 448/187/106 447/185/106
f 445/441/107 455/442/107 456/443/107 448/187/107
f 432/444/108 449/445/108 452/446/108 451/447/108
f 449/445/109 450/448/109 453/449/109 452/446/109
f 450/450/110 438/172/110 439/171/110 453/197/110
f 451/447/111 452/446/111 455/451/111 454/181/111
f 452/446/112 453/449/112 456/188/112 455/451/112
f 453/197/113 439/171/113 440/173/113 456/198/113
f 440/173/235 448/174/235 456/198/235
f 71/29/254 94/57/254 93/108/254 68/80/254
f 68/80/255 93/108/255 83/107/255 56/77/255
f 337/483/299 350/364/299 362/367/299 339/484/299
f 339/484/300 362/367/300 365/358/300 340/485/300
f 340/485/301 365/358/301 353/356/301 341/486/301
f 341/486/302 353/356/302 352/353/302 342/487/302
f 342/487/303 352/353/303 349/352/303 338/488/303
f 56/77/319 403/406/319 408/409/319 66/78/319
f 66/78/320 408/409/320 411/414/320 67/81/320
f 67/489/321 411/431/321 423/429/321 79/490/321
f 79/490/322 423/429/322 422/426/322 76/491/322
f 76/491/323 422/426/323 405/425/323 57/492/323
f 350/364/324 405/425/324 424/428/324 360/365/324
f 360/365/325 424/428/325 427/433/325 361/368/325
f 361/368/326 427/143/326 415/421/326 373/370/326
f 373/370/327 415/421/327 414/418/327 370/376/327
f 370/376/328 414/418/328 404/139/328 351/373/328
f 378/400/329 431/175/329 443/178/329 395/401/329
f 395/401/330 443/178/330 446/186/330 396/404/330
f 396/404/331 446/169/331 434/438/331 384/388/331
f 384/388/332 434/438/332 433/164/332 381/382/332
f 381/382/333 433/164/333 430/435/333 376/379/333
f 351/373/334 378/400/334 397/403/334 368/374/334
f 368/374/335 397/403/335 400/397/335 369/377/335
f 369/377/336 400/397/336 388/395/336 357/361/336
f 357/361/337 388/395/337 387/392/337 354/355/337
f 354/355/338 387/392/338 377/391/338 349/352/338
f 403/406/256 432/444/256 451/447/256 406/407/256
f 406/407/257 451/447/257 454/181/257 407/133/257
f 407/150/253 454/179/253 442/440/253 419/411/253
f 419/411/258 442/440/258 441/176/258 416/420/258
f 416/420/259 441/176/259 431/175/259 404/139/259
f 82/96/339 430/435/339 435/437/339 85/97/339
f 85/97/340 435/437/340 438/172/340 86/100/340
f 86/100/341 438/172/341 450/450/341 98/102/341
f 98/114/342 450/448/342 449/445/342 95/110/342
f 95/110/343 449/445/343 432/444/343 83/107/343
f 343/493/314 377/391/314 389/394/314 345/494/314
f 345/494/315 389/394/315 392/385/315 346/495/315
f 346/495/316 392/385/316 380/383/316 347/496/316
f 347/496/317 380/383/317 379/380/317 348/497/317
f 348/497/318 379/380/318 376/379/318 344/498/318
f 337/483/344 57/492/344 405/425/344 350/364/344
f 432/444/349 403/406/349 56/77/349 83/107/349
f 82/96/347 344/498/347 376/379/347 430/435/347
f 343/493/345 338/488/345 349/352/345 377/391/345
f 378/400/348 351/373/348 404/139/348 431/175/348
