# Blender 5.1.2
# www.blender.org
mtllib Square.mtl
o Cube.003
v -0.003057 1.000000 0.000000
v -0.003057 -1.000000 0.000000
v 1.996943 0.850000 -1.850000
v 1.846943 0.850000 -2.000000
v 1.846943 1.000000 -1.850000
v 1.989599 0.850000 -1.896361
v 1.968306 0.850000 -1.938153
v 1.989599 0.896361 -1.850000
v 1.980901 0.897590 -1.897858
v 1.960800 0.896039 -1.936122
v 1.968306 0.938153 -1.850000
v 1.960694 0.936198 -1.896158
v 1.946450 0.929368 -1.929368
v 1.846943 0.896361 -1.992656
v 1.846943 0.938153 -1.971363
v 1.893304 0.850000 -1.992656
v 1.894533 0.897858 -1.983958
v 1.892982 0.936122 -1.963857
v 1.935096 0.850000 -1.971363
v 1.933141 0.896158 -1.963751
v 1.926311 0.929368 -1.949506
v 1.893304 0.992656 -1.850000
v 1.935096 0.971363 -1.850000
v 1.846943 0.992656 -1.896361
v 1.894801 0.983958 -1.897590
v 1.933065 0.963857 -1.896039
v 1.846943 0.971363 -1.938153
v 1.893101 0.963751 -1.936198
v 1.926311 0.949506 -1.929368
v 1.846943 -0.850000 -2.000000
v 1.996943 -0.850000 -1.850000
v 1.846943 -1.000000 -1.850000
v 1.893304 -0.850000 -1.992656
v 1.935096 -0.850000 -1.971363
v 1.846943 -0.896361 -1.992656
v 1.894801 -0.897590 -1.983958
v 1.933065 -0.896039 -1.963857
v 1.846943 -0.938153 -1.971363
v 1.893101 -0.936198 -1.963751
v 1.926311 -0.929368 -1.949506
v 1.989599 -0.896361 -1.850000
v 1.968306 -0.938153 -1.850000
v 1.989599 -0.850000 -1.896361
v 1.980901 -0.897858 -1.897590
v 1.960800 -0.936122 -1.896039
v 1.968306 -0.850000 -1.938153
v 1.960694 -0.896158 -1.936198
v 1.946450 -0.929368 -1.929368
v 1.846943 -0.992656 -1.896361
v 1.846943 -0.971363 -1.938153
v 1.893304 -0.992656 -1.850000
v 1.894533 -0.983958 -1.897858
v 1.892982 -0.963857 -1.936122
v 1.935096 -0.971363 -1.850000
v 1.933141 -0.963751 -1.896158
v 1.926311 -0.949506 -1.929368
v 1.846943 1.000000 0.000000
v 1.996943 0.850000 0.000000
v 1.893296 0.992658 0.000000
v 1.935111 0.971353 0.000000
v 1.968296 0.938168 0.000000
v 1.989602 0.896353 0.000000
v -0.003057 0.850000 2.000000
v -0.003057 1.000000 1.850000
v -0.003057 0.896353 1.992658
v -0.003057 0.938168 1.971353
v -0.003057 0.971353 1.938168
v -0.003057 0.992658 1.896353
v 1.996943 0.850000 1.850000
v 1.846943 1.000000 1.850000
v 1.846943 0.850000 2.000000
v 1.989599 0.896361 1.850000
v 1.968306 0.938153 1.850000
v 1.989599 0.850000 1.896361
v 1.980901 0.897858 1.897590
v 1.960800 0.936122 1.896039
v 1.968306 0.850000 1.938153
v 1.960694 0.896158 1.936198
v 1.946450 0.929368 1.929368
v 1.846943 0.992656 1.896361
v 1.846943 0.971363 1.938153
v 1.893304 0.992656 1.850000
v 1.894533 0.983958 1.897858
v 1.892982 0.963857 1.936122
v 1.935096 0.971363 1.850000
v 1.933141 0.963751 1.896158
v 1.926311 0.949506 1.929368
v 1.893304 0.850000 1.992656
v 1.935096 0.850000 1.971363
v 1.846943 0.896361 1.992656
v 1.894801 0.897590 1.983958
v 1.933065 0.896039 1.963857
v 1.846943 0.938153 1.971363
v 1.893101 0.936198 1.963751
v 1.926311 0.929368 1.949506
v 1.996943 -0.850000 0.000000
v 1.846943 -1.000000 0.000000
v 1.989602 -0.896353 0.000000
v 1.968296 -0.938168 0.000000
v 1.935111 -0.971353 0.000000
v 1.893296 -0.992658 0.000000
v -0.003057 -1.000000 1.850000
v -0.003057 -0.850000 2.000000
v -0.003057 -0.992658 1.896353
v -0.003057 -0.971353 1.938168
v -0.003057 -0.938168 1.971353
v -0.003057 -0.896353 1.992658
v 1.846943 -1.000000 1.850000
v 1.996943 -0.850000 1.850000
v 1.846943 -0.850000 2.000000
v 1.893304 -0.992656 1.850000
v 1.935096 -0.971363 1.850000
v 1.846943 -0.992656 1.896361
v 1.894801 -0.983958 1.897590
v 1.933065 -0.963857 1.896039
v 1.846943 -0.971363 1.938153
v 1.893101 -0.963751 1.936198
v 1.926311 -0.949506 1.929368
v 1.989599 -0.850000 1.896361
v 1.968306 -0.850000 1.938153
v 1.989599 -0.896361 1.850000
v 1.980901 -0.897590 1.897858
v 1.960800 -0.896039 1.936122
v 1.968306 -0.938153 1.850000
v 1.960694 -0.936198 1.896158
v 1.946450 -0.929368 1.929368
v 1.846943 -0.896361 1.992656
v 1.846943 -0.938153 1.971363
v 1.893304 -0.850000 1.992656
v 1.894533 -0.897858 1.983958
v 1.892982 -0.936122 1.963857
v 1.935096 -0.850000 1.971363
v 1.933141 -0.896158 1.963751
v 1.926311 -0.929368 1.949506
v -0.003057 0.850000 -2.000000
v -0.003057 1.000000 -1.850000
v -0.003057 0.896353 -1.992658
v -0.003057 0.938168 -1.971353
v -0.003057 0.971353 -1.938168
v -0.003057 0.992658 -1.896353
v -1.853057 1.000000 0.000000
v -2.003057 0.850000 0.000000
v -1.899409 0.992658 0.000000
v -1.941225 0.971353 0.000000
v -1.974409 0.938168 0.000000
v -1.995715 0.896353 0.000000
v -1.853057 0.850000 -2.000000
v -2.003057 0.850000 -1.850000
v -1.853057 1.000000 -1.850000
v -1.899418 0.850000 -1.992656
v -1.941210 0.850000 -1.971363
v -1.853057 0.896361 -1.992656
v -1.900915 0.897590 -1.983958
v -1.939179 0.896039 -1.963857
v -1.853057 0.938153 -1.971363
v -1.899215 0.936198 -1.963751
v -1.932425 0.929368 -1.949506
v -1.995713 0.896361 -1.850000
v -1.974420 0.938153 -1.850000
v -1.995713 0.850000 -1.896361
v -1.987015 0.897858 -1.897590
v -1.966914 0.936122 -1.896039
v -1.974420 0.850000 -1.938153
v -1.966808 0.896158 -1.936198
v -1.952563 0.929368 -1.929368
v -1.853057 0.992656 -1.896361
v -1.853057 0.971363 -1.938153
v -1.899418 0.992656 -1.850000
v -1.900647 0.983958 -1.897858
v -1.899096 0.963857 -1.936122
v -1.941210 0.971363 -1.850000
v -1.939255 0.963751 -1.896158
v -1.932425 0.949506 -1.929368
v -0.003057 -1.000000 -1.850000
v -0.003057 -0.850000 -2.000000
v -0.003057 -0.992658 -1.896353
v -0.003057 -0.971353 -1.938168
v -0.003057 -0.938168 -1.971353
v -0.003057 -0.896353 -1.992658
v -2.003057 -0.850000 0.000000
v -1.853057 -1.000000 0.000000
v -1.995715 -0.896353 0.000000
v -1.974409 -0.938168 0.000000
v -1.941225 -0.971353 0.000000
v -1.899409 -0.992658 0.000000
v -1.853057 -1.000000 -1.850000
v -2.003057 -0.850000 -1.850000
v -1.853057 -0.850000 -2.000000
v -1.899418 -0.992656 -1.850000
v -1.941210 -0.971363 -1.850000
v -1.853057 -0.992656 -1.896361
v -1.900915 -0.983958 -1.897590
v -1.939179 -0.963857 -1.896039
v -1.853057 -0.971363 -1.938153
v -1.899215 -0.963751 -1.936198
v -1.932425 -0.949506 -1.929368
v -1.995713 -0.850000 -1.896361
v -1.974420 -0.850000 -1.938153
v -1.995713 -0.896361 -1.850000
v -1.987015 -0.897590 -1.897858
v -1.966914 -0.896039 -1.936122
v -1.974420 -0.938153 -1.850000
v -1.966808 -0.936198 -1.896158
v -1.952563 -0.929368 -1.929368
v -1.853057 -0.896361 -1.992656
v -1.853057 -0.938153 -1.971363
v -1.899418 -0.850000 -1.992656
v -1.900647 -0.897858 -1.983958
v -1.899096 -0.936122 -1.963857
v -1.941210 -0.850000 -1.971363
v -1.939255 -0.896158 -1.963751
v -1.932425 -0.929368 -1.949506
v -2.003057 0.850000 1.850000
v -1.853057 0.850000 2.000000
v -1.853057 1.000000 1.850000
v -1.995713 0.850000 1.896361
v -1.974420 0.850000 1.938153
v -1.995713 0.896361 1.850000
v -1.987015 0.897590 1.897858
v -1.966914 0.896039 1.936122
v -1.974420 0.938153 1.850000
v -1.966808 0.936198 1.896158
v -1.952563 0.929368 1.929368
v -1.853057 0.896361 1.992656
v -1.853057 0.938153 1.971363
v -1.899418 0.850000 1.992656
v -1.900647 0.897858 1.983958
v -1.899096 0.936122 1.963857
v -1.941210 0.850000 1.971363
v -1.939255 0.896158 1.963751
v -1.932425 0.929368 1.949506
v -1.899418 0.992656 1.850000
v -1.941210 0.971363 1.850000
v -1.853057 0.992656 1.896361
v -1.900915 0.983958 1.897590
v -1.939179 0.963857 1.896039
v -1.853057 0.971363 1.938153
v -1.899215 0.963751 1.936198
v -1.932425 0.949506 1.929368
v -1.853057 -1.000000 1.850000
v -1.853057 -0.850000 2.000000
v -2.003057 -0.850000 1.850000
v -1.853057 -0.992656 1.896361
v -1.853057 -0.971363 1.938153
v -1.899418 -0.992656 1.850000
v -1.900647 -0.983958 1.897858
v -1.899096 -0.963857 1.936122
v -1.941210 -0.971363 1.850000
v -1.939255 -0.963751 1.896158
v -1.932425 -0.949506 1.929368
v -1.899418 -0.850000 1.992656
v -1.941210 -0.850000 1.971363
v -1.853057 -0.896361 1.992656
v -1.900915 -0.897590 1.983958
v -1.939179 -0.896039 1.963857
v -1.853057 -0.938153 1.971363
v -1.899215 -0.936198 1.963751
v -1.932425 -0.929368 1.949506
v -1.995713 -0.896361 1.850000
v -1.974420 -0.938153 1.850000
v -1.995713 -0.850000 1.896361
v -1.987015 -0.897858 1.897590
v -1.966914 -0.936122 1.896039
v -1.974420 -0.850000 1.938153
v -1.966808 -0.896158 1.936198
v -1.952563 -0.929368 1.929368
vn 0.9729 0.1635 -0.1635
vn 0.8764 0.1543 -0.4562
vn 0.6996 0.1450 -0.6997
vn 0.8764 0.4557 -0.1556
vn 0.7924 0.4313 -0.4314
vn 0.6456 0.4090 -0.6449
vn 0.1635 0.1635 -0.9729
vn 0.1543 0.4562 -0.8764
vn 0.1450 0.6997 -0.6996
vn 0.4557 0.1556 -0.8764
vn 0.4313 0.4314 -0.7924
vn 0.4090 0.6449 -0.6456
vn 0.1635 0.9729 -0.1635
vn 0.4562 0.8764 -0.1543
vn 0.6997 0.6996 -0.1450
vn 0.1556 0.8764 -0.4557
vn 0.4314 0.7924 -0.4313
vn 0.6449 0.6456 -0.4090
vn 0.5774 0.5774 -0.5774
vn 0.1635 -0.1635 -0.9729
vn 0.4562 -0.1543 -0.8764
vn 0.6997 -0.1450 -0.6996
vn 0.1556 -0.4557 -0.8764
vn 0.4314 -0.4313 -0.7924
vn 0.6449 -0.4090 -0.6456
vn 0.9729 -0.1635 -0.1635
vn 0.8764 -0.4562 -0.1543
vn 0.6996 -0.6997 -0.1450
vn 0.8764 -0.1556 -0.4557
vn 0.7924 -0.4314 -0.4313
vn 0.6456 -0.6449 -0.4090
vn 0.1635 -0.9729 -0.1635
vn 0.1543 -0.8764 -0.4562
vn 0.1450 -0.6996 -0.6997
vn 0.4557 -0.8764 -0.1556
vn 0.4313 -0.7924 -0.4314
vn 0.4090 -0.6456 -0.6449
vn 0.5774 -0.5774 -0.5774
vn 0.9729 0.1635 0.1635
vn 0.8764 0.4562 0.1543
vn 0.6996 0.6997 0.1450
vn 0.8764 0.1556 0.4557
vn 0.7924 0.4314 0.4313
vn 0.6456 0.6449 0.4090
vn 0.1635 0.9729 0.1635
vn 0.1543 0.8764 0.4562
vn 0.1450 0.6996 0.6997
vn 0.4557 0.8764 0.1556
vn 0.4314 0.7924 0.4314
vn 0.4090 0.6456 0.6449
vn 0.1635 0.1635 0.9729
vn 0.4562 0.1543 0.8764
vn 0.6997 0.1450 0.6996
vn 0.1556 0.4557 0.8764
vn 0.4314 0.4313 0.7924
vn 0.6449 0.4090 0.6456
vn 0.5774 0.5773 0.5774
vn 0.1635 -0.9729 0.1635
vn 0.4562 -0.8764 0.1543
vn 0.6997 -0.6996 0.1450
vn 0.1556 -0.8764 0.4557
vn 0.4314 -0.7924 0.4313
vn 0.6449 -0.6456 0.4090
vn 0.9729 -0.1635 0.1635
vn 0.8764 -0.1543 0.4562
vn 0.6996 -0.1450 0.6997
vn 0.8764 -0.4557 0.1556
vn 0.7924 -0.4313 0.4314
vn 0.6456 -0.4090 0.6449
vn 0.1635 -0.1635 0.9729
vn 0.1543 -0.4562 0.8764
vn 0.1450 -0.6997 0.6996
vn 0.4557 -0.1556 0.8764
vn 0.4313 -0.4314 0.7924
vn 0.4090 -0.6449 0.6456
vn 0.5774 -0.5773 0.5774
vn -0.1635 0.1635 -0.9729
vn -0.4562 0.1543 -0.8764
vn -0.6997 0.1450 -0.6996
vn -0.1556 0.4557 -0.8764
vn -0.4314 0.4314 -0.7924
vn -0.6449 0.4090 -0.6456
vn -0.9729 0.1635 -0.1635
vn -0.8764 0.4562 -0.1543
vn -0.6996 0.6997 -0.1450
vn -0.8764 0.1556 -0.4557
vn -0.7924 0.4314 -0.4313
vn -0.6456 0.6449 -0.4090
vn -0.1635 0.9729 -0.1635
vn -0.1543 0.8764 -0.4562
vn -0.1450 0.6996 -0.6997
vn -0.4557 0.8764 -0.1556
vn -0.4313 0.7924 -0.4314
vn -0.4090 0.6456 -0.6449
vn -0.5774 0.5774 -0.5773
vn -0.1635 -0.9729 -0.1635
vn -0.4562 -0.8764 -0.1543
vn -0.6997 -0.6996 -0.1450
vn -0.1556 -0.8764 -0.4557
vn -0.4314 -0.7924 -0.4313
vn -0.6449 -0.6456 -0.4090
vn -0.9729 -0.1635 -0.1635
vn -0.8764 -0.1543 -0.4562
vn -0.6996 -0.1450 -0.6997
vn -0.8764 -0.4557 -0.1556
vn -0.7924 -0.4313 -0.4314
vn -0.6456 -0.4090 -0.6449
vn -0.1635 -0.1635 -0.9729
vn -0.1543 -0.4562 -0.8764
vn -0.1450 -0.6997 -0.6996
vn -0.4557 -0.1556 -0.8764
vn -0.4313 -0.4314 -0.7924
vn -0.4090 -0.6449 -0.6456
vn -0.5774 -0.5774 -0.5773
vn -0.9729 0.1635 0.1635
vn -0.8764 0.1543 0.4562
vn -0.6996 0.1450 0.6997
vn -0.8764 0.4557 0.1556
vn -0.7924 0.4313 0.4314
vn -0.6456 0.4090 0.6449
vn -0.1635 0.1635 0.9729
vn -0.1543 0.4562 0.8764
vn -0.1450 0.6997 0.6996
vn -0.4557 0.1556 0.8764
vn -0.4313 0.4314 0.7924
vn -0.4090 0.6449 0.6456
vn -0.1635 0.9729 0.1635
vn -0.4562 0.8764 0.1543
vn -0.6997 0.6996 0.1450
vn -0.1556 0.8764 0.4557
vn -0.4314 0.7924 0.4313
vn -0.6449 0.6456 0.4090
vn -0.5774 0.5773 0.5773
vn -0.1635 -0.9729 0.1635
vn -0.1543 -0.8764 0.4561
vn -0.1450 -0.6996 0.6997
vn -0.4557 -0.8764 0.1556
vn -0.4313 -0.7924 0.4314
vn -0.4090 -0.6456 0.6449
vn -0.1635 -0.1635 0.9729
vn -0.4562 -0.1543 0.8764
vn -0.6997 -0.1450 0.6996
vn -0.1556 -0.4557 0.8764
vn -0.4314 -0.4313 0.7924
vn -0.6449 -0.4090 0.6456
vn -0.9729 -0.1635 0.1635
vn -0.8764 -0.4562 0.1543
vn -0.6996 -0.6997 0.1450
vn -0.8764 -0.1556 0.4557
vn -0.7924 -0.4314 0.4313
vn -0.6456 -0.6449 0.4090
vn -0.5774 -0.5773 0.5773
vn 0.1564 0.9877 -0.0000
vn 0.4540 0.8910 -0.0000
vn 0.7071 0.7071 -0.0000
vn 0.8910 0.4540 -0.0000
vn 0.9877 0.1564 -0.0000
vn -0.0000 0.1564 -0.9877
vn -0.0000 0.4540 -0.8910
vn -0.0000 0.7071 -0.7071
vn -0.0000 0.8910 -0.4540
vn -0.0000 0.9877 -0.1564
vn -0.0000 -0.9877 -0.1564
vn -0.0000 -0.8910 -0.4540
vn -0.0000 -0.7071 -0.7071
vn -0.0000 -0.4540 -0.8910
vn -0.0000 -0.1564 -0.9877
vn 0.9877 -0.1564 -0.0000
vn 0.8910 -0.4540 -0.0000
vn 0.7071 -0.7071 -0.0000
vn 0.4540 -0.8910 -0.0000
vn 0.1564 -0.9877 -0.0000
vn 0.9877 -0.0000 -0.1565
vn 0.8910 -0.0000 -0.4540
vn 0.7071 -0.0000 -0.7071
vn 0.4540 -0.0000 -0.8910
vn 0.1565 -0.0000 -0.9877
vn -0.9877 0.1564 -0.0000
vn -0.8910 0.4540 -0.0000
vn -0.7071 0.7071 -0.0000
vn -0.4540 0.8910 -0.0000
vn -0.1564 0.9877 -0.0000
vn -0.0000 0.9877 0.1564
vn -0.0000 0.8910 0.4540
vn -0.0000 0.7071 0.7071
vn -0.0000 0.4540 0.8910
vn -0.0000 0.1564 0.9877
vn -0.0000 -0.1564 0.9877
vn -0.0000 -0.4540 0.8910
vn -0.0000 -0.7071 0.7071
vn -0.0000 -0.8910 0.4540
vn -0.0000 -0.9877 0.1564
vn -0.9877 -0.0000 0.1565
vn -0.8910 -0.0000 0.4540
vn -0.7071 -0.0000 0.7071
vn -0.4540 -0.0000 0.8910
vn -0.1565 -0.0000 0.9877
vn -0.1564 -0.9877 -0.0000
vn -0.4540 -0.8910 -0.0000
vn -0.7071 -0.7071 -0.0000
vn -0.8910 -0.4540 -0.0000
vn -0.9877 -0.1564 -0.0000
vn 0.1565 -0.0000 0.9877
vn 0.4540 -0.0000 0.8910
vn 0.7071 -0.0000 0.7071
vn 0.8910 -0.0000 0.4540
vn 0.9877 -0.0000 0.1565
vn -0.1565 -0.0000 -0.9877
vn -0.4540 -0.0000 -0.8910
vn -0.7071 -0.0000 -0.7071
vn -0.8910 -0.0000 -0.4540
vn -0.9877 -0.0000 -0.1565
vn 1.0000 -0.0000 -0.0000
vn -0.0000 1.0000 -0.0000
vn -0.0000 -0.0000 -1.0000
vn -0.0000 -1.0000 -0.0000
vn -0.0000 -0.0000 1.0000
vn -1.0000 -0.0000 -0.0000
vt 0.606250 0.518750
vt 0.606250 0.512955
vt 0.612199 0.512768
vt 0.612045 0.518750
vt 0.606250 0.507731
vt 0.612005 0.507985
vt 0.606250 0.492269
vt 0.612020 0.492025
vt 0.617025 0.512980
vt 0.617269 0.518750
vt 0.616171 0.505044
vt 0.616171 0.491171
vt 0.606250 0.481250
vt 0.612045 0.481250
vt 0.612232 0.487199
vt 0.606250 0.487045
vt 0.617269 0.481250
vt 0.617015 0.487005
vt 0.634375 0.490625
vt 0.631490 0.493510
vt 0.629415 0.495586
vt 0.643750 0.518750
vt 0.637955 0.518750
vt 0.637768 0.512801
vt 0.643750 0.512955
vt 0.632731 0.518750
vt 0.632985 0.512995
vt 0.393750 0.481250
vt 0.393750 0.487045
vt 0.387801 0.487232
vt 0.387955 0.481250
vt 0.393750 0.492269
vt 0.387995 0.492015
vt 0.393750 0.507731
vt 0.387980 0.507975
vt 0.368510 0.493510
vt 0.365625 0.490625
vt 0.370585 0.495586
vt 0.380044 0.508829
vt 0.393750 0.518750
vt 0.387955 0.518750
vt 0.387768 0.512801
vt 0.393750 0.512955
vt 0.382731 0.518750
vt 0.382985 0.512995
vt 0.367269 0.518750
vt 0.367025 0.512980
vt 0.366171 0.508829
vt 0.356250 0.518750
vt 0.356250 0.512955
vt 0.362199 0.512768
vt 0.362045 0.518750
vt 0.356250 0.507731
vt 0.362005 0.507985
vt 0.606250 0.731250
vt 0.612045 0.731250
vt 0.612232 0.737199
vt 0.606250 0.737045
vt 0.617269 0.731250
vt 0.617015 0.737005
vt 0.632731 0.731250
vt 0.632975 0.737020
vt 0.612020 0.742025
vt 0.606250 0.742269
vt 0.616171 0.744956
vt 0.629415 0.754414
vt 0.643750 0.731250
vt 0.643750 0.737045
vt 0.637801 0.737232
vt 0.637955 0.731250
vt 0.634375 0.759375
vt 0.631498 0.756498
vt 0.617269 0.768750
vt 0.617025 0.762980
vt 0.616171 0.758829
vt 0.606250 0.768750
vt 0.606250 0.762955
vt 0.612199 0.762768
vt 0.612045 0.768750
vt 0.606250 0.757731
vt 0.612005 0.757985
vt 0.356250 0.731250
vt 0.362045 0.731250
vt 0.362232 0.737199
vt 0.356250 0.737045
vt 0.367269 0.731250
vt 0.367015 0.737005
vt 0.382731 0.731250
vt 0.382975 0.737020
vt 0.362020 0.742025
vt 0.356250 0.742269
vt 0.366171 0.741171
vt 0.380044 0.741171
vt 0.393750 0.731250
vt 0.393750 0.737045
vt 0.387801 0.737232
vt 0.387955 0.731250
vt 0.393750 0.742269
vt 0.387995 0.742015
vt 0.393750 0.757731
vt 0.387980 0.757975
vt 0.370585 0.754414
vt 0.393750 0.768750
vt 0.387955 0.768750
vt 0.387768 0.762801
vt 0.393750 0.762955
vt 0.365625 0.759375
vt 0.368502 0.756498
vt 0.606250 0.268750
vt 0.606250 0.262955
vt 0.612199 0.262768
vt 0.612045 0.268750
vt 0.606250 0.257731
vt 0.612005 0.257985
vt 0.606250 0.242269
vt 0.612020 0.242025
vt 0.625000 0.262980
vt 0.625000 0.268750
vt 0.625000 0.258829
vt 0.625000 0.241171
vt 0.606250 0.231250
vt 0.612045 0.231250
vt 0.612232 0.237199
vt 0.606250 0.237045
vt 0.625000 0.231250
vt 0.625000 0.237005
vt 0.875000 0.518750
vt 0.867269 0.518750
vt 0.867025 0.512980
vt 0.875000 0.512995
vt 0.866171 0.508829
vt 0.875000 0.508829
vt 0.856250 0.518750
vt 0.856250 0.512955
vt 0.862199 0.512768
vt 0.862045 0.518750
vt 0.856250 0.507731
vt 0.862005 0.507985
vt 0.856250 0.500000
vt 0.862020 0.500000
vt 0.866171 0.500000
vt 0.143750 0.518750
vt 0.137955 0.518750
vt 0.137768 0.512801
vt 0.143750 0.512955
vt 0.125000 0.518750
vt 0.125000 0.512995
vt 0.375000 0.231250
vt 0.382731 0.231250
vt 0.382975 0.237020
vt 0.375000 0.237005
vt 0.137980 0.500000
vt 0.143750 0.500000
vt 0.125000 0.508829
vt 0.383829 0.241171
vt 0.375000 0.244114
vt 0.393750 0.231250
vt 0.393750 0.237045
vt 0.387801 0.237232
vt 0.387955 0.231250
vt 0.393750 0.242269
vt 0.387995 0.242015
vt 0.393750 0.257731
vt 0.387980 0.257975
vt 0.383829 0.255044
vt 0.393750 0.268750
vt 0.387955 0.268750
vt 0.387768 0.262801
vt 0.393750 0.262955
vt 0.382731 0.268750
vt 0.382985 0.262995
vt 0.375000 0.268750
vt 0.375000 0.262980
vt 0.606250 0.018750
vt 0.606250 0.012955
vt 0.612199 0.012768
vt 0.612045 0.018750
vt 0.606250 0.000000
vt 0.612005 0.000000
vt 0.606250 1.000000
vt 0.606250 0.992269
vt 0.612020 0.992025
vt 0.612005 1.000000
vt 0.625000 0.012980
vt 0.625000 0.018750
vt 0.625000 0.008829
vt 0.625000 0.991171
vt 0.625000 1.000000
vt 0.606250 0.981250
vt 0.612045 0.981250
vt 0.612232 0.987199
vt 0.606250 0.987045
vt 0.625000 0.981250
vt 0.625000 0.987005
vt 0.856250 0.750000
vt 0.856250 0.742269
vt 0.862020 0.742025
vt 0.862005 0.750000
vt 0.866171 0.741171
vt 0.866171 0.750000
vt 0.856250 0.731250
vt 0.862045 0.731250
vt 0.862232 0.737199
vt 0.856250 0.737045
vt 0.867269 0.731250
vt 0.867015 0.737005
vt 0.875000 0.731250
vt 0.875000 0.737020
vt 0.875000 0.741171
vt 0.143750 0.731250
vt 0.143750 0.737045
vt 0.137801 0.737232
vt 0.137955 0.731250
vt 0.143750 0.750000
vt 0.137995 0.750000
vt 0.375000 0.981250
vt 0.382731 0.981250
vt 0.382975 0.987020
vt 0.375000 0.987005
vt 0.125000 0.737020
vt 0.125000 0.731250
vt 0.133829 0.750000
vt 0.383829 0.991171
vt 0.375000 0.991171
vt 0.393750 0.981250
vt 0.393750 0.987045
vt 0.387801 0.987232
vt 0.387955 0.981250
vt 0.393750 0.992269
vt 0.387995 0.992015
vt 0.393750 1.000000
vt 0.387980 1.000000
vt 0.383829 1.000000
vt 0.393750 0.018750
vt 0.387955 0.018750
vt 0.387768 0.012801
vt 0.393750 0.012955
vt 0.382731 0.018750
vt 0.382985 0.012995
vt 0.375000 0.018750
vt 0.375000 0.012980
vt 0.387980 0.000000
vt 0.393750 0.000000
vt 0.383829 0.000000
vt 0.375000 0.000000
vt 0.643750 0.750000
vt 0.637956 0.750000
vt 0.632729 0.750000
vt 0.617271 0.750000
vt 0.612044 0.750000
vt 0.606250 0.750000
vt 0.606250 0.250000
vt 0.612044 0.250000
vt 0.617271 0.250000
vt 0.625000 0.250000
vt 0.875000 0.500000
vt 0.875000 0.512956
vt 0.125000 0.512956
vt 0.125000 0.507729
vt 0.125000 0.500000
vt 0.375000 0.250000
vt 0.387956 0.250000
vt 0.393750 0.250000
vt 0.393750 0.750000
vt 0.387956 0.750000
vt 0.382729 0.750000
vt 0.367271 0.750000
vt 0.362044 0.750000
vt 0.356250 0.750000
vt 0.867271 0.500000
vt 0.862044 0.500000
vt 0.625000 0.731250
vt 0.625000 0.737044
vt 0.625000 0.742271
vt 0.625000 0.750000
vt 0.612044 0.750000
vt 0.387956 0.750000
vt 0.375000 0.750000
vt 0.375000 0.737044
vt 0.375000 0.731250
vt 0.137956 0.500000
vt 0.382729 0.250000
vt 0.643750 0.500000
vt 0.637956 0.500000
vt 0.632729 0.500000
vt 0.617271 0.500000
vt 0.612044 0.500000
vt 0.606250 0.500000
vt 0.612044 1.000000
vt 0.617271 1.000000
vt 0.875000 0.750000
vt 0.875000 0.737044
vt 0.125000 0.737044
vt 0.125000 0.742271
vt 0.125000 0.750000
vt 0.375000 1.000000
vt 0.387956 1.000000
vt 0.393750 0.500000
vt 0.387956 0.500000
vt 0.382729 0.500000
vt 0.367271 0.500000
vt 0.362044 0.500000
vt 0.356250 0.500000
vt 0.625000 0.500000
vt 0.625000 0.507729
vt 0.625000 0.512956
vt 0.625000 0.518750
vt 0.862044 0.750000
vt 0.867271 0.750000
vt 0.625000 0.000000
vt 0.612044 0.000000
vt 0.387956 0.000000
vt 0.382729 0.000000
vt 0.137956 0.750000
vt 0.375000 0.518750
vt 0.375000 0.512956
vt 0.375000 0.500000
s 0
usemtl Material.003
f 3/1/1 6/2/1 9/3/1 8/4/1
f 6/2/2 7/5/2 10/6/2 9/3/2
f 7/5/3 19/7/3 20/8/3 10/6/3
f 8/4/4 9/3/4 12/9/4 11/10/4
f 9/3/5 10/6/5 13/11/5 12/9/5
f 10/6/6 20/8/6 21/12/6 13/11/6
f 4/13/7 14/14/7 17/15/7 16/16/7
f 14/14/8 15/17/8 18/18/8 17/15/8
f 15/17/9 27/19/9 28/20/9 18/18/9
f 16/16/10 17/15/10 20/8/10 19/7/10
f 17/15/11 18/18/11 21/12/11 20/8/11
f 18/18/12 28/20/12 29/21/12 21/12/12
f 5/22/13 22/23/13 25/24/13 24/25/13
f 22/23/14 23/26/14 26/27/14 25/24/14
f 23/26/15 11/10/15 12/9/15 26/27/15
f 24/25/16 25/24/16 28/20/16 27/19/16
f 25/24/17 26/27/17 29/21/17 28/20/17
f 26/27/18 12/9/18 13/11/18 29/21/18
f 13/11/19 21/12/19 29/21/19
f 30/28/20 33/29/20 36/30/20 35/31/20
f 33/29/21 34/32/21 37/33/21 36/30/21
f 34/32/22 46/34/22 47/35/22 37/33/22
f 35/31/23 36/30/23 39/36/23 38/37/23
f 36/30/24 37/33/24 40/38/24 39/36/24
f 37/33/25 47/35/25 48/39/25 40/38/25
f 31/40/26 41/41/26 44/42/26 43/43/26
f 41/41/27 42/44/27 45/45/27 44/42/27
f 42/44/28 54/46/28 55/47/28 45/45/28
f 43/43/29 44/42/29 47/35/29 46/34/29
f 44/42/30 45/45/30 48/39/30 47/35/30
f 45/45/31 55/47/31 56/48/31 48/39/31
f 32/49/32 49/50/32 52/51/32 51/52/32
f 49/50/33 50/53/33 53/54/33 52/51/33
f 50/53/34 38/37/34 39/36/34 53/54/34
f 51/52/35 52/51/35 55/47/35 54/46/35
f 52/51/36 53/54/36 56/48/36 55/47/36
f 53/54/37 39/36/37 40/38/37 56/48/37
f 40/38/38 48/39/38 56/48/38
f 69/55/39 72/56/39 75/57/39 74/58/39
f 72/56/40 73/59/40 76/60/40 75/57/40
f 73/59/41 85/61/41 86/62/41 76/60/41
f 74/58/42 75/57/42 78/63/42 77/64/42
f 75/57/43 76/60/43 79/65/43 78/63/43
f 76/60/44 86/62/44 87/66/44 79/65/44
f 70/67/45 80/68/45 83/69/45 82/70/45
f 80/68/46 81/71/46 84/72/46 83/69/46
f 81/71/47 93/73/47 94/74/47 84/72/47
f 82/70/48 83/69/48 86/62/48 85/61/48
f 83/69/49 84/72/49 87/66/49 86/62/49
f 84/72/50 94/74/50 95/75/50 87/66/50
f 71/76/51 88/77/51 91/78/51 90/79/51
f 88/77/52 89/80/52 92/81/52 91/78/52
f 89/80/53 77/64/53 78/63/53 92/81/53
f 90/79/54 91/78/54 94/74/54 93/73/54
f 91/78/55 92/81/55 95/75/55 94/74/55
f 92/81/56 78/63/56 79/65/56 95/75/56
f 79/65/57 87/66/57 95/75/57
f 108/82/58 111/83/58 114/84/58 113/85/58
f 111/83/59 112/86/59 115/87/59 114/84/59
f 112/86/60 124/88/60 125/89/60 115/87/60
f 113/85/61 114/84/61 117/90/61 116/91/61
f 114/84/62 115/87/62 118/92/62 117/90/62
f 115/87/63 125/89/63 126/93/63 118/92/63
f 109/94/64 119/95/64 122/96/64 121/97/64
f 119/95/65 120/98/65 123/99/65 122/96/65
f 120/98/66 132/100/66 133/101/66 123/99/66
f 121/97/67 122/96/67 125/89/67 124/88/67
f 122/96/68 123/99/68 126/93/68 125/89/68
f 123/99/69 133/101/69 134/102/69 126/93/69
f 110/103/70 127/104/70 130/105/70 129/106/70
f 127/104/71 128/107/71 131/108/71 130/105/71
f 128/107/72 116/91/72 117/90/72 131/108/72
f 129/106/73 130/105/73 133/101/73 132/100/73
f 130/105/74 131/108/74 134/102/74 133/101/74
f 131/108/75 117/90/75 118/92/75 134/102/75
f 118/92/76 126/93/76 134/102/76
f 147/109/77 150/110/77 153/111/77 152/112/77
f 150/110/78 151/113/78 154/114/78 153/111/78
f 151/113/79 163/115/79 164/116/79 154/114/79
f 152/112/80 153/111/80 156/117/80 155/118/80
f 153/111/81 154/114/81 157/119/81 156/117/81
f 154/114/82 164/116/82 165/120/82 157/119/82
f 148/121/83 158/122/83 161/123/83 160/124/83
f 158/122/84 159/125/84 162/126/84 161/123/84
f 159/127/85 171/128/85 172/129/85 162/130/85
f 160/124/86 161/123/86 164/116/86 163/115/86
f 161/123/87 162/126/87 165/120/87 164/116/87
f 162/130/88 172/129/88 173/131/88 165/132/88
f 149/133/89 166/134/89 169/135/89 168/136/89
f 166/134/90 167/137/90 170/138/90 169/135/90
f 167/137/91 155/139/91 156/140/91 170/138/91
f 168/136/92 169/135/92 172/129/92 171/128/92
f 169/135/93 170/138/93 173/131/93 172/129/93
f 170/138/94 156/140/94 157/141/94 173/131/94
f 157/141/95 165/132/95 173/131/95
f 186/142/96 189/143/96 192/144/96 191/145/96
f 189/143/97 190/146/97 193/147/97 192/144/97
f 190/148/98 202/149/98 203/150/98 193/151/98
f 191/145/99 192/144/99 195/152/99 194/153/99
f 192/144/100 193/147/100 196/154/100 195/152/100
f 193/151/101 203/150/101 204/155/101 196/156/101
f 187/157/102 197/158/102 200/159/102 199/160/102
f 197/158/103 198/161/103 201/162/103 200/159/103
f 198/161/104 210/163/104 211/164/104 201/162/104
f 199/160/105 200/159/105 203/150/105 202/149/105
f 200/159/106 201/162/106 204/155/106 203/150/106
f 201/162/107 211/164/107 212/165/107 204/155/107
f 188/166/108 205/167/108 208/168/108 207/169/108
f 205/167/109 206/170/109 209/171/109 208/168/109
f 206/170/110 194/172/110 195/173/110 209/171/110
f 207/169/111 208/168/111 211/164/111 210/163/111
f 208/168/112 209/171/112 212/165/112 211/164/112
f 209/171/113 195/173/113 196/156/113 212/165/113
f 196/156/114 204/155/114 212/165/114
f 213/174/115 216/175/115 219/176/115 218/177/115
f 216/175/116 217/178/116 220/179/116 219/176/116
f 217/180/117 229/181/117 230/182/117 220/183/117
f 218/177/118 219/176/118 222/184/118 221/185/118
f 219/176/119 220/179/119 223/186/119 222/184/119
f 220/183/120 230/182/120 231/187/120 223/188/120
f 214/189/121 224/190/121 227/191/121 226/192/121
f 224/190/122 225/193/122 228/194/122 227/191/122
f 225/195/123 237/196/123 238/197/123 228/198/123
f 226/192/124 227/191/124 230/182/124 229/181/124
f 227/191/125 228/194/125 231/187/125 230/182/125
f 228/198/126 238/197/126 239/199/126 231/200/126
f 215/201/127 232/202/127 235/203/127 234/204/127
f 232/202/128 233/205/128 236/206/128 235/203/128
f 233/205/129 221/207/129 222/208/129 236/206/129
f 234/204/130 235/203/130 238/197/130 237/196/130
f 235/203/131 236/206/131 239/199/131 238/197/131
f 236/206/132 222/208/132 223/209/132 239/199/132
f 223/209/133 231/200/133 239/199/133
f 240/210/134 243/211/134 246/212/134 245/213/134
f 243/211/135 244/214/135 247/215/135 246/212/135
f 244/216/136 256/217/136 257/218/136 247/219/136
f 245/213/137 246/212/137 249/220/137 248/221/137
f 246/212/138 247/215/138 250/222/138 249/220/138
f 247/219/139 257/218/139 258/223/139 250/224/139
f 241/225/140 251/226/140 254/227/140 253/228/140
f 251/226/141 252/229/141 255/230/141 254/227/141
f 252/229/142 264/231/142 265/232/142 255/230/142
f 253/228/143 254/227/143 257/218/143 256/217/143
f 254/227/144 255/230/144 258/223/144 257/218/144
f 255/230/145 265/232/145 266/233/145 258/223/145
f 242/234/146 259/235/146 262/236/146 261/237/146
f 259/235/147 260/238/147 263/239/147 262/236/147
f 260/238/148 248/240/148 249/241/148 263/239/148
f 261/237/149 262/236/149 265/242/149 264/243/149
f 262/236/150 263/239/150 266/244/150 265/242/150
f 263/239/151 249/241/151 250/245/151 266/244/151
f 250/224/152 258/223/152 266/233/152
f 5/22/153 57/246/153 59/247/153 22/23/153
f 22/23/154 59/247/154 60/248/154 23/26/154
f 23/26/155 60/248/155 61/249/155 11/10/155
f 11/10/156 61/249/156 62/250/156 8/4/156
f 8/4/157 62/250/157 58/251/157 3/1/157
f 4/13/158 135/252/158 137/253/158 14/14/158
f 14/14/159 137/253/159 138/254/159 15/17/159
f 15/17/160 138/254/160 139/255/160 27/19/160
f 27/19/161 139/256/161 140/257/161 24/25/161
f 24/25/162 140/257/162 136/127/162 5/22/162
f 32/49/163 174/146/163 176/258/163 49/50/163
f 49/50/164 176/258/164 177/259/164 50/53/164
f 50/53/165 177/259/165 178/260/165 38/37/165
f 38/37/166 178/261/166 179/262/166 35/31/166
f 35/31/167 179/262/167 175/263/167 30/28/167
f 31/40/168 96/264/168 98/265/168 41/41/168
f 41/41/169 98/265/169 99/266/169 42/44/169
f 42/44/170 99/266/170 100/267/170 54/46/170
f 54/46/171 100/267/171 101/268/171 51/52/171
f 51/52/172 101/268/172 97/269/172 32/49/172
f 3/1/173 31/40/173 43/43/173 6/2/173
f 6/2/174 43/43/174 46/34/174 7/5/174
f 7/5/175 46/34/175 34/32/175 19/7/175
f 19/7/176 34/32/176 33/29/176 16/16/176
f 16/16/177 33/29/177 30/28/177 4/13/177
f 142/252/178 213/174/178 218/177/178 146/253/178
f 146/253/179 218/177/179 221/185/179 145/255/179
f 145/256/180 221/207/180 233/205/180 144/270/180
f 144/270/181 233/205/181 232/202/181 143/271/181
f 143/271/182 232/202/182 215/201/182 141/139/182
f 64/272/183 215/201/183 234/204/183 68/273/183
f 68/273/184 234/204/184 237/196/184 67/274/184
f 67/274/185 237/196/185 225/195/185 66/275/185
f 66/275/186 225/193/186 224/190/186 65/276/186
f 65/276/187 224/190/187 214/189/187 63/251/187
f 103/264/188 241/225/188 253/228/188 107/277/188
f 107/277/189 253/228/189 256/217/189 106/266/189
f 106/266/190 256/217/190 244/216/190 105/278/190
f 105/278/191 244/214/191 243/211/191 104/279/191
f 104/279/192 243/211/192 240/210/192 102/280/192
f 213/174/193 242/234/193 261/237/193 216/175/193
f 216/175/194 261/237/194 264/243/194 217/178/194
f 217/180/195 264/231/195 252/229/195 229/181/195
f 229/181/196 252/229/196 251/226/196 226/192/196
f 226/192/197 251/226/197 241/225/197 214/189/197
f 181/153/198 240/210/198 245/213/198 185/281/198
f 185/281/199 245/213/199 248/221/199 184/260/199
f 184/261/200 248/240/200 260/238/200 183/282/200
f 183/282/201 260/238/201 259/235/201 182/262/201
f 182/262/202 259/235/202 242/234/202 180/263/202
f 57/283/153 70/67/153 82/70/153 59/284/153
f 59/284/154 82/70/154 85/61/154 60/285/154
f 60/285/155 85/61/155 73/59/155 61/286/155
f 61/286/156 73/59/156 72/56/156 62/287/156
f 62/287/157 72/56/157 69/55/157 58/288/157
f 63/180/187 71/76/187 90/79/187 65/289/187
f 65/289/186 90/79/186 93/73/186 66/290/186
f 66/290/185 93/73/185 81/71/185 67/188/185
f 67/291/184 81/71/184 80/68/184 68/292/184
f 68/292/183 80/68/183 70/67/183 64/207/183
f 102/221/192 108/82/192 113/85/192 104/293/192
f 104/293/191 113/85/191 116/91/191 105/294/191
f 105/294/190 116/91/190 128/107/190 106/295/190
f 106/296/189 128/107/189 127/104/189 107/297/189
f 107/297/188 127/104/188 110/103/188 103/231/188
f 71/76/203 110/103/203 129/106/203 88/77/203
f 88/77/204 129/106/204 132/100/204 89/80/204
f 89/80/205 132/100/205 120/98/205 77/64/205
f 77/64/206 120/98/206 119/95/206 74/58/206
f 74/58/207 119/95/207 109/94/207 69/55/207
f 96/298/168 109/94/168 121/97/168 98/299/168
f 98/299/169 121/97/169 124/88/169 99/300/169
f 99/300/170 124/88/170 112/86/170 100/301/170
f 100/301/171 112/86/171 111/83/171 101/302/171
f 101/302/172 111/83/172 108/82/172 97/303/172
f 135/288/158 147/109/158 152/112/158 137/287/158
f 137/287/159 152/112/159 155/118/159 138/304/159
f 138/304/160 155/139/160 167/137/160 139/305/160
f 139/305/161 167/137/161 166/134/161 140/306/161
f 140/306/162 166/134/162 149/133/162 136/307/162
f 141/195/182 149/133/182 168/136/182 143/308/182
f 143/308/181 168/136/181 171/128/181 144/309/181
f 144/309/180 171/128/180 159/127/180 145/291/180
f 145/310/179 159/125/179 158/122/179 146/311/179
f 146/311/178 158/122/178 148/121/178 142/178/178
f 180/243/202 187/157/202 199/160/202 182/312/202
f 182/312/201 199/160/201 202/149/201 183/313/201
f 183/313/200 202/149/200 190/148/200 184/245/200
f 184/295/199 190/146/199 189/143/199 185/314/199
f 185/314/198 189/143/198 186/142/198 181/214/198
f 147/109/208 188/166/208 207/169/208 150/110/208
f 150/110/209 207/169/209 210/163/209 151/113/209
f 151/113/210 210/163/210 198/161/210 163/115/210
f 163/115/211 198/161/211 197/158/211 160/124/211
f 160/124/212 197/158/212 187/157/212 148/121/212
f 174/315/163 186/142/163 191/145/163 176/316/163
f 176/316/164 191/145/164 194/153/164 177/317/164
f 177/317/165 194/172/165 206/170/165 178/300/165
f 178/300/166 206/170/166 205/167/166 179/299/166
f 179/299/167 205/167/167 188/166/167 175/298/167
f 31/40/213 3/1/213 58/251/213 96/264/213
f 5/22/214 136/127/214 1/291/214 57/246/214
f 175/263/215 135/252/215 4/13/215 30/28/215
f 174/146/216 32/49/216 97/269/216 2/295/216
f 96/298/213 58/288/213 69/55/213 109/94/213
f 57/283/214 1/256/214 64/207/214 70/67/214
f 1/304/214 141/139/214 215/201/214 64/272/214
f 103/264/217 63/251/217 214/189/217 241/225/217
f 110/103/217 71/76/217 63/180/217 103/231/217
f 2/260/216 97/303/216 108/82/216 102/221/216
f 181/153/216 2/317/216 102/280/216 240/210/216
f 188/166/215 147/109/215 135/288/215 175/298/215
f 136/307/214 149/133/214 141/195/214 1/275/214
f 242/234/218 213/174/218 142/252/218 180/263/218
f 180/243/218 142/178/218 148/121/218 187/157/218
f 186/142/216 174/315/216 2/278/216 181/214/216
