# Blender 5.1.2
# www.blender.org
mtllib U.mtl
o Cube
v -0.150000 0.850000 1.000000
v 0.150000 1.000000 1.150000
v 0.000000 0.850000 0.850000
v -0.096145 0.895920 1.007935
v -0.033168 0.937849 1.028983
v -0.103853 0.850000 0.991996
v -0.064191 0.895292 0.999314
v -0.021738 0.934904 1.014995
v -0.062118 0.850000 0.970989
v -0.036986 0.894457 0.984511
v -0.011996 0.930053 0.999987
v 0.104080 0.992065 1.096145
v 0.062151 0.971017 1.033168
v 0.096145 0.992065 1.104080
v 0.063711 0.979251 1.064344
v 0.036859 0.962863 1.021794
v 0.033168 0.971017 1.062151
v 0.021536 0.962457 1.037007
v 0.012005 0.951037 1.012005
v -0.008004 0.850000 0.896147
v -0.029010 0.850000 0.937882
v 0.007935 0.895920 0.903855
v 0.000576 0.895032 0.936439
v -0.015083 0.894457 0.963161
v 0.028984 0.937849 0.966832
v 0.015397 0.934758 0.978517
v -0.000013 0.930053 0.988004
v 2.000000 0.850000 1.000000
v 1.850000 1.000000 1.000000
v 1.992658 0.896353 1.000000
v 1.971353 0.938168 1.000000
v 1.938168 0.971353 1.000000
v 1.896353 0.992658 1.000000
v 2.000000 0.850000 -1.000000
v 1.850000 1.000000 -1.000000
v 1.992658 0.896353 -1.000000
v 1.971353 0.938168 -1.000000
v 1.938168 0.971353 -1.000000
v 1.896353 0.992658 -1.000000
v 2.000000 0.850000 -2.850000
v 1.850000 0.850000 -3.000000
v 1.850000 1.000000 -2.850000
v 1.992656 0.850000 -2.896362
v 1.971363 0.850000 -2.938153
v 1.992656 0.896361 -2.850000
v 1.983958 0.897590 -2.897859
v 1.963857 0.896039 -2.936122
v 1.971363 0.938153 -2.850000
v 1.963751 0.936198 -2.896158
v 1.949506 0.929368 -2.929368
v 1.850000 0.896361 -2.992656
v 1.850000 0.938153 -2.971364
v 1.896361 0.850000 -2.992656
v 1.897590 0.897858 -2.983959
v 1.896039 0.936122 -2.963858
v 1.938153 0.850000 -2.971364
v 1.936198 0.896158 -2.963751
v 1.929368 0.929368 -2.949507
v 1.896361 0.992656 -2.850000
v 1.938153 0.971363 -2.850000
v 1.850000 0.992656 -2.896362
v 1.897858 0.983958 -2.897591
v 1.936122 0.963857 -2.896039
v 1.850000 0.971363 -2.938153
v 1.896158 0.963751 -2.936199
v 1.929368 0.949506 -2.929368
v -0.150000 -0.850000 1.000000
v 0.000000 -0.850000 0.850000
v 0.150000 -1.000000 1.150000
v -0.103853 -0.850000 0.991996
v -0.062118 -0.850000 0.970989
v -0.096145 -0.895920 1.007935
v -0.063561 -0.895032 1.000576
v -0.036839 -0.894457 0.984916
v -0.033168 -0.937849 1.028983
v -0.021483 -0.934758 1.015397
v -0.011996 -0.930053 0.999987
v 0.007935 -0.895920 0.903855
v 0.028984 -0.937849 0.966832
v -0.008004 -0.850000 0.896147
v -0.000686 -0.895291 0.935809
v 0.014995 -0.934904 0.978262
v -0.029010 -0.850000 0.937881
v -0.015489 -0.894457 0.963014
v -0.000013 -0.930053 0.988004
v 0.096145 -0.992065 1.104080
v 0.033168 -0.971016 1.062151
v 0.104080 -0.992065 1.096145
v 0.064344 -0.979251 1.063711
v 0.021794 -0.962863 1.036859
v 0.062151 -0.971017 1.033168
v 0.037007 -0.962457 1.021536
v 0.012005 -0.951037 1.012005
v 1.850000 -1.000000 1.000000
v 2.000000 -0.850000 1.000000
v 1.896353 -0.992658 1.000000
v 1.938168 -0.971353 1.000000
v 1.971353 -0.938168 1.000000
v 1.992658 -0.896353 1.000000
v 1.850000 -1.000000 -1.000000
v 2.000000 -0.850000 -1.000000
v 1.896353 -0.992658 -1.000000
v 1.938168 -0.971353 -1.000000
v 1.971353 -0.938168 -1.000000
v 1.992658 -0.896353 -1.000000
v 1.850000 -0.850000 -3.000000
v 2.000000 -0.850000 -2.850000
v 1.850000 -1.000000 -2.850000
v 1.896361 -0.850000 -2.992656
v 1.938153 -0.850000 -2.971364
v 1.850000 -0.896361 -2.992656
v 1.897858 -0.897590 -2.983959
v 1.936122 -0.896039 -2.963858
v 1.850000 -0.938153 -2.971364
v 1.896158 -0.936198 -2.963751
v 1.929368 -0.929368 -2.949507
v 1.992656 -0.896361 -2.850000
v 1.971363 -0.938153 -2.850000
v 1.992656 -0.850000 -2.896362
v 1.983958 -0.897858 -2.897591
v 1.963857 -0.936122 -2.896039
v 1.971363 -0.850000 -2.938153
v 1.963751 -0.896158 -2.936199
v 1.949506 -0.929368 -2.929368
v 1.850000 -0.992656 -2.896362
v 1.850000 -0.971363 -2.938153
v 1.896361 -0.992656 -2.850000
v 1.897590 -0.983958 -2.897859
v 1.896039 -0.963857 -2.936122
v 1.938153 -0.971363 -2.850000
v 1.936198 -0.963751 -2.896158
v 1.929368 -0.949506 -2.929368
v 0.000000 0.850000 3.000000
v 0.000000 1.000000 2.850000
v 0.000000 0.896353 2.992659
v 0.000000 0.938168 2.971353
v 0.000000 0.971353 2.938168
v 0.000000 0.992658 2.896353
v 2.000000 0.850000 2.850000
v 1.850000 1.000000 2.850000
v 1.850000 0.850000 3.000000
v 1.992656 0.896361 2.850000
v 1.971363 0.938153 2.850000
v 1.992656 0.850000 2.896361
v 1.983958 0.897858 2.897590
v 1.963857 0.936122 2.896039
v 1.971363 0.850000 2.938153
v 1.963751 0.896158 2.936198
v 1.949506 0.929368 2.929368
v 1.850000 0.992656 2.896361
v 1.850000 0.971363 2.938153
v 1.896361 0.992656 2.850000
v 1.897590 0.983958 2.897858
v 1.896039 0.963857 2.936122
v 1.938153 0.971363 2.850000
v 1.936198 0.963751 2.896158
v 1.929368 0.949506 2.929368
v 1.896361 0.850000 2.992656
v 1.938153 0.850000 2.971363
v 1.850000 0.896361 2.992656
v 1.897858 0.897590 2.983958
v 1.936122 0.896039 2.963857
v 1.850000 0.938153 2.971363
v 1.896158 0.936198 2.963751
v 1.929368 0.929368 2.949506
v 0.000000 -1.000000 2.850000
v 0.000000 -0.850000 3.000000
v 0.000000 -0.992658 2.896353
v 0.000000 -0.971353 2.938168
v 0.000000 -0.938168 2.971353
v 0.000000 -0.896353 2.992659
v 1.850000 -1.000000 2.850000
v 2.000000 -0.850000 2.850000
v 1.850000 -0.850000 3.000000
v 1.896361 -0.992656 2.850000
v 1.938153 -0.971363 2.850000
v 1.850000 -0.992656 2.896361
v 1.897858 -0.983958 2.897590
v 1.936122 -0.963857 2.896039
v 1.850000 -0.971363 2.938153
v 1.896158 -0.963751 2.936198
v 1.929368 -0.949506 2.929368
v 1.992656 -0.850000 2.896361
v 1.971363 -0.850000 2.938153
v 1.992656 -0.896361 2.850000
v 1.983958 -0.897590 2.897858
v 1.963857 -0.896039 2.936122
v 1.971363 -0.938153 2.850000
v 1.963751 -0.936198 2.896158
v 1.949506 -0.929368 2.929368
v 1.850000 -0.896361 2.992656
v 1.850000 -0.938153 2.971363
v 1.896361 -0.850000 2.992656
v 1.897590 -0.897858 2.983958
v 1.896039 -0.936122 2.963857
v 1.938153 -0.850000 2.971363
v 1.936198 -0.896158 2.963751
v 1.929368 -0.929368 2.949506
v -1.850000 0.850000 1.000000
v -2.000000 0.850000 1.150000
v -1.850000 1.000000 1.150000
v -1.896361 0.850000 1.007344
v -1.938153 0.850000 1.028637
v -1.850000 0.896361 1.007344
v -1.897858 0.897590 1.016042
v -1.936122 0.896039 1.036143
v -1.850000 0.938153 1.028637
v -1.896158 0.936198 1.036249
v -1.929368 0.929368 1.050494
v -1.992656 0.896361 1.150000
v -1.971363 0.938153 1.150000
v -1.992656 0.850000 1.103639
v -1.983958 0.897858 1.102410
v -1.963857 0.936122 1.103961
v -1.971363 0.850000 1.061847
v -1.963751 0.896158 1.063802
v -1.949506 0.929368 1.070632
v -1.850000 0.992656 1.103639
v -1.850000 0.971363 1.061847
v -1.896361 0.992656 1.150000
v -1.897590 0.983958 1.102142
v -1.896039 0.963857 1.063878
v -1.938153 0.971363 1.150000
v -1.936198 0.963751 1.103842
v -1.929368 0.949506 1.070632
v 0.000000 0.850000 -0.850000
v 0.150000 1.000000 -1.150000
v -0.150000 0.850000 -1.000000
v 0.007935 0.895920 -0.903855
v 0.028984 0.937849 -0.966832
v -0.008004 0.850000 -0.896147
v -0.000686 0.895291 -0.935809
v 0.014995 0.934904 -0.978261
v -0.029011 0.850000 -0.937882
v -0.015489 0.894457 -0.963014
v -0.000013 0.930053 -0.988004
v 0.096145 0.992065 -1.104080
v 0.033168 0.971016 -1.062151
v 0.104080 0.992065 -1.096146
v 0.064344 0.979251 -1.063711
v 0.021794 0.962863 -1.036859
v 0.062151 0.971017 -1.033168
v 0.037007 0.962457 -1.021537
v 0.012005 0.951037 -1.012004
v -0.103853 0.850000 -0.991996
v -0.062118 0.850000 -0.970989
v -0.096145 0.895920 -1.007935
v -0.063561 0.895032 -1.000576
v -0.036839 0.894457 -0.984916
v -0.033168 0.937849 -1.028984
v -0.021483 0.934758 -1.015397
v -0.011996 0.930053 -0.999987
v 0.000000 0.850000 -3.000000
v 0.000000 1.000000 -2.850000
v 0.000000 0.896353 -2.992659
v 0.000000 0.938168 -2.971353
v 0.000000 0.971353 -2.938168
v 0.000000 0.992658 -2.896353
v -1.850000 0.850000 -3.000000
v -2.000000 0.850000 -2.850000
v -1.850000 1.000000 -2.850000
v -1.896361 0.850000 -2.992656
v -1.938153 0.850000 -2.971364
v -1.850000 0.896361 -2.992656
v -1.897858 0.897590 -2.983959
v -1.936122 0.896039 -2.963858
v -1.850000 0.938153 -2.971364
v -1.896158 0.936198 -2.963751
v -1.929368 0.929368 -2.949507
v -1.992656 0.896361 -2.850000
v -1.971363 0.938153 -2.850000
v -1.992656 0.850000 -2.896362
v -1.983958 0.897858 -2.897591
v -1.963857 0.936122 -2.896039
v -1.971363 0.850000 -2.938153
v -1.963751 0.896158 -2.936199
v -1.949506 0.929368 -2.929368
v -1.850000 0.992656 -2.896362
v -1.850000 0.971363 -2.938153
v -1.896361 0.992656 -2.850000
v -1.897590 0.983958 -2.897859
v -1.896039 0.963857 -2.936122
v -1.938153 0.971363 -2.850000
v -1.936198 0.963751 -2.896158
v -1.929368 0.949506 -2.929368
v -1.850000 -1.000000 1.150000
v -2.000000 -0.850000 1.150000
v -1.850000 -0.850000 1.000000
v -1.896361 -0.992656 1.150000
v -1.938153 -0.971363 1.150000
v -1.850000 -0.992656 1.103639
v -1.897858 -0.983958 1.102410
v -1.936122 -0.963857 1.103961
v -1.850000 -0.971363 1.061847
v -1.896158 -0.963751 1.063802
v -1.929368 -0.949506 1.070632
v -1.992656 -0.850000 1.103639
v -1.971363 -0.850000 1.061847
v -1.992656 -0.896361 1.150000
v -1.983958 -0.897590 1.102142
v -1.963857 -0.896039 1.063878
v -1.971363 -0.938153 1.150000
v -1.963751 -0.936198 1.103842
v -1.949506 -0.929368 1.070632
v -1.850000 -0.896361 1.007344
v -1.850000 -0.938153 1.028637
v -1.896361 -0.850000 1.007344
v -1.897590 -0.897858 1.016042
v -1.896039 -0.936122 1.036143
v -1.938153 -0.850000 1.028637
v -1.936198 -0.896158 1.036249
v -1.929368 -0.929368 1.050494
v 0.000000 -0.850000 -0.850000
v -0.150000 -0.850000 -1.000000
v 0.150000 -1.000000 -1.150000
v -0.008004 -0.850000 -0.896147
v -0.029010 -0.850000 -0.937881
v 0.007935 -0.895920 -0.903855
v 0.000576 -0.895032 -0.936439
v -0.015084 -0.894457 -0.963161
v 0.028984 -0.937849 -0.966832
v 0.015397 -0.934758 -0.978517
v -0.000013 -0.930053 -0.988004
v -0.096145 -0.895920 -1.007935
v -0.033168 -0.937849 -1.028984
v -0.103853 -0.850000 -0.991996
v -0.064191 -0.895292 -0.999314
v -0.021738 -0.934904 -1.014995
v -0.062118 -0.850000 -0.970989
v -0.036986 -0.894457 -0.984511
v -0.011996 -0.930053 -0.999987
v 0.104080 -0.992065 -1.096146
v 0.062151 -0.971017 -1.033168
v 0.096145 -0.992065 -1.104080
v 0.063711 -0.979251 -1.064344
v 0.036859 -0.962863 -1.021794
v 0.033168 -0.971017 -1.062151
v 0.021536 -0.962457 -1.037007
v 0.012005 -0.951037 -1.012005
v 0.000000 -1.000000 -2.850000
v 0.000000 -0.850000 -3.000000
v 0.000000 -0.992658 -2.896353
v 0.000000 -0.971353 -2.938168
v 0.000000 -0.938168 -2.971353
v 0.000000 -0.896353 -2.992659
v -1.850000 -1.000000 -2.850000
v -2.000000 -0.850000 -2.850000
v -1.850000 -0.850000 -3.000000
v -1.896361 -0.992656 -2.850000
v -1.938153 -0.971363 -2.850000
v -1.850000 -0.992656 -2.896361
v -1.897858 -0.983958 -2.897590
v -1.936122 -0.963857 -2.896039
v -1.850000 -0.971363 -2.938153
v -1.896158 -0.963751 -2.936198
v -1.929368 -0.949506 -2.929368
v -1.992656 -0.850000 -2.896361
v -1.971363 -0.850000 -2.938153
v -1.992656 -0.896361 -2.850000
v -1.983958 -0.897590 -2.897858
v -1.963857 -0.896039 -2.936121
v -1.971363 -0.938153 -2.850000
v -1.963751 -0.936198 -2.896158
v -1.949506 -0.929368 -2.929368
v -1.850000 -0.896361 -2.992656
v -1.850000 -0.938153 -2.971363
v -1.896361 -0.850000 -2.992656
v -1.897590 -0.897858 -2.983958
v -1.896039 -0.936122 -2.963857
v -1.938153 -0.850000 -2.971363
v -1.936198 -0.896158 -2.963751
v -1.929368 -0.929368 -2.949506
v -2.000000 0.850000 2.850000
v -1.850000 0.850000 3.000000
v -1.850000 1.000000 2.850000
v -1.992656 0.850000 2.896361
v -1.971363 0.850000 2.938153
v -1.992656 0.896361 2.850000
v -1.983958 0.897590 2.897858
v -1.963857 0.896039 2.936122
v -1.971363 0.938153 2.850000
v -1.963751 0.936198 2.896158
v -1.949506 0.929368 2.929368
v -1.850000 0.896361 2.992656
v -1.850000 0.938153 2.971363
v -1.896361 0.850000 2.992656
v -1.897590 0.897858 2.983958
v -1.896039 0.936122 2.963857
v -1.938153 0.850000 2.971363
v -1.936198 0.896158 2.963751
v -1.929368 0.929368 2.949506
v -1.896361 0.992656 2.850000
v -1.938153 0.971363 2.850000
v -1.850000 0.992656 2.896361
v -1.897858 0.983958 2.897590
v -1.936122 0.963857 2.896039
v -1.850000 0.971363 2.938153
v -1.896158 0.963751 2.936198
v -1.929368 0.949506 2.929368
v -2.000000 0.850000 -1.150000
v -1.850000 0.850000 -1.000000
v -1.850000 1.000000 -1.150000
v -1.992656 0.850000 -1.103639
v -1.971363 0.850000 -1.061847
v -1.992656 0.896361 -1.150000
v -1.983958 0.897590 -1.102142
v -1.963857 0.896039 -1.063878
v -1.971363 0.938153 -1.150000
v -1.963751 0.936198 -1.103842
v -1.949506 0.929368 -1.070632
v -1.850000 0.896361 -1.007344
v -1.850000 0.938153 -1.028637
v -1.896361 0.850000 -1.007344
v -1.897590 0.897858 -1.016042
v -1.896039 0.936122 -1.036143
v -1.938153 0.850000 -1.028637
v -1.936198 0.896158 -1.036249
v -1.929368 0.929368 -1.050494
v -1.896361 0.992656 -1.150000
v -1.938153 0.971363 -1.150000
v -1.850000 0.992656 -1.103639
v -1.897858 0.983958 -1.102410
v -1.936122 0.963857 -1.103961
v -1.850000 0.971363 -1.061847
v -1.896158 0.963751 -1.063802
v -1.929368 0.949506 -1.070632
v -1.850000 -1.000000 2.850000
v -1.850000 -0.850000 3.000000
v -2.000000 -0.850000 2.850000
v -1.850000 -0.992656 2.896361
v -1.850000 -0.971363 2.938153
v -1.896361 -0.992656 2.850000
v -1.897590 -0.983958 2.897858
v -1.896039 -0.963857 2.936122
v -1.938153 -0.971363 2.850000
v -1.936198 -0.963751 2.896158
v -1.929368 -0.949506 2.929368
v -1.896361 -0.850000 2.992656
v -1.938153 -0.850000 2.971363
v -1.850000 -0.896361 2.992656
v -1.897858 -0.897590 2.983958
v -1.936122 -0.896039 2.963857
v -1.850000 -0.938153 2.971363
v -1.896158 -0.936198 2.963751
v -1.929368 -0.929368 2.949506
v -1.992656 -0.896361 2.850000
v -1.971363 -0.938153 2.850000
v -1.992656 -0.850000 2.896361
v -1.983958 -0.897858 2.897590
v -1.963857 -0.936122 2.896039
v -1.971363 -0.850000 2.938153
v -1.963751 -0.896158 2.936198
v -1.949506 -0.929368 2.929368
v -1.850000 -1.000000 -1.150000
v -1.850000 -0.850000 -1.000000
v -2.000000 -0.850000 -1.150000
v -1.850000 -0.992656 -1.103639
v -1.850000 -0.971363 -1.061847
v -1.896361 -0.992656 -1.150000
v -1.897590 -0.983958 -1.102142
v -1.896039 -0.963857 -1.063878
v -1.938153 -0.971363 -1.150000
v -1.936198 -0.963751 -1.103842
v -1.929368 -0.949506 -1.070632
v -1.896361 -0.850000 -1.007344
v -1.938153 -0.850000 -1.028637
v -1.850000 -0.896361 -1.007344
v -1.897858 -0.897590 -1.016042
v -1.936122 -0.896039 -1.036143
v -1.850000 -0.938153 -1.028637
v -1.896158 -0.936198 -1.036249
v -1.929368 -0.929368 -1.050494
v -1.992656 -0.896361 -1.150000
v -1.971363 -0.938153 -1.150000
v -1.992656 -0.850000 -1.103639
v -1.983958 -0.897858 -1.102410
v -1.963857 -0.936122 -1.103961
v -1.971363 -0.850000 -1.061847
v -1.963751 -0.896158 -1.063802
v -1.949506 -0.929368 -1.070632
vn -0.1923 0.3504 -0.9166
vn -0.2934 0.6814 -0.6706
vn -0.3639 0.8941 -0.2610
vn -0.4018 0.4723 -0.7846
vn -0.4192 0.6419 -0.6420
vn -0.4298 0.8356 -0.3421
vn -0.1190 0.9857 -0.1189
vn -0.1444 0.9585 -0.2459
vn -0.2610 0.8922 -0.3687
vn -0.2476 0.9576 -0.1473
vn -0.2647 0.9335 -0.2417
vn -0.3384 0.8324 -0.4389
vn -0.9205 0.3490 -0.1757
vn -0.7691 0.4922 -0.4078
vn -0.5981 0.5264 -0.6042
vn -0.7012 0.6588 -0.2726
vn -0.6256 0.6420 -0.4432
vn -0.5480 0.6239 -0.5571
vn -0.4496 0.7718 -0.4496
vn 0.9729 0.1635 -0.1635
vn 0.8764 0.1543 -0.4562
vn 0.6996 0.1450 -0.6997
vn 0.8764 0.4557 -0.1556
vn 0.7924 0.4314 -0.4314
vn 0.6456 0.4090 -0.6449
vn 0.1635 0.1635 -0.9729
vn 0.1543 0.4562 -0.8764
vn 0.1450 0.6997 -0.6996
vn 0.4557 0.1556 -0.8764
vn 0.4314 0.4314 -0.7924
vn 0.4090 0.6449 -0.6456
vn 0.1635 0.9729 -0.1635
vn 0.4562 0.8764 -0.1543
vn 0.6997 0.6996 -0.1450
vn 0.1556 0.8764 -0.4557
vn 0.4314 0.7924 -0.4314
vn 0.6449 0.6456 -0.4090
vn 0.5774 0.5774 -0.5773
vn -0.1757 -0.3490 -0.9205
vn -0.4078 -0.4922 -0.7691
vn -0.6042 -0.5264 -0.5981
vn -0.2726 -0.6588 -0.7012
vn -0.4432 -0.6420 -0.6256
vn -0.5571 -0.6239 -0.5480
vn -0.9166 -0.3504 -0.1923
vn -0.6706 -0.6814 -0.2934
vn -0.2610 -0.8941 -0.3639
vn -0.7846 -0.4723 -0.4018
vn -0.6420 -0.6419 -0.4192
vn -0.3421 -0.8356 -0.4298
vn -0.1190 -0.9857 -0.1189
vn -0.2459 -0.9585 -0.1444
vn -0.3687 -0.8922 -0.2610
vn -0.1473 -0.9576 -0.2476
vn -0.2417 -0.9335 -0.2647
vn -0.4389 -0.8324 -0.3384
vn -0.4496 -0.7718 -0.4496
vn 0.1635 -0.1635 -0.9729
vn 0.4562 -0.1543 -0.8764
vn 0.6997 -0.1450 -0.6996
vn 0.1556 -0.4557 -0.8764
vn 0.4314 -0.4314 -0.7924
vn 0.6449 -0.4090 -0.6456
vn 0.9729 -0.1635 -0.1635
vn 0.8764 -0.4562 -0.1543
vn 0.6996 -0.6997 -0.1450
vn 0.8764 -0.1556 -0.4557
vn 0.7924 -0.4314 -0.4313
vn 0.6456 -0.6449 -0.4090
vn 0.1635 -0.9729 -0.1635
vn 0.1543 -0.8764 -0.4562
vn 0.1450 -0.6996 -0.6997
vn 0.4557 -0.8764 -0.1556
vn 0.4314 -0.7924 -0.4314
vn 0.4090 -0.6456 -0.6449
vn 0.5774 -0.5774 -0.5773
vn 0.9729 0.1635 0.1635
vn 0.8764 0.4562 0.1543
vn 0.6996 0.6997 0.1450
vn 0.8764 0.1556 0.4557
vn 0.7924 0.4314 0.4313
vn 0.6456 0.6449 0.4090
vn 0.1635 0.9729 0.1635
vn 0.1543 0.8764 0.4562
vn 0.1450 0.6996 0.6997
vn 0.4557 0.8764 0.1556
vn 0.4313 0.7924 0.4314
vn 0.4090 0.6456 0.6449
vn 0.1635 0.1635 0.9729
vn 0.4562 0.1543 0.8764
vn 0.6997 0.1450 0.6996
vn 0.1556 0.4557 0.8764
vn 0.4314 0.4314 0.7924
vn 0.6449 0.4090 0.6456
vn 0.5774 0.5774 0.5773
vn 0.1635 -0.9729 0.1635
vn 0.4562 -0.8764 0.1543
vn 0.6997 -0.6996 0.1450
vn 0.1556 -0.8764 0.4557
vn 0.4314 -0.7924 0.4313
vn 0.6449 -0.6456 0.4090
vn 0.9729 -0.1635 0.1635
vn 0.8764 -0.1543 0.4562
vn 0.6996 -0.1450 0.6997
vn 0.8764 -0.4557 0.1556
vn 0.7924 -0.4313 0.4314
vn 0.6456 -0.4090 0.6449
vn 0.1635 -0.1635 0.9729
vn 0.1543 -0.4562 0.8764
vn 0.1450 -0.6997 0.6996
vn 0.4557 -0.1556 0.8764
vn 0.4313 -0.4314 0.7924
vn 0.4090 -0.6449 0.6456
vn 0.5774 -0.5774 0.5773
vn -0.1635 0.1635 -0.9729
vn -0.4562 0.1543 -0.8764
vn -0.6997 0.1450 -0.6996
vn -0.1556 0.4557 -0.8764
vn -0.4314 0.4313 -0.7924
vn -0.6449 0.4090 -0.6456
vn -0.9729 0.1635 -0.1635
vn -0.8764 0.4562 -0.1543
vn -0.6996 0.6997 -0.1450
vn -0.8764 0.1556 -0.4557
vn -0.7924 0.4314 -0.4313
vn -0.6456 0.6449 -0.4090
vn -0.1635 0.9729 -0.1635
vn -0.1543 0.8764 -0.4562
vn -0.1450 0.6996 -0.6997
vn -0.4557 0.8764 -0.1556
vn -0.4313 0.7924 -0.4314
vn -0.4090 0.6456 -0.6449
vn -0.5774 0.5774 -0.5774
vn -0.9166 0.3504 0.1923
vn -0.6706 0.6814 0.2934
vn -0.2610 0.8941 0.3639
vn -0.7846 0.4723 0.4018
vn -0.6420 0.6419 0.4192
vn -0.3421 0.8356 0.4298
vn -0.1190 0.9857 0.1190
vn -0.2459 0.9585 0.1444
vn -0.3687 0.8922 0.2610
vn -0.1473 0.9576 0.2476
vn -0.2417 0.9335 0.2647
vn -0.4389 0.8324 0.3384
vn -0.1757 0.3490 0.9205
vn -0.4078 0.4922 0.7691
vn -0.6042 0.5264 0.5981
vn -0.2726 0.6588 0.7012
vn -0.4432 0.6420 0.6256
vn -0.5571 0.6239 0.5480
vn -0.4496 0.7718 0.4496
vn -0.4314 0.4314 -0.7924
vn -0.4314 0.7924 -0.4314
vn -0.5774 0.5774 -0.5773
vn -0.1635 -0.9729 -0.1635
vn -0.4562 -0.8764 -0.1543
vn -0.6997 -0.6996 -0.1450
vn -0.1556 -0.8764 -0.4557
vn -0.4314 -0.7924 -0.4313
vn -0.6449 -0.6456 -0.4090
vn -0.9729 -0.1635 -0.1635
vn -0.8764 -0.1543 -0.4562
vn -0.6996 -0.1450 -0.6997
vn -0.8764 -0.4557 -0.1556
vn -0.7924 -0.4313 -0.4314
vn -0.6456 -0.4090 -0.6449
vn -0.1635 -0.1635 -0.9729
vn -0.1543 -0.4562 -0.8764
vn -0.1450 -0.6997 -0.6996
vn -0.4557 -0.1556 -0.8764
vn -0.4313 -0.4314 -0.7924
vn -0.4090 -0.6449 -0.6456
vn -0.5774 -0.5774 -0.5774
vn -0.9205 -0.3490 0.1757
vn -0.7691 -0.4922 0.4078
vn -0.5981 -0.5264 0.6042
vn -0.7012 -0.6587 0.2726
vn -0.6256 -0.6420 0.4432
vn -0.5480 -0.6239 0.5571
vn -0.1923 -0.3504 0.9166
vn -0.2934 -0.6814 0.6706
vn -0.3639 -0.8941 0.2610
vn -0.4018 -0.4723 0.7846
vn -0.4192 -0.6419 0.6420
vn -0.4298 -0.8356 0.3421
vn -0.1190 -0.9857 0.1189
vn -0.1444 -0.9585 0.2459
vn -0.2610 -0.8922 0.3687
vn -0.2476 -0.9576 0.1473
vn -0.2647 -0.9335 0.2417
vn -0.3384 -0.8324 0.4389
vn -0.4496 -0.7718 0.4497
vn -0.4314 -0.4314 -0.7924
vn -0.5774 -0.5774 -0.5773
vn -0.9729 0.1635 0.1635
vn -0.8764 0.1543 0.4562
vn -0.6996 0.1450 0.6997
vn -0.8764 0.4557 0.1556
vn -0.7924 0.4313 0.4314
vn -0.6456 0.4090 0.6449
vn -0.1635 0.1635 0.9729
vn -0.1543 0.4562 0.8764
vn -0.1450 0.6997 0.6996
vn -0.4557 0.1556 0.8764
vn -0.4313 0.4314 0.7924
vn -0.4090 0.6449 0.6456
vn -0.1635 0.9729 0.1635
vn -0.4562 0.8764 0.1543
vn -0.6997 0.6996 0.1450
vn -0.1556 0.8764 0.4557
vn -0.4314 0.7924 0.4313
vn -0.6449 0.6456 0.4090
vn -0.5774 0.5774 0.5774
vn -0.5774 0.5773 0.5774
vn -0.1635 -0.9729 0.1635
vn -0.1543 -0.8764 0.4562
vn -0.1450 -0.6996 0.6997
vn -0.4557 -0.8764 0.1556
vn -0.4313 -0.7924 0.4314
vn -0.4090 -0.6456 0.6449
vn -0.1635 -0.1635 0.9729
vn -0.4562 -0.1543 0.8764
vn -0.6997 -0.1450 0.6996
vn -0.1556 -0.4557 0.8764
vn -0.4314 -0.4313 0.7924
vn -0.6449 -0.4090 0.6456
vn -0.9729 -0.1635 0.1635
vn -0.8764 -0.4562 0.1543
vn -0.6996 -0.6997 0.1450
vn -0.8764 -0.1556 0.4557
vn -0.7924 -0.4314 0.4313
vn -0.6456 -0.6449 0.4090
vn -0.5774 -0.5774 0.5774
vn -0.4314 -0.7924 0.4314
vn -0.5774 -0.5773 0.5774
vn 0.0002 0.1632 -0.9866
vn 0.0003 0.4511 -0.8925
vn 0.0002 0.7070 -0.7072
vn 0.0003 0.8923 -0.4515
vn 0.0002 0.9866 -0.1634
vn -0.9877 0.1565 -0.0000
vn -0.8910 0.4540 -0.0000
vn -0.7071 0.7071 -0.0000
vn -0.4540 0.8910 -0.0000
vn -0.1565 0.9877 -0.0000
vn -0.0000 0.9877 0.1564
vn -0.0000 0.8910 0.4540
vn -0.0000 0.7071 0.7071
vn -0.0000 0.4540 0.8910
vn -0.0000 0.1564 0.9877
vn -0.0000 -0.1564 0.9877
vn -0.0000 -0.4540 0.8910
vn -0.0000 -0.7071 0.7071
vn -0.0000 -0.8910 0.4540
vn -0.0000 -0.9877 0.1564
vn -0.9877 -0.0000 0.1565
vn -0.8910 -0.0000 0.4540
vn -0.7071 -0.0000 0.7071
vn -0.4540 -0.0000 0.8910
vn -0.1565 -0.0000 0.9877
vn -0.1565 -0.9877 -0.0000
vn -0.4540 -0.8910 -0.0000
vn -0.7071 -0.7071 -0.0000
vn -0.8910 -0.4540 -0.0000
vn -0.9877 -0.1565 -0.0000
vn -0.1565 -0.0000 -0.9877
vn -0.4540 -0.0000 -0.8910
vn -0.7071 -0.0000 -0.7071
vn -0.8910 -0.0000 -0.4540
vn -0.9877 -0.0000 -0.1565
vn 0.0002 -0.9866 -0.1634
vn 0.0003 -0.8923 -0.4515
vn 0.0002 -0.7070 -0.7072
vn 0.0003 -0.4511 -0.8925
vn 0.0002 -0.1632 -0.9866
vn -0.9853 -0.0000 -0.1709
vn -0.8932 -0.0000 -0.4496
vn -0.4496 -0.0000 -0.8932
vn -0.1709 -0.0000 -0.9853
vn 0.1564 0.9877 -0.0000
vn 0.4540 0.8910 -0.0000
vn 0.7071 0.7071 -0.0000
vn 0.8910 0.4540 -0.0000
vn 0.9877 0.1564 -0.0000
vn 0.1565 -0.0000 0.9877
vn 0.4540 -0.0000 0.8910
vn 0.7071 -0.0000 0.7071
vn 0.8910 -0.0000 0.4540
vn 0.9877 -0.0000 0.1565
vn 0.9877 -0.1564 -0.0000
vn 0.8910 -0.4540 -0.0000
vn 0.7071 -0.7071 -0.0000
vn 0.4540 -0.8910 -0.0000
vn 0.1564 -0.9877 -0.0000
vn -0.1703 0.9854 -0.0000
vn -0.4486 0.8937 -0.0000
vn -0.8937 0.4486 -0.0000
vn -0.9854 0.1703 -0.0000
vn -0.9854 -0.1703 -0.0000
vn -0.8937 -0.4486 -0.0000
vn -0.4486 -0.8937 -0.0000
vn -0.1703 -0.9854 -0.0000
vn -0.1709 -0.0000 0.9853
vn -0.4496 -0.0000 0.8932
vn -0.8932 -0.0000 0.4496
vn -0.9853 -0.0000 0.1709
vn -0.0000 0.1564 -0.9877
vn -0.0000 0.4540 -0.8910
vn -0.0000 0.7071 -0.7071
vn -0.0000 0.8910 -0.4540
vn -0.0000 0.9877 -0.1564
vn -0.0000 -0.9877 -0.1564
vn -0.0000 -0.8910 -0.4540
vn -0.0000 -0.7071 -0.7071
vn -0.0000 -0.4540 -0.8910
vn -0.0000 -0.1564 -0.9877
vn 0.9877 -0.0000 -0.1565
vn 0.8910 -0.0000 -0.4540
vn 0.7071 -0.0000 -0.7071
vn 0.4540 -0.0000 -0.8910
vn 0.1565 -0.0000 -0.9877
vn 0.0002 0.9866 0.1634
vn 0.0003 0.8923 0.4515
vn 0.0002 0.7070 0.7072
vn 0.0003 0.4511 0.8925
vn 0.0002 0.1632 0.9866
vn 0.0002 -0.1632 0.9866
vn 0.0003 -0.4511 0.8925
vn 0.0002 -0.7070 0.7072
vn 0.0003 -0.8923 0.4515
vn 0.0002 -0.9866 0.1634
vn -0.0000 1.0000 -0.0000
vn -0.0000 -0.0000 -1.0000
vn -1.0000 -0.0000 -0.0000
vn 1.0000 -0.0000 -0.0000
vn -0.0000 -1.0000 -0.0000
vn -0.0000 -0.0000 1.0000
vt 0.606250 0.481250
vt 0.611990 0.487982
vt 0.611911 0.491976
vt 0.606250 0.487018
vt 0.622152 0.496891
vt 0.616863 0.497283
vt 0.622236 0.505179
vt 0.625000 0.500000
vt 0.611807 0.495377
vt 0.606250 0.492235
vt 0.618817 0.498875
vt 0.621190 0.501501
vt 0.856250 0.768750
vt 0.861990 0.762018
vt 0.867036 0.758043
vt 0.862982 0.763010
vt 0.867231 0.754146
vt 0.870393 0.752724
vt 0.875000 0.745854
vt 0.875000 0.747315
vt 0.875000 0.750000
vt 0.873499 0.751501
vt 0.875002 0.748500
vt 0.606250 0.018750
vt 0.606250 0.012982
vt 0.611879 0.007945
vt 0.611990 0.012018
vt 0.606250 0.000000
vt 0.611807 0.000000
vt 0.606250 0.500000
vt 0.611807 0.500000
vt 0.625000 0.002685
vt 0.625000 0.004146
vt 0.616257 0.001500
vt 0.620629 0.499249
vt 0.606250 0.518750
vt 0.606250 0.512955
vt 0.612199 0.512768
vt 0.612045 0.518750
vt 0.606250 0.507731
vt 0.612005 0.507985
vt 0.606250 0.492269
vt 0.612020 0.492025
vt 0.617025 0.512980
vt 0.617269 0.518750
vt 0.616171 0.505044
vt 0.616171 0.491171
vt 0.606250 0.481250
vt 0.612045 0.481250
vt 0.612232 0.487199
vt 0.606250 0.487045
vt 0.617269 0.481250
vt 0.617015 0.487005
vt 0.634375 0.490625
vt 0.631490 0.493510
vt 0.629415 0.495586
vt 0.643750 0.518750
vt 0.637955 0.518750
vt 0.637768 0.512801
vt 0.643750 0.512955
vt 0.632731 0.518750
vt 0.632985 0.512995
vt 0.393750 0.481250
vt 0.393750 0.487018
vt 0.388121 0.492055
vt 0.388010 0.487982
vt 0.393750 0.492235
vt 0.388193 0.495395
vt 0.393750 0.500000
vt 0.388193 0.500000
vt 0.373657 0.498657
vt 0.372927 0.497927
vt 0.374250 0.499250
vt 0.375000 0.499000
vt 0.393750 0.018750
vt 0.388010 0.012018
vt 0.388089 0.008024
vt 0.393750 0.012982
vt 0.375000 0.004146
vt 0.375000 0.002717
vt 0.375000 0.495854
vt 0.382769 0.504146
vt 0.379626 0.502692
vt 0.375000 0.497283
vt 0.388193 0.000000
vt 0.393750 0.000000
vt 0.375000 0.001500
vt 0.376501 0.501501
vt 0.393750 0.518750
vt 0.387018 0.513010
vt 0.383043 0.507964
vt 0.388010 0.512018
vt 0.379146 0.507769
vt 0.377724 0.504607
vt 0.393750 0.481250
vt 0.393750 0.487045
vt 0.387801 0.487232
vt 0.387955 0.481250
vt 0.393750 0.492269
vt 0.387995 0.492015
vt 0.393750 0.507731
vt 0.387980 0.507975
vt 0.368510 0.493510
vt 0.365625 0.490625
vt 0.370585 0.495586
vt 0.380044 0.508829
vt 0.393750 0.518750
vt 0.387955 0.518750
vt 0.387768 0.512801
vt 0.393750 0.512955
vt 0.382731 0.518750
vt 0.382985 0.512995
vt 0.367269 0.518750
vt 0.367025 0.512980
vt 0.366171 0.508829
vt 0.356250 0.518750
vt 0.356250 0.512955
vt 0.362199 0.512768
vt 0.362045 0.518750
vt 0.356250 0.507731
vt 0.362005 0.507985
vt 0.606250 0.731250
vt 0.612045 0.731250
vt 0.612232 0.737199
vt 0.606250 0.737045
vt 0.617269 0.731250
vt 0.617015 0.737005
vt 0.632731 0.731250
vt 0.632975 0.737020
vt 0.612020 0.742025
vt 0.606250 0.742269
vt 0.616171 0.744956
vt 0.629415 0.754414
vt 0.643750 0.731250
vt 0.643750 0.737045
vt 0.637801 0.737232
vt 0.637955 0.731250
vt 0.634375 0.759375
vt 0.631498 0.756498
vt 0.617269 0.768750
vt 0.617025 0.762980
vt 0.616171 0.758829
vt 0.606250 0.768750
vt 0.606250 0.762955
vt 0.612199 0.762768
vt 0.612045 0.768750
vt 0.606250 0.757731
vt 0.612005 0.757985
vt 0.356250 0.731250
vt 0.362045 0.731250
vt 0.362232 0.737199
vt 0.356250 0.737045
vt 0.367269 0.731250
vt 0.367015 0.737005
vt 0.382731 0.731250
vt 0.382975 0.737020
vt 0.362020 0.742025
vt 0.356250 0.742269
vt 0.366171 0.741171
vt 0.380044 0.741171
vt 0.393750 0.731250
vt 0.393750 0.737045
vt 0.387801 0.737232
vt 0.387955 0.731250
vt 0.393750 0.742269
vt 0.387995 0.742015
vt 0.393750 0.757731
vt 0.387980 0.757975
vt 0.370585 0.754415
vt 0.393750 0.768750
vt 0.387955 0.768750
vt 0.387768 0.762801
vt 0.393750 0.762955
vt 0.365625 0.759375
vt 0.368502 0.756498
vt 0.606250 0.268750
vt 0.606250 0.262955
vt 0.612199 0.262768
vt 0.612045 0.268750
vt 0.606250 0.257731
vt 0.612005 0.257985
vt 0.606250 0.242269
vt 0.612020 0.242025
vt 0.625000 0.262980
vt 0.625000 0.268750
vt 0.625000 0.258829
vt 0.625000 0.241171
vt 0.606250 0.231250
vt 0.612045 0.231250
vt 0.612232 0.237199
vt 0.606250 0.237045
vt 0.625000 0.231250
vt 0.625000 0.237005
vt 0.875000 0.518750
vt 0.867269 0.518750
vt 0.867025 0.512980
vt 0.875000 0.512995
vt 0.866171 0.508829
vt 0.875000 0.508829
vt 0.856250 0.518750
vt 0.856250 0.512955
vt 0.862199 0.512768
vt 0.862045 0.518750
vt 0.856250 0.507731
vt 0.862005 0.507985
vt 0.856250 0.500000
vt 0.862020 0.500000
vt 0.866171 0.500000
vt 0.606250 0.231250
vt 0.611990 0.237982
vt 0.611911 0.241976
vt 0.606250 0.237018
vt 0.619821 0.245854
vt 0.616863 0.247283
vt 0.625000 0.250000
vt 0.611807 0.245377
vt 0.606250 0.242235
vt 0.616257 0.248500
vt 0.618880 0.251501
vt 0.606250 0.731250
vt 0.612982 0.736990
vt 0.616957 0.742036
vt 0.611990 0.737982
vt 0.620854 0.742231
vt 0.622276 0.745393
vt 0.627073 0.752073
vt 0.626343 0.751343
vt 0.625000 0.750000
vt 0.623499 0.748499
vt 0.621378 0.750751
vt 0.606250 0.768750
vt 0.606250 0.762982
vt 0.611879 0.757945
vt 0.611990 0.762018
vt 0.606250 0.750000
vt 0.611807 0.750000
vt 0.606250 0.250000
vt 0.611807 0.250000
vt 0.616257 0.249998
vt 0.875002 0.501500
vt 0.873499 0.498499
vt 0.876499 0.500002
vt 0.606250 0.242269
vt 0.612020 0.242025
vt 0.625000 0.241171
vt 0.612045 0.231250
vt 0.612232 0.237199
vt 0.606250 0.237045
vt 0.625000 0.231250
vt 0.625000 0.237005
vt 0.875000 0.518750
vt 0.867269 0.518750
vt 0.867025 0.512980
vt 0.875000 0.512995
vt 0.866171 0.508829
vt 0.856250 0.518750
vt 0.856250 0.512955
vt 0.862199 0.512768
vt 0.862045 0.518750
vt 0.856250 0.507731
vt 0.862005 0.507985
vt 0.143750 0.518750
vt 0.137955 0.518750
vt 0.137768 0.512801
vt 0.143750 0.512955
vt 0.132731 0.518750
vt 0.132985 0.512995
vt 0.125000 0.518750
vt 0.125000 0.512980
vt 0.137980 0.507975
vt 0.143750 0.507731
vt 0.133829 0.508829
vt 0.125000 0.508829
vt 0.393750 0.231250
vt 0.393750 0.237045
vt 0.387801 0.237232
vt 0.387955 0.231250
vt 0.393750 0.242269
vt 0.387995 0.242015
vt 0.393750 0.257731
vt 0.387980 0.257975
vt 0.375000 0.237020
vt 0.375000 0.231250
vt 0.375000 0.241171
vt 0.375000 0.258829
vt 0.393750 0.268750
vt 0.387955 0.268750
vt 0.387768 0.262801
vt 0.393750 0.262955
vt 0.375000 0.268750
vt 0.375000 0.262995
vt 0.143750 0.500000
vt 0.137995 0.500000
vt 0.133829 0.500000
vt 0.393750 0.231250
vt 0.393750 0.237018
vt 0.388121 0.242055
vt 0.388010 0.237982
vt 0.393750 0.242235
vt 0.388193 0.245395
vt 0.393750 0.250000
vt 0.388193 0.250000
vt 0.375000 0.247315
vt 0.375000 0.245854
vt 0.375000 0.248500
vt 0.375000 0.250000
vt 0.393750 0.768750
vt 0.388010 0.762018
vt 0.388089 0.758024
vt 0.393750 0.762982
vt 0.380179 0.754146
vt 0.375000 0.752717
vt 0.120854 0.500000
vt 0.129146 0.492231
vt 0.127692 0.495374
vt 0.122283 0.500000
vt 0.388193 0.750000
vt 0.393750 0.750000
vt 0.375000 0.751500
vt 0.126501 0.498499
vt 0.123500 0.500000
vt 0.143750 0.481250
vt 0.138010 0.487982
vt 0.132964 0.491957
vt 0.137018 0.486990
vt 0.132769 0.495854
vt 0.129607 0.497276
vt 0.125000 0.504146
vt 0.125000 0.502685
vt 0.125000 0.501500
vt 0.137768 0.512801
vt 0.125000 0.512995
vt 0.375000 0.231250
vt 0.382731 0.231250
vt 0.382975 0.237020
vt 0.375000 0.237005
vt 0.137980 0.500000
vt 0.125000 0.508829
vt 0.383829 0.241171
vt 0.375000 0.244114
vt 0.393750 0.237045
vt 0.387801 0.237232
vt 0.387955 0.231250
vt 0.393750 0.242269
vt 0.387995 0.242015
vt 0.383829 0.255044
vt 0.382731 0.268750
vt 0.382985 0.262995
vt 0.375000 0.262980
vt 0.606250 0.012955
vt 0.612199 0.012768
vt 0.612045 0.018750
vt 0.606250 0.007731
vt 0.612005 0.007985
vt 0.612020 0.000000
vt 0.625000 0.012980
vt 0.625000 0.018750
vt 0.625000 0.008829
vt 0.625000 0.000000
vt 0.606250 0.981250
vt 0.612045 0.981250
vt 0.612232 0.987199
vt 0.606250 0.987045
vt 0.625000 0.981250
vt 0.625000 0.987005
vt 0.856250 0.750000
vt 0.856250 0.742269
vt 0.862020 0.742025
vt 0.862005 0.750000
vt 0.612020 1.000000
vt 0.606250 1.000000
vt 0.625000 0.991171
vt 0.866171 0.741171
vt 0.866171 0.750000
vt 0.856250 0.731250
vt 0.862045 0.731250
vt 0.862232 0.737199
vt 0.856250 0.737045
vt 0.867269 0.731250
vt 0.867015 0.737005
vt 0.875000 0.731250
vt 0.875000 0.737020
vt 0.875000 0.741171
vt 0.606250 0.018750
vt 0.606250 0.012955
vt 0.612199 0.012768
vt 0.612045 0.018750
vt 0.612005 0.000000
vt 0.606250 0.992269
vt 0.612020 0.992025
vt 0.612005 1.000000
vt 0.625000 0.018750
vt 0.625000 1.000000
vt 0.862020 0.742025
vt 0.856250 0.731250
vt 0.862232 0.737199
vt 0.856250 0.737045
vt 0.867269 0.731250
vt 0.867015 0.737005
vt 0.875000 0.731250
vt 0.143750 0.731250
vt 0.143750 0.737045
vt 0.137801 0.737232
vt 0.137955 0.731250
vt 0.143750 0.742269
vt 0.137995 0.742015
vt 0.143750 0.750000
vt 0.137980 0.750000
vt 0.132975 0.737020
vt 0.132731 0.731250
vt 0.133829 0.741171
vt 0.133829 0.750000
vt 0.393750 0.981250
vt 0.393750 0.987045
vt 0.387801 0.987232
vt 0.387955 0.981250
vt 0.393750 1.000000
vt 0.387995 1.000000
vt 0.393750 0.007731
vt 0.387980 0.007975
vt 0.387995 0.000000
vt 0.375000 0.987020
vt 0.375000 0.981250
vt 0.375000 0.991171
vt 0.375000 0.008829
vt 0.375000 0.000000
vt 0.387955 0.018750
vt 0.387768 0.012801
vt 0.393750 0.012955
vt 0.375000 0.018750
vt 0.375000 0.012995
vt 0.125000 0.731250
vt 0.125000 0.737005
vt 0.125000 0.741171
vt 0.143750 0.731250
vt 0.137801 0.737232
vt 0.137955 0.731250
vt 0.137995 0.750000
vt 0.382731 0.981250
vt 0.382975 0.987020
vt 0.375000 0.987005
vt 0.125000 0.737020
vt 0.125000 0.731250
vt 0.383829 0.991171
vt 0.393750 0.992269
vt 0.387995 0.992015
vt 0.387980 1.000000
vt 0.383829 1.000000
vt 0.393750 0.018750
vt 0.387955 0.018750
vt 0.387768 0.012801
vt 0.393750 0.012955
vt 0.382731 0.018750
vt 0.382985 0.012995
vt 0.375000 0.018750
vt 0.375000 0.012980
vt 0.387980 0.000000
vt 0.383829 0.000000
vt 0.612982 0.513010
vt 0.606250 0.518750
vt 0.625000 0.731250
vt 0.625000 0.737044
vt 0.625000 0.742271
vt 0.612044 0.750000
vt 0.387956 0.750000
vt 0.375000 0.750000
vt 0.375000 0.742271
vt 0.375000 0.737044
vt 0.375000 0.731250
vt 0.643750 0.500000
vt 0.637956 0.500000
vt 0.632729 0.500000
vt 0.617271 0.500000
vt 0.612044 0.500000
vt 0.612044 1.000000
vt 0.617271 1.000000
vt 0.875000 0.737044
vt 0.125000 0.737044
vt 0.125000 0.742271
vt 0.125000 0.750000
vt 0.375000 1.000000
vt 0.387956 1.000000
vt 0.387956 0.500000
vt 0.382729 0.500000
vt 0.367271 0.500000
vt 0.362044 0.500000
vt 0.356250 0.500000
vt 0.612044 0.750000
vt 0.617271 0.750000
vt 0.632729 0.750000
vt 0.637956 0.750000
vt 0.643750 0.750000
vt 0.856250 0.481250
vt 0.861990 0.487982
vt 0.867231 0.495854
vt 0.875000 0.504146
vt 0.125000 0.745854
vt 0.132769 0.754146
vt 0.138010 0.762018
vt 0.143750 0.768750
vt 0.356250 0.750000
vt 0.362044 0.750000
vt 0.367271 0.750000
vt 0.382729 0.750000
vt 0.387956 0.750000
vt 0.612044 0.250000
vt 0.617271 0.250000
vt 0.875000 0.500000
vt 0.875000 0.512956
vt 0.125000 0.512956
vt 0.125000 0.507729
vt 0.125000 0.500000
vt 0.387956 0.250000
vt 0.625000 0.507729
vt 0.625000 0.512956
vt 0.625000 0.518750
vt 0.387018 0.736990
vt 0.393750 0.731250
vt 0.375000 0.518750
vt 0.375000 0.512956
vt 0.375000 0.500000
s 0
usemtl Material
f 1/1/1 4/2/1 7/3/1 6/4/1
f 4/2/2 5/5/2 8/6/2 7/3/2
f 5/5/3 17/7/3 18/8/3 8/6/3
f 6/4/4 7/3/4 10/9/4 9/10/4
f 7/3/5 8/6/5 11/11/5 10/9/5
f 8/6/6 18/8/6 19/12/6 11/11/6
f 2/13/7 12/14/7 15/15/7 14/16/7
f 12/14/8 13/17/8 16/18/8 15/15/8
f 13/17/9 25/19/9 26/20/9 16/18/9
f 14/16/10 15/15/10 18/21/10 17/21/10
f 15/15/11 16/18/11 19/22/11 18/21/11
f 16/18/12 26/20/12 27/23/12 19/22/12
f 3/24/13 20/25/13 23/26/13 22/27/13
f 20/25/14 21/28/14 24/29/14 23/26/14
f 21/30/15 9/10/15 10/9/15 24/31/15
f 22/27/16 23/26/16 26/32/16 25/33/16
f 23/26/17 24/29/17 27/34/17 26/32/17
f 24/31/18 10/9/18 11/11/18 27/35/18
f 11/11/19 19/12/19 27/35/19
f 40/36/20 43/37/20 46/38/20 45/39/20
f 43/37/21 44/40/21 47/41/21 46/38/21
f 44/40/22 56/42/22 57/43/22 47/41/22
f 45/39/23 46/38/23 49/44/23 48/45/23
f 46/38/24 47/41/24 50/46/24 49/44/24
f 47/41/25 57/43/25 58/47/25 50/46/25
f 41/48/26 51/49/26 54/50/26 53/51/26
f 51/49/27 52/52/27 55/53/27 54/50/27
f 52/52/28 64/54/28 65/55/28 55/53/28
f 53/51/29 54/50/29 57/43/29 56/42/29
f 54/50/30 55/53/30 58/47/30 57/43/30
f 55/53/31 65/55/31 66/56/31 58/47/31
f 42/57/32 59/58/32 62/59/32 61/60/32
f 59/58/33 60/61/33 63/62/33 62/59/33
f 60/61/34 48/45/34 49/44/34 63/62/34
f 61/60/35 62/59/35 65/55/35 64/54/35
f 62/59/36 63/62/36 66/56/36 65/55/36
f 63/62/37 49/44/37 50/46/37 66/56/37
f 50/46/38 58/47/38 66/56/38
f 67/63/39 70/64/39 73/65/39 72/66/39
f 70/64/40 71/67/40 74/68/40 73/65/40
f 71/67/41 83/69/41 84/70/41 74/68/41
f 72/66/42 73/65/42 76/71/42 75/72/42
f 73/65/43 74/68/43 77/73/43 76/71/43
f 74/68/44 84/70/44 85/74/44 77/73/44
f 68/75/45 78/76/45 81/77/45 80/78/45
f 78/76/46 79/79/46 82/80/46 81/77/46
f 79/81/47 91/82/47 92/83/47 82/84/47
f 80/78/48 81/77/48 84/85/48 83/86/48
f 81/77/49 82/80/49 85/87/49 84/85/49
f 82/84/50 92/83/50 93/88/50 85/74/50
f 69/89/51 86/90/51 89/91/51 88/92/51
f 86/90/52 87/93/52 90/94/52 89/91/52
f 87/93/53 75/72/53 76/71/53 90/94/53
f 88/92/54 89/91/54 92/83/54 91/82/54
f 89/91/55 90/94/55 93/88/55 92/83/55
f 90/94/56 76/71/56 77/73/56 93/88/56
f 77/73/57 85/74/57 93/88/57
f 106/95/58 109/96/58 112/97/58 111/98/58
f 109/96/59 110/99/59 113/100/59 112/97/59
f 110/99/60 122/101/60 123/102/60 113/100/60
f 111/98/61 112/97/61 115/103/61 114/104/61
f 112/97/62 113/100/62 116/105/62 115/103/62
f 113/100/63 123/102/63 124/106/63 116/105/63
f 107/107/64 117/108/64 120/109/64 119/110/64
f 117/108/65 118/111/65 121/112/65 120/109/65
f 118/111/66 130/113/66 131/114/66 121/112/66
f 119/110/67 120/109/67 123/102/67 122/101/67
f 120/109/68 121/112/68 124/106/68 123/102/68
f 121/112/69 131/114/69 132/115/69 124/106/69
f 108/116/70 125/117/70 128/118/70 127/119/70
f 125/117/71 126/120/71 129/121/71 128/118/71
f 126/120/72 114/104/72 115/103/72 129/121/72
f 127/119/73 128/118/73 131/114/73 130/113/73
f 128/118/74 129/121/74 132/115/74 131/114/74
f 129/121/75 115/103/75 116/105/75 132/115/75
f 116/105/76 124/106/76 132/115/76
f 139/122/77 142/123/77 145/124/77 144/125/77
f 142/123/78 143/126/78 146/127/78 145/124/78
f 143/126/79 155/128/79 156/129/79 146/127/79
f 144/125/80 145/124/80 148/130/80 147/131/80
f 145/124/81 146/127/81 149/132/81 148/130/81
f 146/127/82 156/129/82 157/133/82 149/132/82
f 140/134/83 150/135/83 153/136/83 152/137/83
f 150/135/84 151/138/84 154/139/84 153/136/84
f 151/138/85 163/140/85 164/141/85 154/139/85
f 152/137/86 153/136/86 156/129/86 155/128/86
f 153/136/87 154/139/87 157/133/87 156/129/87
f 154/139/88 164/141/88 165/142/88 157/133/88
f 141/143/89 158/144/89 161/145/89 160/146/89
f 158/144/90 159/147/90 162/148/90 161/145/90
f 159/147/91 147/131/91 148/130/91 162/148/91
f 160/146/92 161/145/92 164/141/92 163/140/92
f 161/145/93 162/148/93 165/142/93 164/141/93
f 162/148/94 148/130/94 149/132/94 165/142/94
f 149/132/95 157/133/95 165/142/95
f 172/149/96 175/150/96 178/151/96 177/152/96
f 175/150/97 176/153/97 179/154/97 178/151/97
f 176/153/98 188/155/98 189/156/98 179/154/98
f 177/152/99 178/151/99 181/157/99 180/158/99
f 178/151/100 179/154/100 182/159/100 181/157/100
f 179/154/101 189/156/101 190/160/101 182/159/101
f 173/161/102 183/162/102 186/163/102 185/164/102
f 183/162/103 184/165/103 187/166/103 186/163/103
f 184/165/104 196/167/104 197/168/104 187/166/104
f 185/164/105 186/163/105 189/156/105 188/155/105
f 186/163/106 187/166/106 190/160/106 189/156/106
f 187/166/107 197/168/107 198/169/107 190/160/107
f 174/170/108 191/171/108 194/172/108 193/173/108
f 191/171/109 192/174/109 195/175/109 194/172/109
f 192/174/110 180/158/110 181/157/110 195/175/110
f 193/173/111 194/172/111 197/168/111 196/167/111
f 194/172/112 195/175/112 198/169/112 197/168/112
f 195/175/113 181/157/113 182/159/113 198/169/113
f 182/159/114 190/160/114 198/169/114
f 199/176/115 202/177/115 205/178/115 204/179/115
f 202/177/116 203/180/116 206/181/116 205/178/116
f 203/180/117 215/182/117 216/183/117 206/181/117
f 204/179/118 205/178/118 208/184/118 207/185/118
f 205/178/119 206/181/119 209/186/119 208/184/119
f 206/181/120 216/183/120 217/187/120 209/186/120
f 200/188/121 210/189/121 213/190/121 212/191/121
f 210/189/122 211/192/122 214/193/122 213/190/122
f 211/194/123 223/195/123 224/196/123 214/197/123
f 212/191/124 213/190/124 216/183/124 215/182/124
f 213/190/125 214/193/125 217/187/125 216/183/125
f 214/197/126 224/196/126 225/198/126 217/199/126
f 201/200/127 218/201/127 221/202/127 220/203/127
f 218/201/128 219/204/128 222/205/128 221/202/128
f 219/204/129 207/206/129 208/207/129 222/205/129
f 220/203/130 221/202/130 224/196/130 223/195/130
f 221/202/131 222/205/131 225/198/131 224/196/131
f 222/205/132 208/207/132 209/208/132 225/198/132
f 209/208/133 217/199/133 225/198/133
f 226/209/134 229/210/134 232/211/134 231/212/134
f 229/210/135 230/213/135 233/214/135 232/211/135
f 230/213/136 242/215/136 243/215/136 233/214/136
f 231/212/137 232/211/137 235/216/137 234/217/137
f 232/211/138 233/214/138 236/218/138 235/216/138
f 233/214/139 243/215/139 244/219/139 236/218/139
f 227/220/140 237/221/140 240/222/140 239/223/140
f 237/221/141 238/224/141 241/225/141 240/222/141
f 238/224/142 250/226/142 251/227/142 241/225/142
f 239/223/143 240/222/143 243/228/143 242/228/143
f 240/222/144 241/225/144 244/229/144 243/228/144
f 241/225/145 251/227/145 252/230/145 244/229/145
f 228/231/146 245/232/146 248/233/146 247/234/146
f 245/232/147 246/235/147 249/236/147 248/233/147
f 246/237/148 234/217/148 235/216/148 249/238/148
f 247/234/149 248/233/149 251/227/149 250/226/149
f 248/233/150 249/236/150 252/230/150 251/227/150
f 249/238/151 235/216/151 236/218/151 252/239/151
f 236/240/152 244/241/152 252/242/152
f 259/176/115 262/177/115 265/178/115 264/179/115
f 262/177/116 263/180/116 266/181/116 265/178/116
f 263/180/117 275/243/117 276/244/117 266/181/117
f 264/179/118 265/178/118 268/184/118 267/185/118
f 265/178/153 266/181/153 269/186/153 268/184/153
f 266/181/120 276/244/120 277/245/120 269/186/120
f 260/209/121 270/246/121 273/247/121 272/248/121
f 270/246/122 271/249/122 274/250/122 273/247/122
f 271/251/123 283/252/123 284/253/123 274/254/123
f 272/248/124 273/247/124 276/244/124 275/243/124
f 273/247/125 274/250/125 277/245/125 276/244/125
f 274/254/126 284/253/126 285/255/126 277/199/126
f 261/256/127 278/257/127 281/258/127 280/259/127
f 278/257/128 279/260/128 282/261/128 281/258/128
f 279/260/129 267/206/129 268/207/129 282/261/129
f 280/259/130 281/258/130 284/253/130 283/252/130
f 281/258/154 282/261/154 285/255/154 284/253/154
f 282/261/132 268/207/132 269/208/132 285/255/132
f 269/208/155 277/199/155 285/255/155
f 286/262/156 289/263/156 292/264/156 291/265/156
f 289/263/157 290/266/157 293/267/157 292/264/157
f 290/266/158 302/268/158 303/269/158 293/267/158
f 291/265/159 292/264/159 295/270/159 294/271/159
f 292/264/160 293/267/160 296/272/160 295/270/160
f 293/267/161 303/269/161 304/273/161 296/272/161
f 287/274/162 297/275/162 300/276/162 299/277/162
f 297/275/163 298/278/163 301/279/163 300/276/163
f 298/278/164 310/280/164 311/281/164 301/279/164
f 299/277/165 300/276/165 303/282/165 302/283/165
f 300/276/166 301/279/166 304/284/166 303/282/166
f 301/279/167 311/281/167 312/285/167 304/284/167
f 288/286/168 305/287/168 308/288/168 307/289/168
f 305/287/169 306/290/169 309/291/169 308/288/169
f 306/292/170 294/271/170 295/270/170 309/293/170
f 307/289/171 308/288/171 311/281/171 310/280/171
f 308/288/172 309/291/172 312/285/172 311/281/172
f 309/293/173 295/270/173 296/272/173 312/294/173
f 296/272/174 304/273/174 312/294/174
f 313/295/175 316/296/175 319/297/175 318/298/175
f 316/296/176 317/299/176 320/300/176 319/297/176
f 317/299/177 329/301/177 330/302/177 320/300/177
f 318/298/178 319/297/178 322/303/178 321/304/178
f 319/297/179 320/300/179 323/305/179 322/303/179
f 320/300/180 330/302/180 331/306/180 323/305/180
f 314/307/181 324/308/181 327/309/181 326/310/181
f 324/308/182 325/311/182 328/312/182 327/309/182
f 325/313/183 337/314/183 338/315/183 328/316/183
f 326/310/184 327/309/184 330/317/184 329/318/184
f 327/309/185 328/312/185 331/319/185 330/317/185
f 328/316/186 338/315/186 339/320/186 331/321/186
f 315/322/187 332/323/187 335/324/187 334/325/187
f 332/323/188 333/326/188 336/327/188 335/324/188
f 333/326/189 321/328/189 322/329/189 336/327/189
f 334/325/190 335/324/190 338/315/190 337/314/190
f 335/324/191 336/327/191 339/320/191 338/315/191
f 336/327/192 322/329/192 323/330/192 339/320/192
f 323/330/193 331/321/193 339/320/193
f 346/262/156 349/263/156 352/331/156 351/265/156
f 349/263/157 350/268/157 353/332/157 352/331/157
f 350/333/158 362/334/158 363/335/158 353/336/158
f 351/265/159 352/331/159 355/337/159 354/292/159
f 352/331/160 353/332/160 356/338/160 355/337/160
f 353/336/161 363/335/161 364/339/161 356/340/161
f 347/295/162 357/341/162 360/342/162 359/343/162
f 357/341/163 358/344/163 361/345/163 360/342/163
f 358/344/164 370/280/164 371/281/164 361/345/164
f 359/343/165 360/342/165 363/335/165 362/334/165
f 360/342/166 361/345/166 364/339/166 363/335/166
f 361/345/167 371/281/167 372/346/167 364/339/167
f 348/286/168 365/287/168 368/288/168 367/289/168
f 365/287/169 366/347/169 369/348/169 368/288/169
f 366/347/170 354/290/170 355/349/170 369/348/170
f 367/289/171 368/288/171 371/281/171 370/280/171
f 368/288/194 369/348/194 372/346/194 371/281/194
f 369/348/173 355/349/173 356/340/173 372/346/173
f 356/340/195 364/339/195 372/346/195
f 373/24/196 376/350/196 379/351/196 378/352/196
f 376/350/197 377/353/197 380/354/197 379/351/197
f 377/353/198 389/28/198 390/355/198 380/354/198
f 378/352/199 379/351/199 382/356/199 381/357/199
f 379/351/200 380/354/200 383/358/200 382/356/200
f 380/354/201 390/355/201 391/359/201 383/358/201
f 374/360/202 384/361/202 387/362/202 386/363/202
f 384/361/203 385/364/203 388/365/203 387/362/203
f 385/366/204 397/367/204 398/368/204 388/369/204
f 386/363/205 387/362/205 390/370/205 389/371/205
f 387/362/206 388/365/206 391/372/206 390/370/206
f 388/369/207 398/368/207 399/373/207 391/374/207
f 375/375/208 392/376/208 395/377/208 394/378/208
f 392/376/209 393/379/209 396/380/209 395/377/209
f 393/379/210 381/381/210 382/382/210 396/380/210
f 394/378/211 395/377/211 398/368/211 397/367/211
f 395/377/212 396/380/212 399/373/212 398/368/212
f 396/380/213 382/382/213 383/383/213 399/373/213
f 383/383/214 391/374/214 399/373/214
f 400/384/196 403/385/196 406/386/196 405/387/196
f 403/385/197 404/28/197 407/388/197 406/386/197
f 404/371/198 416/389/198 417/390/198 407/391/198
f 405/387/199 406/386/199 409/356/199 408/392/199
f 406/386/200 407/388/200 410/358/200 409/356/200
f 407/391/201 417/390/201 418/372/201 410/393/201
f 401/360/202 411/361/202 414/362/202 413/363/202
f 411/361/203 412/364/203 415/365/203 414/362/203
f 412/366/204 424/367/204 425/394/204 415/369/204
f 413/363/205 414/362/205 417/390/205 416/389/205
f 414/362/206 415/365/206 418/372/206 417/390/206
f 415/369/207 425/394/207 426/373/207 418/374/207
f 402/395/208 419/376/208 422/396/208 421/397/208
f 419/376/209 420/398/209 423/399/209 422/396/209
f 420/398/210 408/400/210 409/382/210 423/399/210
f 421/397/211 422/396/211 425/394/211 424/367/211
f 422/396/212 423/399/212 426/373/212 425/394/212
f 423/399/213 409/382/213 410/383/213 426/373/213
f 410/383/215 418/374/215 426/373/215
f 427/401/216 430/402/216 433/403/216 432/404/216
f 430/402/217 431/405/217 434/406/217 433/403/217
f 431/405/218 443/407/218 444/408/218 434/406/218
f 432/404/219 433/403/219 436/409/219 435/410/219
f 433/403/220 434/406/220 437/411/220 436/409/220
f 434/406/221 444/408/221 445/412/221 437/411/221
f 428/413/222 438/414/222 441/415/222 440/416/222
f 438/414/223 439/417/223 442/418/223 441/415/223
f 439/86/224 451/419/224 452/420/224 442/421/224
f 440/416/225 441/415/225 444/422/225 443/423/225
f 441/415/226 442/418/226 445/424/226 444/422/226
f 442/421/227 452/420/227 453/425/227 445/426/227
f 429/75/228 446/427/228 449/428/228 448/429/228
f 446/427/229 447/430/229 450/431/229 449/428/229
f 447/432/230 435/410/230 436/409/230 450/433/230
f 448/429/231 449/428/231 452/420/231 451/419/231
f 449/428/232 450/431/232 453/425/232 452/420/232
f 450/433/233 436/409/233 437/411/233 453/434/233
f 437/411/234 445/412/234 453/434/234
f 454/435/216 457/402/216 460/436/216 459/437/216
f 457/402/217 458/407/217 461/438/217 460/436/217
f 458/423/218 470/439/218 471/440/218 461/441/218
f 459/437/219 460/436/219 463/442/219 462/443/219
f 460/436/235 461/438/235 464/412/235 463/442/235
f 461/441/221 471/440/221 472/444/221 464/424/221
f 455/413/222 465/414/222 468/415/222 467/416/222
f 465/414/223 466/445/223 469/446/223 468/415/223
f 466/445/224 478/417/224 479/447/224 469/446/224
f 467/416/225 468/415/225 471/440/225 470/439/225
f 468/415/226 469/446/226 472/444/226 471/440/226
f 469/446/227 479/447/227 480/448/227 472/444/227
f 456/449/228 473/450/228 476/451/228 475/452/228
f 473/450/229 474/453/229 477/454/229 476/451/229
f 474/453/230 462/455/230 463/456/230 477/454/230
f 475/452/231 476/451/231 479/457/231 478/86/231
f 476/451/232 477/454/232 480/458/232 479/457/232
f 477/454/233 463/456/233 464/426/233 480/458/233
f 464/424/236 472/444/236 480/448/236
f 1/1/237 199/176/237 204/179/237 4/2/237
f 4/2/238 204/179/238 207/185/238 5/5/238
f 5/5/239 207/206/239 219/204/239 17/7/239
f 17/7/240 219/204/240 218/201/240 14/459/240
f 14/459/241 218/201/241 201/200/241 2/460/241
f 200/188/242 373/24/242 378/352/242 210/189/242
f 210/189/243 378/352/243 381/357/243 211/192/243
f 211/194/244 381/381/244 393/379/244 223/195/244
f 223/195/245 393/379/245 392/376/245 220/203/245
f 220/203/246 392/376/246 375/375/246 201/200/246
f 134/461/247 375/375/247 394/378/247 138/462/247
f 138/462/248 394/378/248 397/367/248 137/463/248
f 137/463/249 397/367/249 385/366/249 136/228/249
f 136/228/250 385/364/250 384/361/250 135/464/250
f 135/464/251 384/361/251 374/360/251 133/235/251
f 167/318/252 428/413/252 440/416/252 171/465/252
f 171/465/253 440/416/253 443/423/253 170/466/253
f 170/466/254 443/407/254 431/405/254 169/467/254
f 169/467/255 431/405/255 430/402/255 168/468/255
f 168/468/256 430/402/256 427/401/256 166/469/256
f 373/24/257 429/75/257 448/429/257 376/350/257
f 376/350/258 448/429/258 451/419/258 377/353/258
f 377/353/259 451/419/259 439/86/259 389/28/259
f 389/371/260 439/417/260 438/414/260 386/363/260
f 386/363/261 438/414/261 428/413/261 374/360/261
f 286/262/262 427/401/262 432/404/262 289/263/262
f 289/263/263 432/404/263 435/410/263 290/266/263
f 290/266/264 435/410/264 447/432/264 302/268/264
f 302/283/265 447/430/265 446/427/265 299/277/265
f 299/277/266 446/427/266 429/75/266 287/274/266
f 199/176/267 288/286/267 307/289/267 202/177/267
f 202/177/268 307/289/268 310/280/268 203/180/268
f 203/180/269 310/280/269 298/278/269 215/182/269
f 215/182/270 298/278/270 297/275/270 212/191/270
f 212/191/271 297/275/271 287/274/271 200/188/271
f 69/89/272 286/262/272 291/265/272 86/90/272
f 86/90/273 291/265/273 294/271/273 87/93/273
f 87/93/274 294/271/274 306/292/274 75/72/274
f 75/72/275 306/290/275 305/287/275 72/66/275
f 72/66/276 305/287/276 288/286/276 67/63/276
f 3/24/277 68/75/277 80/78/277 20/25/277
f 20/25/278 80/78/278 83/86/278 21/28/278
f 21/30/269 83/69/269 71/67/269 9/10/269
f 9/10/279 71/67/279 70/64/279 6/4/279
f 6/4/280 70/64/280 67/63/280 1/1/280
f 29/470/281 140/134/281 152/137/281 33/471/281
f 33/471/282 152/137/282 155/128/282 32/472/282
f 32/472/283 155/128/283 143/126/283 31/473/283
f 31/473/284 143/126/284 142/123/284 30/474/284
f 30/474/285 142/123/285 139/122/285 28/30/285
f 133/371/251 141/143/251 160/146/251 135/475/251
f 135/475/250 160/146/250 163/140/250 136/476/250
f 136/476/249 163/140/249 151/138/249 137/393/249
f 137/21/248 151/138/248 150/135/248 138/477/248
f 138/477/247 150/135/247 140/134/247 134/381/247
f 166/432/256 172/149/256 177/152/256 168/478/256
f 168/478/255 177/152/255 180/158/255 169/479/255
f 169/479/254 180/158/254 192/174/254 170/480/254
f 170/481/253 192/174/253 191/171/253 171/482/253
f 171/482/252 191/171/252 174/170/252 167/417/252
f 141/143/286 174/170/286 193/173/286 158/144/286
f 158/144/287 193/173/287 196/167/287 159/147/287
f 159/147/288 196/167/288 184/165/288 147/131/288
f 147/131/289 184/165/289 183/162/289 144/125/289
f 144/125/290 183/162/290 173/161/290 139/122/290
f 95/69/291 173/161/291 185/164/291 99/483/291
f 99/483/292 185/164/292 188/155/292 98/484/292
f 98/484/293 188/155/293 176/153/293 97/485/293
f 97/485/294 176/153/294 175/150/294 96/486/294
f 96/486/295 175/150/295 172/149/295 94/487/295
f 28/235/285 34/30/285 36/474/285 30/488/285
f 30/488/284 36/474/284 37/473/284 31/489/284
f 31/489/283 37/473/283 38/472/283 32/490/283
f 32/490/282 38/472/282 39/471/282 33/491/282
f 33/491/281 39/471/281 35/470/281 29/492/281
f 2/13/296 227/493/296 239/494/296 12/14/296
f 12/14/297 239/494/297 242/495/297 13/17/297
f 13/17/244 242/495/244 230/496/244 25/19/244
f 25/33/298 230/213/298 229/210/298 22/27/298
f 22/27/299 229/210/299 226/209/299 3/24/299
f 68/75/300 313/295/300 318/298/300 78/76/300
f 78/76/301 318/298/301 321/304/301 79/79/301
f 79/497/264 321/328/264 333/326/264 91/498/264
f 91/498/302 333/326/302 332/323/302 88/499/302
f 88/499/303 332/323/303 315/322/303 69/500/303
f 228/231/304 314/307/304 326/310/304 245/232/304
f 245/232/305 326/310/305 329/318/305 246/235/305
f 246/237/259 329/301/259 317/299/259 234/217/259
f 234/217/306 317/299/306 316/296/306 231/212/306
f 231/212/307 316/296/307 313/295/307 226/209/307
f 94/501/295 100/487/295 102/486/295 96/502/295
f 96/502/294 102/486/294 103/485/294 97/503/294
f 97/503/293 103/485/293 104/484/293 98/504/293
f 98/504/292 104/484/292 105/483/292 99/505/292
f 99/505/291 105/483/291 101/69/291 95/318/291
f 34/235/285 40/36/285 45/39/285 36/488/285
f 36/488/284 45/39/284 48/45/284 37/489/284
f 37/489/283 48/45/283 60/61/283 38/490/283
f 38/490/282 60/61/282 59/58/282 39/491/282
f 39/491/281 59/58/281 42/57/281 35/492/281
f 41/48/308 253/237/308 255/506/308 51/49/308
f 51/49/309 255/506/309 256/507/309 52/52/309
f 52/52/310 256/507/310 257/215/310 64/54/310
f 64/54/311 257/508/311 258/509/311 61/60/311
f 61/60/312 258/509/312 254/194/312 42/57/312
f 108/116/313 340/268/313 342/510/313 125/117/313
f 125/117/314 342/510/314 343/511/314 126/120/314
f 126/120/315 343/511/315 344/512/315 114/104/315
f 114/104/316 344/306/316 345/513/316 111/98/316
f 111/98/317 345/513/317 341/301/317 106/95/317
f 100/501/295 108/116/295 127/119/295 102/502/295
f 102/502/294 127/119/294 130/113/294 103/503/294
f 103/503/293 130/113/293 118/111/293 104/504/293
f 104/504/292 118/111/292 117/108/292 105/505/292
f 105/505/291 117/108/291 107/107/291 101/318/291
f 40/36/318 107/107/318 119/110/318 43/37/318
f 43/37/319 119/110/319 122/101/319 44/40/319
f 44/40/320 122/101/320 110/99/320 56/42/320
f 56/42/321 110/99/321 109/96/321 53/51/321
f 53/51/322 109/96/322 106/95/322 41/48/322
f 253/30/308 259/176/308 264/179/308 255/474/308
f 255/474/309 264/179/309 267/185/309 256/8/309
f 256/8/310 267/206/310 279/260/310 257/514/310
f 257/514/311 279/260/311 278/257/311 258/515/311
f 258/515/312 278/257/312 261/256/312 254/516/312
f 260/209/242 400/384/242 405/387/242 270/246/242
f 270/246/243 405/387/243 408/392/243 271/249/243
f 271/251/244 408/400/244 420/398/244 283/252/244
f 283/252/245 420/398/245 419/376/245 280/259/245
f 280/259/246 419/376/246 402/395/246 261/256/246
f 227/220/323 402/395/323 421/397/323 237/221/323
f 237/221/324 421/397/324 424/367/324 238/224/324
f 238/224/325 424/367/325 412/366/325 250/226/325
f 250/226/326 412/364/326 411/361/326 247/234/326
f 247/234/327 411/361/327 401/360/327 228/231/327
f 314/307/328 455/413/328 467/416/328 324/308/328
f 324/308/329 467/416/329 470/439/329 325/311/329
f 325/311/330 470/439/330 458/423/330 337/466/330
f 337/466/331 458/407/331 457/402/331 334/517/331
f 334/517/332 457/402/332 454/435/332 315/518/332
f 400/384/257 456/449/257 475/452/257 403/385/257
f 403/385/258 475/452/258 478/86/258 404/28/258
f 404/371/259 478/417/259 466/445/259 416/389/259
f 416/389/260 466/445/260 465/414/260 413/363/260
f 413/363/261 465/414/261 455/413/261 401/360/261
f 346/262/262 454/435/262 459/437/262 349/263/262
f 349/263/263 459/437/263 462/443/263 350/268/263
f 350/333/264 462/455/264 474/453/264 362/334/264
f 362/334/265 474/453/265 473/450/265 359/343/265
f 359/343/266 473/450/266 456/449/266 347/295/266
f 259/176/267 348/286/267 367/289/267 262/177/267
f 262/177/268 367/289/268 370/280/268 263/180/268
f 263/180/269 370/280/269 358/344/269 275/243/269
f 275/243/270 358/344/270 357/341/270 272/248/270
f 272/248/271 357/341/271 347/295/271 260/209/271
f 340/519/313 346/262/313 351/265/313 342/520/313
f 342/520/314 351/265/314 354/292/314 343/521/314
f 343/521/315 354/290/315 366/347/315 344/484/315
f 344/484/316 366/347/316 365/287/316 345/483/316
f 345/483/317 365/287/317 348/286/317 341/69/317
f 29/470/333 2/200/333 134/381/333 140/134/333
f 2/460/333 201/200/333 375/375/333 134/461/333
f 288/286/334 199/176/334 1/1/334 67/63/334
f 35/470/333 227/493/333 2/13/333 29/492/333
f 68/75/335 3/24/335 226/209/335 313/295/335
f 95/69/336 28/30/336 139/122/336 173/161/336
f 101/69/336 34/30/336 28/235/336 95/318/336
f 107/107/336 40/36/336 34/235/336 101/318/336
f 42/57/333 254/194/333 227/395/333 35/492/333
f 341/301/334 253/237/334 41/48/334 106/95/334
f 286/262/337 69/89/337 166/469/337 427/401/337
f 69/262/337 94/487/337 172/149/337 166/432/337
f 315/322/337 100/487/337 94/501/337 69/500/337
f 340/268/337 108/116/337 100/501/337 315/435/337
f 167/318/338 133/235/338 374/360/338 428/413/338
f 174/170/338 141/143/338 133/371/338 167/417/338
f 429/75/335 373/24/335 200/188/335 287/274/335
f 254/516/333 261/256/333 402/395/333 227/220/333
f 314/307/338 228/231/338 401/360/338 455/413/338
f 348/286/334 259/176/334 253/30/334 341/69/334
f 456/449/335 400/384/335 260/209/335 347/295/335
f 346/262/337 340/519/337 315/518/337 454/435/337
